TitilliumWeb-BoldItalic.ufo
<glyph name="quotedbl" format="2">
  <advance width="306"/>
  <unicode hex="0022"/>
  <outline>
    <contour>
      <point x="109" y="437" type="line" name="hr00"/>
      <point x="224" y="437" type="line"/>
      <point x="292" y="688" type="line"/>
      <point x="167" y="688" type="line"/>
    </contour>
    <contour>
      <point x="277" y="437" type="line" name="hr00"/>
      <point x="392" y="437" type="line"/>
      <point x="460" y="688" type="line"/>
      <point x="335" y="688" type="line"/>
    </contour>
  </outline>
</glyph>
<glyph name="dollar" format="2">
  <advance width="560"/>
  <unicode hex="0024"/>
  <outline>
    <contour>
      <point x="114" y="-119" type="line"/>
      <point x="199" y="-119" type="line"/>
      <point x="599" y="771" type="line"/>
      <point x="513" y="771" type="line"/>
    </contour>
    <component base="S" xScale="0.97202" yScale="0.97301" xOffset="39"/>
  </outline>
</glyph>
<glyph name="ampersand" format="2">
  <advance width="600"/>
  <unicode hex="0026"/>
  <outline>
    <contour>
      <point x="254" y="-12" type="curve" smooth="yes"/>
      <point x="334" y="-12"/>
      <point x="416" y="21"/>
      <point x="471" y="70" type="curve"/>
      <point x="558" y="-12" type="line"/>
      <point x="651" y="75" type="line"/>
      <point x="560" y="167" type="line"/>
      <point x="593" y="215"/>
      <point x="633" y="299"/>
      <point x="658" y="370" type="curve"/>
      <point x="531" y="385" type="line"/>
      <point x="522" y="350"/>
      <point x="494" y="278"/>
      <point x="481" y="257" type="curve"/>
      <point x="408" y="346" type="line"/>
      <point x="545" y="427"/>
      <point x="592" y="486"/>
      <point x="592" y="584" type="curve" smooth="yes"/>
      <point x="592" y="666"/>
      <point x="528" y="712"/>
      <point x="412" y="712" type="curve" smooth="yes" name="hr00"/>
      <point x="254" y="712"/>
      <point x="177" y="627"/>
      <point x="177" y="510" type="curve" smooth="yes"/>
      <point x="177" y="476"/>
      <point x="188" y="449"/>
      <point x="212" y="406" type="curve"/>
      <point x="68" y="350"/>
      <point x="17" y="260"/>
      <point x="17" y="142" type="curve" smooth="yes"/>
      <point x="17" y="45"/>
      <point x="82" y="-12"/>
    </contour>
    <contour>
      <point x="244" y="108" type="curve" smooth="yes"/>
      <point x="183" y="108"/>
      <point x="154" y="127"/>
      <point x="154" y="167" type="curve" smooth="yes"/>
      <point x="154" y="222"/>
      <point x="192" y="286"/>
      <point x="265" y="318" type="curve"/>
      <point x="394" y="152" type="line"/>
      <point x="365" y="128"/>
      <point x="301" y="108"/>
    </contour>
    <contour>
      <point x="346" y="429" type="curve"/>
      <point x="330" y="438" type="line"/>
      <point x="314" y="462"/>
      <point x="307" y="481"/>
      <point x="307" y="500" type="curve" smooth="yes"/>
      <point x="307" y="545"/>
      <point x="340" y="598"/>
      <point x="407" y="598" type="curve" smooth="yes"/>
      <point x="439" y="598"/>
      <point x="455" y="591"/>
      <point x="455" y="566" type="curve" smooth="yes"/>
      <point x="455" y="524"/>
      <point x="437" y="486"/>
    </contour>
  </outline>
</glyph>
<glyph name="quotesingle" format="2">
  <advance width="138"/>
  <unicode hex="0027"/>
  <outline>
    <contour>
      <point x="109" y="437" type="line" name="hr00"/>
      <point x="224" y="437" type="line"/>
      <point x="292" y="688" type="line"/>
      <point x="167" y="688" type="line"/>
    </contour>
  </outline>
</glyph>
<glyph name="slash" format="2">
  <advance width="468"/>
  <unicode hex="002F"/>
  <outline>
    <contour>
      <point x="163" y="-24" type="line" name="hr00"/>
      <point x="594" y="674" type="line"/>
      <point x="468" y="718" type="line"/>
      <point x="37" y="20" type="line"/>
    </contour>
  </outline>
</glyph>
<glyph name="five" format="2">
  <advance width="560"/>
  <unicode hex="0035"/>
  <outline>
    <contour>
      <point x="297" y="-12" type="curve" smooth="yes"/>
      <point x="447" y="-12"/>
      <point x="560" y="99"/>
      <point x="560" y="258" type="curve" smooth="yes"/>
      <point x="560" y="372"/>
      <point x="493" y="418"/>
      <point x="386" y="418" type="curve" smooth="yes"/>
      <point x="354" y="418"/>
      <point x="302" y="400"/>
      <point x="271" y="387" type="curve"/>
      <point x="330" y="543" type="line"/>
      <point x="614" y="543" type="line"/>
      <point x="641" y="661" type="line" name="hr00"/>
      <point x="248" y="661" type="line"/>
      <point x="137" y="302" type="line"/>
      <point x="237" y="279" type="line"/>
      <point x="260" y="288"/>
      <point x="305" y="300"/>
      <point x="341" y="300" type="curve" smooth="yes"/>
      <point x="398" y="300"/>
      <point x="419" y="278"/>
      <point x="419" y="228" type="curve" smooth="yes"/>
      <point x="419" y="163"/>
      <point x="362" y="106"/>
      <point x="284" y="106" type="curve" smooth="yes"/>
      <point x="229" y="106"/>
      <point x="143" y="123"/>
      <point x="93" y="135" type="curve"/>
      <point x="62" y="31" type="line"/>
      <point x="112" y="13"/>
      <point x="211" y="-12"/>
    </contour>
  </outline>
</glyph>
<glyph name="eight" format="2">
  <advance width="560"/>
  <unicode hex="0038"/>
  <outline>
    <contour>
      <point x="269" y="-14" type="curve" smooth="yes"/>
      <point x="434" y="-14"/>
      <point x="575" y="80"/>
      <point x="575" y="217" type="curve" smooth="yes"/>
      <point x="575" y="259"/>
      <point x="568" y="306"/>
      <point x="523" y="340" type="curve"/>
      <point x="592" y="386"/>
      <point x="638" y="434"/>
      <point x="638" y="540" type="curve" smooth="yes"/>
      <point x="638" y="610"/>
      <point x="573" y="673"/>
      <point x="441" y="673" type="curve" smooth="yes" name="hr00"/>
      <point x="258" y="673"/>
      <point x="153" y="556"/>
      <point x="153" y="439" type="curve" smooth="yes"/>
      <point x="153" y="411"/>
      <point x="150" y="386"/>
      <point x="195" y="340" type="curve"/>
      <point x="144" y="306"/>
      <point x="65" y="239"/>
      <point x="65" y="154" type="curve" smooth="yes"/>
      <point x="65" y="45"/>
      <point x="120" y="-14"/>
    </contour>
    <contour>
      <point x="300" y="104" type="curve" smooth="yes"/>
      <point x="237" y="104"/>
      <point x="214" y="125"/>
      <point x="214" y="180" type="curve" smooth="yes"/>
      <point x="214" y="225"/>
      <point x="254" y="259"/>
      <point x="299" y="275" type="curve"/>
      <point x="387" y="275" type="line"/>
      <point x="422" y="260"/>
      <point x="430" y="243"/>
      <point x="430" y="211" type="curve" smooth="yes"/>
      <point x="430" y="159"/>
      <point x="375" y="104"/>
    </contour>
    <contour>
      <point x="327" y="389" type="line"/>
      <point x="301" y="411"/>
      <point x="294" y="422"/>
      <point x="294" y="455" type="curve" smooth="yes"/>
      <point x="294" y="503"/>
      <point x="346" y="555"/>
      <point x="411" y="555" type="curve" smooth="yes"/>
      <point x="467" y="555"/>
      <point x="490" y="524"/>
      <point x="490" y="486" type="curve" smooth="yes"/>
      <point x="490" y="453"/>
      <point x="453" y="411"/>
      <point x="415" y="389" type="curve"/>
    </contour>
  </outline>
</glyph>
<glyph name="nine" format="2">
  <advance width="560"/>
  <unicode hex="0039"/>
  <outline>
    <contour>
      <point x="227" y="-12" type="curve" smooth="yes"/>
      <point x="426" y="-12"/>
      <point x="605" y="138"/>
      <point x="605" y="420" type="curve" smooth="yes"/>
      <point x="605" y="573"/>
      <point x="548" y="672"/>
      <point x="418" y="672" type="curve" smooth="yes"/>
      <point x="213" y="672"/>
      <point x="125" y="525"/>
      <point x="125" y="416" type="curve" smooth="yes"/>
      <point x="125" y="290"/>
      <point x="183" y="239"/>
      <point x="296" y="239" type="curve" smooth="yes"/>
      <point x="344" y="239"/>
      <point x="444" y="266"/>
      <point x="444" y="265" type="curve"/>
      <point x="421" y="173"/>
      <point x="344" y="114"/>
      <point x="258" y="114" type="curve" smooth="yes"/>
      <point x="200" y="114"/>
      <point x="146" y="123"/>
      <point x="121" y="129" type="curve"/>
      <point x="79" y="10" type="line" name="hr00"/>
      <point x="111" y="1"/>
      <point x="173" y="-12"/>
    </contour>
    <contour>
      <point x="339" y="361" type="curve" smooth="yes"/>
      <point x="283" y="361"/>
      <point x="259" y="374"/>
      <point x="259" y="428" type="curve" smooth="yes"/>
      <point x="259" y="501"/>
      <point x="322" y="547"/>
      <point x="388" y="547" type="curve" smooth="yes"/>
      <point x="470" y="547"/>
      <point x="491" y="472"/>
      <point x="472" y="376" type="curve"/>
      <point x="438" y="370"/>
      <point x="378" y="361"/>
    </contour>
  </outline>
</glyph>
<glyph name="less" format="2">
  <advance width="560"/>
  <unicode hex="003C"/>
  <outline>
    <contour>
      <point x="520" y="10" type="line"/>
      <point x="520" y="146" type="line"/>
      <point x="259" y="254" type="line"/>
      <point x="520" y="353" type="line" name="hr00"/>
      <point x="520" y="489" type="line"/>
      <point x="114" y="306" type="line"/>
      <point x="114" y="196" type="line"/>
    </contour>
  </outline>
</glyph>
<glyph name="greater" format="2">
  <advance width="560"/>
  <unicode hex="003E"/>
  <outline>
    <contour>
      <point x="155" y="10" type="line"/>
      <point x="561" y="196" type="line"/>
      <point x="561" y="306" type="line"/>
      <point x="155" y="489" type="line"/>
      <point x="155" y="353" type="line"/>
      <point x="416" y="254" type="line"/>
      <point x="155" y="146" type="line"/>
    </contour>
  </outline>
</glyph>
<glyph name="question" format="2">
  <advance width="431"/>
  <unicode hex="003F"/>
  <outline>
    <contour>
      <point x="174" y="208" type="curve"/>
      <point x="300" y="208" type="line"/>
      <point x="309" y="248" type="line"/>
      <point x="314" y="270"/>
      <point x="334.955" y="296.065"/>
      <point x="371" y="321" type="curve" smooth="yes"/>
      <point x="480.955" y="397.065"/>
      <point x="522" y="441"/>
      <point x="522" y="536" type="curve" smooth="yes" name="hr00"/>
      <point x="522" y="648"/>
      <point x="451" y="692"/>
      <point x="338" y="692" type="curve" smooth="yes"/>
      <point x="287" y="692"/>
      <point x="217" y="677"/>
      <point x="178" y="665" type="curve"/>
      <point x="164" y="560" type="line"/>
      <point x="195" y="565"/>
      <point x="256" y="572"/>
      <point x="307" y="572" type="curve" smooth="yes"/>
      <point x="352" y="572"/>
      <point x="380" y="567"/>
      <point x="380" y="522" type="curve" smooth="yes"/>
      <point x="380" y="485"/>
      <point x="346.852" y="458.21"/>
      <point x="276" y="408" type="curve" smooth="yes"/>
      <point x="219.851" y="368.209"/>
      <point x="188.335" y="331.939"/>
      <point x="182" y="298" type="curve" smooth="yes"/>
      <point x="176" y="268"/>
      <point x="174" y="229"/>
    </contour>
    <contour>
      <point x="120" y="0" type="line"/>
      <point x="256" y="0" type="line" name="hr01"/>
      <point x="294" y="168" type="line"/>
      <point x="158" y="168" type="line"/>
    </contour>
  </outline>
</glyph>
<glyph name="B" format="2">
  <advance width="573"/>
  <unicode hex="0042"/>
  <outline>
    <contour>
      <point x="65" y="0" type="line"/>
      <point x="321" y="0" type="line"/>
      <point x="502" y="0"/>
      <point x="589" y="107"/>
      <point x="589" y="232" type="curve" smooth="yes"/>
      <point x="589" y="282"/>
      <point x="579" y="317"/>
      <point x="524" y="350" type="curve"/>
      <point x="593" y="392"/>
      <point x="636" y="441"/>
      <point x="636" y="533" type="curve" smooth="yes"/>
      <point x="636" y="634"/>
      <point x="569" y="680"/>
      <point x="458" y="680" type="curve" smooth="yes"/>
      <point x="222" y="680" type="line" name="hr00"/>
    </contour>
    <contour>
      <point x="230" y="118" type="line"/>
      <point x="269" y="285" type="line"/>
      <point x="382" y="285" type="line" smooth="yes"/>
      <point x="427" y="285"/>
      <point x="447" y="268"/>
      <point x="447" y="229" type="curve" smooth="yes"/>
      <point x="447" y="164"/>
      <point x="408" y="118"/>
      <point x="348" y="118" type="curve" smooth="yes"/>
    </contour>
    <contour>
      <point x="295" y="400" type="line"/>
      <point x="333" y="562" type="line"/>
      <point x="436" y="562" type="line" smooth="yes"/>
      <point x="477" y="562"/>
      <point x="495" y="542"/>
      <point x="495" y="505" type="curve" smooth="yes"/>
      <point x="495" y="442"/>
      <point x="452" y="400"/>
      <point x="398" y="400" type="curve" smooth="yes"/>
    </contour>
  </outline>
</glyph>
<glyph name="D" format="2">
  <advance width="605"/>
  <unicode hex="0044"/>
  <outline>
    <contour>
      <point x="65" y="0" type="line" name="hr00"/>
      <point x="309" y="0" type="line" smooth="yes"/>
      <point x="553" y="0"/>
      <point x="660" y="247"/>
      <point x="660" y="473" type="curve" smooth="yes"/>
      <point x="660" y="636"/>
      <point x="554" y="680"/>
      <point x="436" y="680" type="curve"/>
      <point x="222" y="680" type="line"/>
    </contour>
    <contour>
      <point x="231" y="120" type="line"/>
      <point x="332" y="560" type="line"/>
      <point x="408" y="560" type="line" smooth="yes"/>
      <point x="476" y="560"/>
      <point x="518" y="541"/>
      <point x="518" y="473" type="curve" smooth="yes"/>
      <point x="518" y="349"/>
      <point x="465" y="120"/>
      <point x="321" y="120" type="curve"/>
    </contour>
  </outline>
</glyph>
<glyph name="E" format="2">
  <advance width="497"/>
  <unicode hex="0045"/>
  <outline>
    <contour>
      <point x="65" y="0" type="line" name="hr00"/>
      <point x="465" y="0" type="line"/>
      <point x="492" y="120" type="line"/>
      <point x="231" y="120" type="line"/>
      <point x="268" y="280" type="line"/>
      <point x="473" y="280" type="line"/>
      <point x="501" y="400" type="line"/>
      <point x="295" y="400" type="line"/>
      <point x="332" y="560" type="line"/>
      <point x="592" y="560" type="line"/>
      <point x="620" y="680" type="line"/>
      <point x="221" y="680" type="line"/>
    </contour>
  </outline>
</glyph>
<glyph name="F" format="2">
  <advance width="477"/>
  <unicode hex="0046"/>
  <outline>
    <contour>
      <point x="65" y="0" type="line" name="hr00"/>
      <point x="203" y="0" type="line"/>
      <point x="257" y="235" type="line"/>
      <point x="466" y="235" type="line"/>
      <point x="495" y="355" type="line"/>
      <point x="285" y="355" type="line"/>
      <point x="332" y="560" type="line"/>
      <point x="586" y="560" type="line"/>
      <point x="614" y="680" type="line"/>
      <point x="222" y="680" type="line"/>
    </contour>
  </outline>
</glyph>
<glyph name="H" format="2">
  <advance width="620"/>
  <unicode hex="0048"/>
  <outline>
    <contour>
      <point x="65" y="0" type="line"/>
      <point x="203" y="0" type="line"/>
      <point x="269" y="288" type="line"/>
      <point x="483" y="288" type="line"/>
      <point x="417" y="0" type="line" name="hr00"/>
      <point x="555" y="0" type="line"/>
      <point x="712" y="680" type="line"/>
      <point x="574" y="680" type="line"/>
      <point x="511" y="408" type="line"/>
      <point x="297" y="408" type="line"/>
      <point x="360" y="680" type="line"/>
      <point x="222" y="680" type="line"/>
    </contour>
  </outline>
</glyph>
<glyph name="L" format="2">
  <advance width="422"/>
  <unicode hex="004C"/>
  <outline>
    <contour>
      <point x="65" y="0" type="line"/>
      <point x="419" y="0" type="line" name="hr00"/>
      <point x="446" y="120" type="line"/>
      <point x="231" y="120" type="line"/>
      <point x="360" y="680" type="line"/>
      <point x="222" y="680" type="line"/>
    </contour>
  </outline>
</glyph>
<glyph name="P" format="2">
  <advance width="547"/>
  <unicode hex="0050"/>
  <outline>
    <contour>
      <point x="65" y="0" type="line"/>
      <point x="203" y="0" type="line"/>
      <point x="248" y="196" type="line" name="hr00"/>
      <point x="333" y="196" type="line" smooth="yes"/>
      <point x="512" y="196"/>
      <point x="628" y="293"/>
      <point x="628" y="488" type="curve" smooth="yes"/>
      <point x="628" y="622"/>
      <point x="566" y="680"/>
      <point x="418" y="680" type="curve"/>
      <point x="222" y="680" type="line"/>
    </contour>
    <contour>
      <point x="276" y="316" type="line"/>
      <point x="332" y="560" type="line"/>
      <point x="408" y="560" type="line" smooth="yes"/>
      <point x="465" y="560"/>
      <point x="486" y="536"/>
      <point x="486" y="486" type="curve" smooth="yes"/>
      <point x="486" y="377"/>
      <point x="435" y="316"/>
      <point x="351" y="316" type="curve" smooth="yes"/>
    </contour>
  </outline>
</glyph>
<glyph name="Q" format="2">
  <advance width="615"/>
  <unicode hex="0051"/>
  <outline>
    <contour>
      <point x="388" y="-154" type="line"/>
      <point x="519" y="-111" type="line"/>
      <point x="462" y="50" type="line"/>
      <point x="340" y="7" type="line"/>
    </contour>
    <component base="O"/>
  </outline>
</glyph>
<glyph name="S" format="2">
  <advance width="495"/>
  <unicode hex="0053"/>
  <outline>
    <contour>
      <point x="258" y="-12" type="curve" smooth="yes"/>
      <point x="412" y="-12"/>
      <point x="515" y="69"/>
      <point x="515" y="223" type="curve" smooth="yes"/>
      <point x="515" y="312"/>
      <point x="491" y="349"/>
      <point x="379" y="399" type="curve" smooth="yes"/>
      <point x="297" y="436"/>
      <point x="286" y="448"/>
      <point x="286" y="485" type="curve" smooth="yes"/>
      <point x="286" y="538"/>
      <point x="321" y="574"/>
      <point x="381" y="574" type="curve" smooth="yes"/>
      <point x="432" y="574"/>
      <point x="514" y="564"/>
      <point x="561" y="556" type="curve"/>
      <point x="586" y="654" type="line" name="hr00"/>
      <point x="543" y="670"/>
      <point x="457" y="692"/>
      <point x="377" y="692" type="curve" smooth="yes"/>
      <point x="234" y="692"/>
      <point x="146" y="595"/>
      <point x="146" y="469" type="curve" smooth="yes"/>
      <point x="146" y="379"/>
      <point x="184" y="338"/>
      <point x="274" y="297" type="curve" smooth="yes"/>
      <point x="362" y="257"/>
      <point x="375" y="245"/>
      <point x="375" y="207" type="curve" smooth="yes"/>
      <point x="375" y="132"/>
      <point x="331" y="108"/>
      <point x="256" y="108" type="curve" smooth="yes"/>
      <point x="205" y="108"/>
      <point x="122" y="119"/>
      <point x="73" y="128" type="curve"/>
      <point x="50" y="29" type="line"/>
      <point x="94" y="11"/>
      <point x="181" y="-12"/>
    </contour>
  </outline>
</glyph>
<glyph name="T" format="2">
  <advance width="456"/>
  <unicode hex="0054"/>
  <outline>
    <contour>
      <point x="158" y="0" type="line"/>
      <point x="296" y="0" type="line"/>
      <point x="425" y="560" type="line"/>
      <point x="576" y="560" type="line"/>
      <point x="604" y="680" type="line"/>
      <point x="166" y="680" type="line"/>
      <point x="138" y="560" type="line" name="hr00"/>
      <point x="287" y="560" type="line"/>
    </contour>
  </outline>
</glyph>
<glyph name="U" format="2">
  <advance width="595"/>
  <unicode hex="0055"/>
  <outline>
    <contour>
      <point x="310" y="-12" type="curve" smooth="yes"/>
      <point x="470" y="-12"/>
      <point x="550" y="61"/>
      <point x="589" y="231" type="curve" smooth="yes"/>
      <point x="693" y="680" type="line"/>
      <point x="555" y="680" type="line"/>
      <point x="451" y="231" type="line"/>
      <point x="432" y="147"/>
      <point x="409" y="108"/>
      <point x="322" y="108" type="curve" smooth="yes"/>
      <point x="272" y="108"/>
      <point x="240" y="118"/>
      <point x="240" y="165" type="curve" smooth="yes"/>
      <point x="240" y="189"/>
      <point x="244.129" y="209.97"/>
      <point x="249" y="231" type="curve" smooth="yes"/>
      <point x="353" y="680" type="line" name="hr00"/>
      <point x="215" y="680" type="line"/>
      <point x="116" y="253" type="line"/>
      <point x="109" y="221"/>
      <point x="103" y="178"/>
      <point x="103" y="142" type="curve" smooth="yes"/>
      <point x="103" y="36"/>
      <point x="186" y="-12"/>
    </contour>
  </outline>
</glyph>
<glyph name="V" format="2">
  <advance width="555"/>
  <unicode hex="0056"/>
  <outline>
    <contour>
      <point x="156" y="0" type="line"/>
      <point x="391" y="0" type="line"/>
      <point x="699" y="680" type="line" name="hr00"/>
      <point x="561" y="680" type="line"/>
      <point x="317" y="120" type="line"/>
      <point x="284" y="120" type="line"/>
      <point x="308" y="680" type="line"/>
      <point x="170" y="680" type="line"/>
    </contour>
  </outline>
</glyph>
<glyph name="W" format="2">
  <advance width="865"/>
  <unicode hex="0057"/>
  <outline>
    <contour>
      <point x="143" y="0" type="line"/>
      <point x="349" y="0" type="line"/>
      <point x="547" y="494" type="line"/>
      <point x="514" y="0" type="line"/>
      <point x="714" y="0" type="line"/>
      <point x="1005" y="680" type="line"/>
      <point x="867" y="680" type="line"/>
      <point x="643" y="127" type="line"/>
      <point x="629" y="127" type="line"/>
      <point x="662" y="670" type="line"/>
      <point x="510" y="670" type="line"/>
      <point x="284" y="127" type="line"/>
      <point x="270" y="127" type="line"/>
      <point x="312" y="680" type="line"/>
      <point x="174" y="680" type="line" name="hr00"/>
    </contour>
  </outline>
</glyph>
<glyph name="Y" format="2">
  <advance width="504"/>
  <unicode hex="0059"/>
  <outline>
    <contour>
      <point x="185" y="0" type="line"/>
      <point x="313" y="0" type="line"/>
      <point x="381" y="288" type="line"/>
      <point x="661" y="680" type="line" name="hr00"/>
      <point x="515" y="680" type="line"/>
      <point x="346" y="415" type="line"/>
      <point x="298" y="680" type="line"/>
      <point x="158" y="680" type="line"/>
      <point x="253" y="294" type="line"/>
    </contour>
  </outline>
</glyph>
<glyph name="Z" format="2">
  <advance width="490"/>
  <unicode hex="005A"/>
  <outline>
    <contour>
      <point x="36" y="0" type="line"/>
      <point x="454" y="0" type="line"/>
      <point x="482" y="120" type="line"/>
      <point x="220" y="120" type="line"/>
      <point x="226" y="144" type="line"/>
      <point x="579" y="541" type="line"/>
      <point x="611" y="680" type="line"/>
      <point x="193" y="680" type="line"/>
      <point x="165" y="560" type="line" name="hr00"/>
      <point x="423" y="560" type="line"/>
      <point x="418" y="536" type="line"/>
      <point x="67" y="137" type="line"/>
    </contour>
  </outline>
</glyph>
<glyph name="bracketleft" format="2">
  <advance width="246"/>
  <unicode hex="005B"/>
  <outline>
    <contour>
      <point x="-15" y="-122" type="line"/>
      <point x="211" y="-122" type="line"/>
      <point x="239" y="-8" type="line"/>
      <point x="151" y="-8" type="line"/>
      <point x="300" y="633" type="line"/>
      <point x="388" y="633" type="line"/>
      <point x="416" y="747" type="line" name="hr00"/>
      <point x="187" y="747" type="line"/>
    </contour>
  </outline>
</glyph>
<glyph name="asciicircum" format="2">
  <advance width="560"/>
  <unicode hex="005E"/>
  <outline>
    <contour>
      <point x="55" y="313" type="line"/>
      <point x="195" y="313" type="line"/>
      <point x="308" y="530" type="line"/>
      <point x="417" y="313" type="line"/>
      <point x="557" y="313" type="line"/>
      <point x="363" y="660" type="line"/>
      <point x="249" y="660" type="line"/>
    </contour>
  </outline>
</glyph>
<glyph name="underscore" format="2">
  <advance width="478"/>
  <unicode hex="005F"/>
  <outline>
    <contour>
      <point x="-32" y="-205" type="line"/>
      <point x="416" y="-205" type="line"/>
      <point x="444" y="-80" type="line"/>
      <point x="-4" y="-80" type="line" name="hr00"/>
    </contour>
  </outline>
</glyph>
<glyph name="a" format="2">
  <advance width="528"/>
  <unicode hex="0061"/>
  <outline>
    <contour>
      <point x="221" y="-12" type="curve" smooth="yes" name="hr00"/>
      <point x="277" y="-12"/>
      <point x="334" y="38"/>
      <point x="362" y="76" type="curve"/>
      <point x="359" y="64"/>
      <point x="353" y="24"/>
      <point x="349" y="-2" type="curve"/>
      <point x="482" y="3" type="line"/>
      <point x="488" y="42"/>
      <point x="499" y="111"/>
      <point x="509" y="156" type="curve" smooth="yes"/>
      <point x="584" y="479" type="line"/>
      <point x="508" y="493"/>
      <point x="387" y="512"/>
      <point x="334" y="512" type="curve" smooth="yes"/>
      <point x="152" y="512"/>
      <point x="80" y="306"/>
      <point x="80" y="170" type="curve" smooth="yes"/>
      <point x="80" y="66"/>
      <point x="119" y="-12"/>
    </contour>
    <contour>
      <point x="267" y="102" type="curve" smooth="yes"/>
      <point x="226" y="102"/>
      <point x="216" y="127"/>
      <point x="216" y="170" type="curve" smooth="yes"/>
      <point x="216" y="261"/>
      <point x="257" y="398"/>
      <point x="338" y="398" type="curve" smooth="yes"/>
      <point x="357" y="398"/>
      <point x="402" y="390"/>
      <point x="430" y="384" type="curve"/>
      <point x="384" y="191" type="line"/>
      <point x="351" y="153"/>
      <point x="297" y="102"/>
    </contour>
  </outline>
</glyph>
<glyph name="c" format="2">
  <advance width="409"/>
  <unicode hex="0063"/>
  <outline>
    <contour>
      <point x="245" y="-12" type="curve" smooth="yes"/>
      <point x="298" y="-12"/>
      <point x="359" y="2"/>
      <point x="390" y="13" type="curve"/>
      <point x="401" y="112" type="line"/>
      <point x="373" y="109"/>
      <point x="325" y="104"/>
      <point x="294" y="104" type="curve" smooth="yes"/>
      <point x="239" y="104"/>
      <point x="218" y="135"/>
      <point x="218" y="191" type="curve" smooth="yes"/>
      <point x="218" y="285"/>
      <point x="255" y="396"/>
      <point x="337" y="396" type="curve" smooth="yes"/>
      <point x="369" y="396"/>
      <point x="425" y="389"/>
      <point x="458" y="383" type="curve"/>
      <point x="492" y="481" type="line"/>
      <point x="458" y="494"/>
      <point x="394" y="512"/>
      <point x="343" y="512" type="curve" smooth="yes" name="hr00"/>
      <point x="168" y="512"/>
      <point x="82" y="356"/>
      <point x="82" y="162" type="curve" smooth="yes"/>
      <point x="82" y="50"/>
      <point x="149" y="-12"/>
    </contour>
  </outline>
</glyph>
<glyph name="d" format="2">
  <advance width="528"/>
  <unicode hex="0064"/>
  <outline>
    <contour>
      <point x="224" y="-12" type="curve" smooth="yes"/>
      <point x="277" y="-12"/>
      <point x="328" y="24"/>
      <point x="352" y="52" type="curve"/>
      <point x="343" y="0" type="line"/>
      <point x="473" y="0" type="line"/>
      <point x="635" y="700" type="line" name="hr00"/>
      <point x="501" y="700" type="line"/>
      <point x="452" y="490" type="line"/>
      <point x="418" y="499"/>
      <point x="363" y="511"/>
      <point x="332" y="511" type="curve" smooth="yes"/>
      <point x="166" y="511"/>
      <point x="80" y="327"/>
      <point x="80" y="165" type="curve" smooth="yes"/>
      <point x="80" y="53"/>
      <point x="128" y="-12"/>
    </contour>
    <contour>
      <point x="267" y="102" type="curve" smooth="yes"/>
      <point x="231" y="102"/>
      <point x="216" y="130"/>
      <point x="216" y="166" type="curve" smooth="yes"/>
      <point x="216" y="257"/>
      <point x="257" y="397"/>
      <point x="332" y="397" type="curve" smooth="yes"/>
      <point x="360" y="397"/>
      <point x="403" y="389"/>
      <point x="428" y="383" type="curve"/>
      <point x="380" y="174" type="line"/>
      <point x="347" y="143"/>
      <point x="294" y="102"/>
    </contour>
  </outline>
</glyph>
<glyph name="f" format="2">
  <advance width="328"/>
  <unicode hex="0066"/>
  <outline>
    <contour>
      <point x="26" y="-211" type="line"/>
      <point x="147" y="-211" type="line"/>
      <point x="210" y="0" type="line"/>
      <point x="300" y="386" type="line" name="hr00"/>
      <point x="402" y="386" type="line"/>
      <point x="430" y="500" type="line"/>
      <point x="325" y="500" type="line"/>
      <point x="330" y="519" type="line"/>
      <point x="340" y="560"/>
      <point x="350" y="598"/>
      <point x="384" y="598" type="curve" smooth="yes"/>
      <point x="406" y="598"/>
      <point x="434" y="594"/>
      <point x="449" y="591" type="curve"/>
      <point x="473" y="689" type="line"/>
      <point x="452" y="699"/>
      <point x="412" y="712"/>
      <point x="378" y="712" type="curve" smooth="yes"/>
      <point x="267" y="712"/>
      <point x="229.594" y="654.378"/>
      <point x="196" y="520" type="curve" smooth="yes"/>
      <point x="191" y="500" type="line"/>
      <point x="148" y="500" type="line"/>
      <point x="120" y="384" type="line"/>
      <point x="166" y="384" type="line"/>
    </contour>
  </outline>
</glyph>
<glyph name="g" format="2">
  <advance width="484"/>
  <unicode hex="0067"/>
  <outline>
    <contour>
      <point x="226" y="-230" type="curve" smooth="yes" name="hr00"/>
      <point x="377" y="-230"/>
      <point x="467" y="-149"/>
      <point x="467" y="-32" type="curve" smooth="yes"/>
      <point x="467" y="58"/>
      <point x="392" y="84"/>
      <point x="325" y="94" type="curve" smooth="yes"/>
      <point x="257" y="104"/>
      <point x="231" y="109"/>
      <point x="231" y="126" type="curve" smooth="yes"/>
      <point x="231" y="138"/>
      <point x="240" y="153"/>
      <point x="246" y="162" type="curve"/>
      <point x="254" y="160"/>
      <point x="271" y="157"/>
      <point x="289" y="157" type="curve" smooth="yes"/>
      <point x="411" y="157"/>
      <point x="498" y="240"/>
      <point x="498" y="341" type="curve" smooth="yes"/>
      <point x="498" y="362"/>
      <point x="496" y="381"/>
      <point x="494" y="392" type="curve"/>
      <point x="552" y="392" type="line"/>
      <point x="577" y="500" type="line"/>
      <point x="431" y="494" type="line"/>
      <point x="400" y="502"/>
      <point x="346" y="512"/>
      <point x="310" y="512" type="curve" smooth="yes"/>
      <point x="184" y="512"/>
      <point x="103" y="428"/>
      <point x="103" y="316" type="curve" smooth="yes"/>
      <point x="103" y="249"/>
      <point x="130" y="215"/>
      <point x="171" y="191" type="curve"/>
      <point x="145" y="169"/>
      <point x="111" y="128"/>
      <point x="111" y="95" type="curve" smooth="yes"/>
      <point x="111" y="71"/>
      <point x="115" y="58"/>
      <point x="131" y="42" type="curve"/>
      <point x="75" y="15"/>
      <point x="9" y="-23"/>
      <point x="9" y="-93" type="curve" smooth="yes"/>
      <point x="9" y="-193"/>
      <point x="97" y="-230"/>
    </contour>
    <contour>
      <point x="223" y="-118" type="curve" smooth="yes"/>
      <point x="155" y="-118"/>
      <point x="131" y="-91"/>
      <point x="131" y="-62" type="curve" smooth="yes"/>
      <point x="131" y="-35"/>
      <point x="166" y="-6"/>
      <point x="188" y="6" type="curve"/>
      <point x="205" y="2"/>
      <point x="238" y="-3"/>
      <point x="273" y="-9" type="curve" smooth="yes"/>
      <point x="314" y="-16"/>
      <point x="341" y="-21"/>
      <point x="341" y="-48" type="curve" smooth="yes"/>
      <point x="341" y="-107"/>
      <point x="277" y="-118"/>
    </contour>
    <contour>
      <point x="296" y="266" type="curve" smooth="yes"/>
      <point x="248" y="266"/>
      <point x="226" y="287"/>
      <point x="226" y="322" type="curve" smooth="yes"/>
      <point x="226" y="367"/>
      <point x="257" y="403"/>
      <point x="305" y="403" type="curve" smooth="yes"/>
      <point x="353" y="403"/>
      <point x="375" y="382"/>
      <point x="375" y="347" type="curve" smooth="yes"/>
      <point x="375" y="302"/>
      <point x="343" y="266"/>
    </contour>
  </outline>
</glyph>
<glyph name="h" format="2">
  <advance width="513"/>
  <unicode hex="0068"/>
  <outline>
    <contour>
      <point x="55" y="0" type="line"/>
      <point x="189" y="0" type="line" name="hr00"/>
      <point x="266" y="336" type="line"/>
      <point x="294" y="362"/>
      <point x="339" y="396"/>
      <point x="362" y="396" type="curve" smooth="yes"/>
      <point x="397" y="396"/>
      <point x="402" y="375"/>
      <point x="402" y="338" type="curve" smooth="yes"/>
      <point x="402" y="315"/>
      <point x="390" y="260"/>
      <point x="384" y="235" type="curve" smooth="yes"/>
      <point x="330" y="0" type="line"/>
      <point x="464" y="0" type="line"/>
      <point x="520" y="245" type="line"/>
      <point x="527" y="275"/>
      <point x="541" y="336"/>
      <point x="541" y="371" type="curve" smooth="yes"/>
      <point x="541" y="449"/>
      <point x="510" y="512"/>
      <point x="419" y="512" type="curve" smooth="yes"/>
      <point x="371" y="512"/>
      <point x="319" y="478"/>
      <point x="294" y="453" type="curve"/>
      <point x="350" y="700" type="line"/>
      <point x="216" y="700" type="line"/>
    </contour>
  </outline>
</glyph>
<glyph name="k" format="2">
  <advance width="467"/>
  <unicode hex="006B"/>
  <outline>
    <contour>
      <point x="55" y="0" type="line" name="hr00"/>
      <point x="189" y="0" type="line"/>
      <point x="235" y="201" type="line"/>
      <point x="275" y="207" type="line"/>
      <point x="323" y="0" type="line"/>
      <point x="460" y="0" type="line"/>
      <point x="394" y="259" type="line"/>
      <point x="568" y="499" type="line"/>
      <point x="421" y="499" type="line"/>
      <point x="294" y="318" type="line"/>
      <point x="260" y="311" type="line"/>
      <point x="350" y="700" type="line"/>
      <point x="216" y="700" type="line"/>
    </contour>
  </outline>
</glyph>
<glyph name="m" format="2">
  <advance width="776"/>
  <unicode hex="006D"/>
  <outline>
    <contour>
      <point x="55" y="0" type="line"/>
      <point x="189" y="0" type="line"/>
      <point x="266" y="336" type="line"/>
      <point x="293" y="362"/>
      <point x="337" y="396"/>
      <point x="360" y="396" type="curve" smooth="yes"/>
      <point x="394" y="396"/>
      <point x="401" y="375"/>
      <point x="401" y="338" type="curve" smooth="yes"/>
      <point x="401" y="315"/>
      <point x="389" y="260"/>
      <point x="383" y="235" type="curve" smooth="yes"/>
      <point x="329" y="0" type="line"/>
      <point x="463" y="0" type="line" name="hr00"/>
      <point x="519" y="245" type="line"/>
      <point x="525" y="269"/>
      <point x="531" y="312"/>
      <point x="534" y="338" type="curve"/>
      <point x="560" y="363"/>
      <point x="604" y="396"/>
      <point x="631" y="396" type="curve" smooth="yes"/>
      <point x="661" y="396"/>
      <point x="668" y="374"/>
      <point x="668" y="334" type="curve" smooth="yes"/>
      <point x="668" y="313"/>
      <point x="656" y="260"/>
      <point x="650" y="235" type="curve" smooth="yes"/>
      <point x="594" y="0" type="line"/>
      <point x="728" y="0" type="line"/>
      <point x="784" y="245" type="line"/>
      <point x="791" y="275"/>
      <point x="803" y="335"/>
      <point x="803" y="371" type="curve" smooth="yes"/>
      <point x="803" y="449"/>
      <point x="774" y="512"/>
      <point x="683" y="512" type="curve" smooth="yes"/>
      <point x="627" y="512"/>
      <point x="561" y="472"/>
      <point x="527" y="441" type="curve"/>
      <point x="519" y="472"/>
      <point x="485" y="512"/>
      <point x="423" y="512" type="curve" smooth="yes"/>
      <point x="370" y="512"/>
      <point x="318" y="478"/>
      <point x="293" y="452" type="curve"/>
      <point x="298" y="500" type="line"/>
      <point x="170" y="500" type="line"/>
    </contour>
  </outline>
</glyph>
<glyph name="n" format="2">
  <advance width="513"/>
  <unicode hex="006E"/>
  <outline>
    <contour>
      <point x="55" y="0" type="line" name="hr00"/>
      <point x="189" y="0" type="line"/>
      <point x="266" y="336" type="line"/>
      <point x="293" y="362"/>
      <point x="338" y="396"/>
      <point x="361" y="396" type="curve" smooth="yes"/>
      <point x="398" y="396"/>
      <point x="402" y="375"/>
      <point x="402" y="338" type="curve" smooth="yes"/>
      <point x="402" y="315"/>
      <point x="390" y="260"/>
      <point x="384" y="235" type="curve"/>
      <point x="330" y="0" type="line"/>
      <point x="464" y="0" type="line"/>
      <point x="520" y="245" type="line" smooth="yes"/>
      <point x="526.864" y="275.031"/>
      <point x="541" y="338"/>
      <point x="541" y="371" type="curve" smooth="yes"/>
      <point x="541" y="449"/>
      <point x="510" y="512"/>
      <point x="419" y="512" type="curve" smooth="yes"/>
      <point x="371" y="512"/>
      <point x="318" y="477"/>
      <point x="292" y="451" type="curve"/>
      <point x="298" y="500" type="line"/>
      <point x="170" y="500" type="line"/>
    </contour>
  </outline>
</glyph>
<glyph name="q" format="2">
  <advance width="526"/>
  <unicode hex="0071"/>
  <outline>
    <contour>
      <point x="291" y="-210" type="line"/>
      <point x="425" y="-210" type="line"/>
      <point x="583" y="478" type="line"/>
      <point x="512" y="492"/>
      <point x="394" y="511"/>
      <point x="332" y="511" type="curve" smooth="yes"/>
      <point x="170" y="511"/>
      <point x="80" y="334"/>
      <point x="80" y="162" type="curve" smooth="yes"/>
      <point x="80" y="54"/>
      <point x="129" y="-12"/>
      <point x="224" y="-12" type="curve" smooth="yes" name="hr00"/>
      <point x="277" y="-12"/>
      <point x="328" y="25"/>
      <point x="352" y="53" type="curve"/>
    </contour>
    <contour>
      <point x="267" y="102" type="curve" smooth="yes"/>
      <point x="231" y="102"/>
      <point x="216" y="130"/>
      <point x="216" y="166" type="curve" smooth="yes"/>
      <point x="216" y="265"/>
      <point x="261" y="397"/>
      <point x="331" y="397" type="curve" smooth="yes"/>
      <point x="359" y="397"/>
      <point x="403" y="389"/>
      <point x="428" y="383" type="curve"/>
      <point x="380" y="174" type="line"/>
      <point x="347" y="143"/>
      <point x="294" y="102"/>
    </contour>
  </outline>
</glyph>
<glyph name="t" format="2">
  <advance width="329"/>
  <unicode hex="0074"/>
  <outline>
    <contour>
      <point x="212" y="-12" type="curve" smooth="yes"/>
      <point x="255" y="-12"/>
      <point x="301" y="1"/>
      <point x="324" y="11" type="curve"/>
      <point x="335" y="107" type="line"/>
      <point x="317" y="105"/>
      <point x="286" y="102"/>
      <point x="267" y="102" type="curve" smooth="yes"/>
      <point x="246" y="102"/>
      <point x="238" y="111"/>
      <point x="238" y="130" type="curve" smooth="yes"/>
      <point x="238" y="144"/>
      <point x="242" y="169"/>
      <point x="246" y="186" type="curve" smooth="yes"/>
      <point x="292" y="386" type="line"/>
      <point x="396" y="386" type="line" name="hr00"/>
      <point x="424" y="500" type="line"/>
      <point x="319" y="500" type="line"/>
      <point x="348" y="628" type="line"/>
      <point x="214" y="628" type="line"/>
      <point x="185" y="500" type="line"/>
      <point x="134" y="500" type="line"/>
      <point x="104" y="386" type="line"/>
      <point x="158" y="386" type="line"/>
      <point x="114" y="198" type="line"/>
      <point x="106" y="165"/>
      <point x="99" y="127"/>
      <point x="99" y="96" type="curve" smooth="yes"/>
      <point x="99" y="37"/>
      <point x="137" y="-12"/>
    </contour>
  </outline>
</glyph>
<glyph name="u" format="2">
  <advance width="513"/>
  <unicode hex="0075"/>
  <outline>
    <contour>
      <point x="209" y="-12" type="curve" smooth="yes"/>
      <point x="257" y="-12"/>
      <point x="310" y="23"/>
      <point x="336" y="49" type="curve"/>
      <point x="330" y="0" type="line"/>
      <point x="458" y="0" type="line"/>
      <point x="573" y="500" type="line"/>
      <point x="439" y="500" type="line" name="hr00"/>
      <point x="362" y="164" type="line"/>
      <point x="335" y="138"/>
      <point x="290" y="104"/>
      <point x="267" y="104" type="curve" smooth="yes"/>
      <point x="233" y="104"/>
      <point x="226" y="125"/>
      <point x="226" y="162" type="curve" smooth="yes"/>
      <point x="226" y="185"/>
      <point x="238" y="240"/>
      <point x="244" y="265" type="curve" smooth="yes"/>
      <point x="298" y="500" type="line"/>
      <point x="164" y="500" type="line"/>
      <point x="108" y="255" type="line"/>
      <point x="101" y="226"/>
      <point x="87" y="162"/>
      <point x="87" y="129" type="curve" smooth="yes"/>
      <point x="87" y="51"/>
      <point x="118" y="-12"/>
    </contour>
  </outline>
</glyph>
<glyph name="w" format="2">
  <advance width="762"/>
  <unicode hex="0077"/>
  <outline>
    <contour>
      <point x="106" y="0" type="line"/>
      <point x="325" y="0" type="line"/>
      <point x="451" y="311" type="line"/>
      <point x="432" y="0" type="line"/>
      <point x="655" y="0" type="line"/>
      <point x="859" y="500" type="line"/>
      <point x="724" y="500" type="line"/>
      <point x="575" y="114" type="line"/>
      <point x="552" y="114" type="line"/>
      <point x="572" y="490" type="line"/>
      <point x="420" y="490" type="line"/>
      <point x="261" y="114" type="line"/>
      <point x="238" y="114" type="line"/>
      <point x="270" y="500" type="line"/>
      <point x="135" y="500" type="line" name="hr00"/>
    </contour>
  </outline>
</glyph>
<glyph name="z" format="2">
  <advance width="414"/>
  <unicode hex="007A"/>
  <outline>
    <contour>
      <point x="34" y="0" type="line"/>
      <point x="379" y="0" type="line"/>
      <point x="408" y="114" type="line"/>
      <point x="216" y="114" type="line"/>
      <point x="468" y="389" type="line"/>
      <point x="496" y="500" type="line"/>
      <point x="151" y="500" type="line" name="hr00"/>
      <point x="122" y="386" type="line"/>
      <point x="310" y="386" type="line"/>
      <point x="59" y="112" type="line"/>
    </contour>
  </outline>
</glyph>
<glyph name="braceright" format="2">
  <advance width="287"/>
  <unicode hex="007D"/>
  <outline>
    <contour>
      <point x="184" y="756" type="curve"/>
      <point x="153" y="641" type="line"/>
      <point x="191" y="641"/>
      <point x="211" y="623"/>
      <point x="211" y="593" type="curve" smooth="yes"/>
      <point x="211" y="557"/>
      <point x="166" y="442"/>
      <point x="166" y="404" type="curve" smooth="yes"/>
      <point x="166" y="356"/>
      <point x="186" y="333"/>
      <point x="227" y="310" type="curve"/>
      <point x="159" y="286"/>
      <point x="127" y="255"/>
      <point x="108" y="177" type="curve"/>
      <point x="100" y="135"/>
      <point x="92" y="93"/>
      <point x="84" y="51" type="curve"/>
      <point x="74" y="12"/>
      <point x="53" y="-16"/>
      <point x="-5" y="-21" type="curve"/>
      <point x="-27" y="-136" type="line"/>
      <point x="106" y="-131"/>
      <point x="172" y="-94"/>
      <point x="206" y="20" type="curve"/>
      <point x="215" y="72"/>
      <point x="230" y="148"/>
      <point x="235" y="166" type="curve" smooth="yes"/>
      <point x="246" y="208"/>
      <point x="256" y="230"/>
      <point x="344" y="253" type="curve"/>
      <point x="368" y="348" type="line"/>
      <point x="317" y="375"/>
      <point x="301" y="403"/>
      <point x="301" y="433" type="curve" smooth="yes"/>
      <point x="301" y="473"/>
      <point x="343" y="590"/>
      <point x="343" y="631" type="curve" smooth="yes"/>
      <point x="343" y="711"/>
      <point x="280" y="756"/>
    </contour>
  </outline>
</glyph>
<glyph name="asciitilde" format="2">
  <advance width="560"/>
  <unicode hex="007E"/>
  <outline>
    <contour>
      <point x="443" y="170" type="curve" smooth="yes"/>
      <point x="487" y="170"/>
      <point x="533" y="199"/>
      <point x="556" y="221" type="curve"/>
      <point x="548" y="328" type="line" name="hr00"/>
      <point x="521" y="312"/>
      <point x="474" y="290"/>
      <point x="446" y="290" type="curve" smooth="yes"/>
      <point x="398" y="290"/>
      <point x="297" y="334"/>
      <point x="243" y="334" type="curve" smooth="yes"/>
      <point x="199" y="334"/>
      <point x="147" y="304"/>
      <point x="120" y="282" type="curve"/>
      <point x="130" y="175" type="line"/>
      <point x="156" y="192"/>
      <point x="204" y="214"/>
      <point x="239" y="214" type="curve" smooth="yes"/>
      <point x="277" y="214"/>
      <point x="389" y="170"/>
    </contour>
  </outline>
</glyph>
<glyph name="exclamdown" format="2">
  <advance width="161"/>
  <unicode hex="00A1"/>
  <outline>
    <contour>
      <point x="201" y="242" type="line"/>
      <point x="75" y="242" type="line"/>
      <point x="-37" y="-200" type="line"/>
      <point x="106" y="-200" type="line"/>
    </contour>
    <contour>
      <point x="264" y="500" type="line"/>
      <point x="128" y="500" type="line"/>
      <point x="93" y="347" type="line"/>
      <point x="229" y="347" type="line"/>
    </contour>
  </outline>
</glyph>
<glyph name="section" format="2">
  <advance width="487"/>
  <unicode hex="00A7"/>
  <outline>
    <contour>
      <point x="186" y="-188" type="curve" smooth="yes"/>
      <point x="417" y="-188"/>
      <point x="442" y="-15"/>
      <point x="442" y="46" type="curve" smooth="yes"/>
      <point x="442" y="63"/>
      <point x="440" y="79"/>
      <point x="425" y="103" type="curve"/>
      <point x="460" y="143"/>
      <point x="512" y="202"/>
      <point x="512" y="266" type="curve" smooth="yes"/>
      <point x="512" y="306"/>
      <point x="496" y="369"/>
      <point x="396" y="393" type="curve" smooth="yes"/>
      <point x="342" y="406"/>
      <point x="283" y="414"/>
      <point x="283" y="455" type="curve" smooth="yes"/>
      <point x="283" y="494"/>
      <point x="321" y="518"/>
      <point x="390" y="518" type="curve"/>
      <point x="422" y="518"/>
      <point x="493" y="509"/>
      <point x="538" y="502" type="curve"/>
      <point x="568" y="613" type="line" name="hr00"/>
      <point x="528" y="623"/>
      <point x="457" y="637"/>
      <point x="409" y="637" type="curve"/>
      <point x="235" y="637"/>
      <point x="154" y="508"/>
      <point x="154" y="428" type="curve" smooth="yes"/>
      <point x="154" y="409"/>
      <point x="154" y="364"/>
      <point x="174" y="346" type="curve"/>
      <point x="139" y="320"/>
      <point x="78" y="266"/>
      <point x="78" y="182" type="curve" smooth="yes"/>
      <point x="78" y="122"/>
      <point x="109" y="84"/>
      <point x="195" y="57" type="curve" smooth="yes"/>
      <point x="287" y="28"/>
      <point x="311" y="31"/>
      <point x="311" y="-9" type="curve" smooth="yes"/>
      <point x="311" y="-46"/>
      <point x="268" y="-69"/>
      <point x="204" y="-69" type="curve" smooth="yes"/>
      <point x="167" y="-69"/>
      <point x="97" y="-61"/>
      <point x="54" y="-55" type="curve"/>
      <point x="16" y="-166" type="line"/>
      <point x="61" y="-175"/>
      <point x="138" y="-188"/>
    </contour>
    <contour>
      <point x="337" y="151" type="curve"/>
      <point x="317" y="160"/>
      <point x="292" y="168"/>
      <point x="261" y="180" type="curve" smooth="yes"/>
      <point x="235" y="190"/>
      <point x="215" y="195"/>
      <point x="215" y="216" type="curve" smooth="yes"/>
      <point x="215" y="244"/>
      <point x="239" y="289"/>
      <point x="249" y="301" type="curve"/>
      <point x="256" y="297"/>
      <point x="286" y="289"/>
      <point x="310" y="283" type="curve" smooth="yes"/>
      <point x="354" y="271"/>
      <point x="373" y="260"/>
      <point x="373" y="236" type="curve" smooth="yes"/>
      <point x="373" y="210"/>
      <point x="351" y="165"/>
    </contour>
  </outline>
</glyph>
<glyph name="dieresis" format="2">
  <advance width="514"/>
  <unicode hex="00A8"/>
  <outline>
    <contour>
      <point x="215" y="601" type="line" name="hr00"/>
      <point x="325" y="601" type="line"/>
      <point x="357" y="736" type="line"/>
      <point x="246" y="736" type="line"/>
    </contour>
    <contour>
      <point x="409" y="601" type="line"/>
      <point x="519" y="601" type="line"/>
      <point x="551" y="736" type="line"/>
      <point x="440" y="736" type="line"/>
    </contour>
  </outline>
</glyph>
<glyph name="ordfeminine" format="2">
  <advance width="329"/>
  <unicode hex="00AA"/>
  <outline>
    <contour>
      <point x="405" y="313" type="curve"/>
      <point x="415" y="394" type="line"/>
      <point x="408" y="395"/>
      <point x="403" y="395"/>
      <point x="399" y="399" type="curve"/>
      <point x="436" y="538" type="line"/>
      <point x="456" y="625"/>
      <point x="408" y="659"/>
      <point x="307" y="659" type="curve"/>
      <point x="258" y="659"/>
      <point x="211" y="652"/>
      <point x="160" y="635" type="curve"/>
      <point x="156" y="558" type="line"/>
      <point x="198" y="561"/>
      <point x="264" y="564"/>
      <point x="293" y="564" type="curve"/>
      <point x="317" y="566"/>
      <point x="327" y="566"/>
      <point x="325" y="556" type="curve"/>
      <point x="283" y="375" type="line"/>
      <point x="271" y="325"/>
      <point x="326" y="313"/>
    </contour>
    <contour>
      <point x="190" y="314" type="curve" smooth="yes"/>
      <point x="229" y="314"/>
      <point x="271" y="329"/>
      <point x="313" y="364" type="curve"/>
      <point x="374" y="450" type="line"/>
      <point x="264" y="415"/>
      <point x="260" y="402"/>
      <point x="231" y="402" type="curve" smooth="yes"/>
      <point x="215" y="402"/>
      <point x="211" y="405"/>
      <point x="213" y="415" type="curve" smooth="yes"/>
      <point x="218" y="438"/>
      <point x="238" y="452"/>
      <point x="259" y="454" type="curve" smooth="yes"/>
      <point x="348" y="461" type="line"/>
      <point x="364" y="530" type="line"/>
      <point x="245" y="525" type="line" smooth="yes"/>
      <point x="159" y="521"/>
      <point x="116" y="494"/>
      <point x="103" y="434" type="curve" smooth="yes"/>
      <point x="88" y="364"/>
      <point x="119" y="314"/>
    </contour>
  </outline>
</glyph>
<glyph name="registered" format="2">
  <advance width="641"/>
  <unicode hex="00AE"/>
  <outline>
    <contour>
      <point x="420" y="150" type="curve" smooth="yes"/>
      <point x="589" y="150"/>
      <point x="696" y="273"/>
      <point x="696" y="434" type="curve" smooth="yes"/>
      <point x="696" y="588"/>
      <point x="589" y="718"/>
      <point x="420" y="718" type="curve" smooth="yes"/>
      <point x="261" y="718"/>
      <point x="145" y="598"/>
      <point x="145" y="434" type="curve" smooth="yes" name="hr00"/>
      <point x="145" y="274"/>
      <point x="262" y="150"/>
    </contour>
    <contour>
      <point x="420" y="210" type="curve" smooth="yes"/>
      <point x="301" y="210"/>
      <point x="207" y="312"/>
      <point x="207" y="434" type="curve" smooth="yes"/>
      <point x="207" y="556"/>
      <point x="299" y="658"/>
      <point x="420" y="658" type="curve" smooth="yes"/>
      <point x="542" y="658"/>
      <point x="634" y="556"/>
      <point x="634" y="434" type="curve" smooth="yes"/>
      <point x="634" y="311"/>
      <point x="544" y="210"/>
    </contour>
    <contour>
      <point x="300" y="276" type="line"/>
      <point x="396" y="276" type="line"/>
      <point x="396" y="369" type="line"/>
      <point x="425" y="369" type="line"/>
      <point x="453" y="276" type="line"/>
      <point x="553" y="276" type="line"/>
      <point x="512" y="386" type="line"/>
      <point x="541" y="410"/>
      <point x="550" y="434"/>
      <point x="550" y="486" type="curve" smooth="yes"/>
      <point x="550" y="562"/>
      <point x="501" y="591"/>
      <point x="436" y="591" type="curve" smooth="yes"/>
      <point x="300" y="591" type="line"/>
    </contour>
    <contour>
      <point x="395" y="440" type="line"/>
      <point x="395" y="519" type="line"/>
      <point x="422" y="519" type="line"/>
      <point x="446" y="519"/>
      <point x="457" y="503"/>
      <point x="457" y="479" type="curve" smooth="yes"/>
      <point x="457" y="456"/>
      <point x="445" y="440"/>
      <point x="423" y="440" type="curve"/>
    </contour>
  </outline>
</glyph>
<glyph name="degree" format="2">
  <advance width="560"/>
  <unicode hex="00B0"/>
  <outline>
    <contour>
      <point x="405" y="393" type="curve" smooth="yes"/>
      <point x="494" y="393"/>
      <point x="555" y="453"/>
      <point x="555" y="542" type="curve" smooth="yes"/>
      <point x="555" y="631"/>
      <point x="494" y="692"/>
      <point x="405" y="692" type="curve" smooth="yes"/>
      <point x="316" y="692"/>
      <point x="255" y="631"/>
      <point x="255" y="542" type="curve" smooth="yes" name="hr00"/>
      <point x="255" y="453"/>
      <point x="316" y="393"/>
    </contour>
    <contour>
      <point x="405" y="466" type="curve" smooth="yes"/>
      <point x="360" y="466"/>
      <point x="330" y="497"/>
      <point x="330" y="542" type="curve" smooth="yes"/>
      <point x="330" y="587"/>
      <point x="360" y="619"/>
      <point x="405" y="619" type="curve" smooth="yes"/>
      <point x="450" y="619"/>
      <point x="482" y="587"/>
      <point x="482" y="542" type="curve" smooth="yes"/>
      <point x="482" y="497"/>
      <point x="450" y="466"/>
    </contour>
  </outline>
</glyph>
<glyph name="plusminus" format="2">
  <advance width="560"/>
  <unicode hex="00B1"/>
  <outline>
    <contour>
      <point x="268" y="170" type="line"/>
      <point x="388" y="170" type="line"/>
      <point x="388" y="270" type="line"/>
      <point x="559" y="270" type="line"/>
      <point x="559" y="390" type="line"/>
      <point x="388" y="390" type="line"/>
      <point x="388" y="498" type="line"/>
      <point x="268" y="498" type="line"/>
      <point x="268" y="390" type="line"/>
      <point x="99" y="390" type="line"/>
      <point x="99" y="270" type="line" name="hr00"/>
      <point x="268" y="270" type="line"/>
    </contour>
    <contour>
      <point x="99" y="19" type="line"/>
      <point x="559" y="19" type="line"/>
      <point x="559" y="139" type="line"/>
      <point x="99" y="139" type="line"/>
    </contour>
  </outline>
</glyph>
<glyph name="twosuperior" format="2">
  <advance width="280"/>
  <unicode hex="00B2"/>
  <outline>
    <contour>
      <point x="133" y="478" type="line"/>
      <point x="364" y="478" type="line" name="hr00"/>
      <point x="387" y="573" type="line"/>
      <point x="293" y="573" type="line"/>
      <point x="338" y="601" type="line"/>
      <point x="386" y="630"/>
      <point x="407.765" y="656.058"/>
      <point x="419" y="701" type="curve" smooth="yes"/>
      <point x="436.765" y="772.059"/>
      <point x="416" y="801"/>
      <point x="333" y="801" type="curve" smooth="yes"/>
      <point x="300" y="801"/>
      <point x="245" y="796"/>
      <point x="213" y="792" type="curve"/>
      <point x="192" y="693" type="line"/>
      <point x="216" y="696"/>
      <point x="254" y="699"/>
      <point x="270" y="699" type="curve" smooth="yes"/>
      <point x="295" y="699"/>
      <point x="306.104" y="695.973"/>
      <point x="303" y="684" type="curve" smooth="yes"/>
      <point x="299.104" y="668.973"/>
      <point x="284" y="654"/>
      <point x="243" y="627" type="curve" smooth="yes"/>
      <point x="155" y="568" type="line"/>
    </contour>
  </outline>
</glyph>
<glyph name="acute" format="2">
  <advance width="559"/>
  <unicode hex="00B4"/>
  <outline>
    <contour>
      <point x="254" y="576" type="line" name="hr00"/>
      <point x="518" y="654" type="line"/>
      <point x="508" y="774" type="line"/>
      <point x="244" y="683" type="line"/>
    </contour>
  </outline>
</glyph>
<glyph name="mu" format="2">
  <advance width="649"/>
  <unicode hex="00B5"/>
  <outline>
    <contour>
      <point x="148" y="-162" type="line" name="hr00"/>
      <point x="281" y="-162" type="line"/>
      <point x="396" y="338" type="line"/>
      <point x="263" y="338" type="line"/>
    </contour>
    <component base="u" xOffset="136"/>
  </outline>
</glyph>
<glyph name="paragraph" format="2">
  <advance width="565"/>
  <unicode hex="00B6"/>
  <outline>
    <contour>
      <point x="206" y="0" type="line"/>
      <point x="314" y="0" type="line"/>
      <point x="456" y="594" type="line"/>
      <point x="513" y="594" type="line"/>
      <point x="372" y="0" type="line" name="hr00"/>
      <point x="479" y="0" type="line"/>
      <point x="621" y="594" type="line"/>
      <point x="655" y="594" type="line"/>
      <point x="680" y="700" type="line"/>
      <point x="367" y="700" type="line"/>
      <point x="230" y="700"/>
      <point x="140" y="579"/>
      <point x="140" y="460" type="curve" smooth="yes"/>
      <point x="140" y="380"/>
      <point x="173" y="308"/>
      <point x="279" y="306" type="curve"/>
    </contour>
  </outline>
</glyph>
<glyph name="periodcentered" format="2">
  <advance width="151"/>
  <unicode hex="00B7"/>
  <outline>
    <contour>
      <point x="56" y="207" type="line" name="hr00"/>
      <point x="191" y="207" type="line"/>
      <point x="229" y="376" type="line"/>
      <point x="94" y="376" type="line"/>
    </contour>
  </outline>
</glyph>
<glyph name="cedilla" format="2">
  <advance width="791"/>
  <unicode hex="00B8"/>
  <outline>
    <contour>
      <point x="376" y="-229" type="curve" smooth="yes"/>
      <point x="445" y="-229"/>
      <point x="489.081" y="-192.019"/>
      <point x="505" y="-124" type="curve" smooth="yes" name="hr00"/>
      <point x="522.081" y="-51.019"/>
      <point x="477" y="-33"/>
      <point x="416" y="-33" type="curve" smooth="yes"/>
      <point x="410" y="-33" type="line"/>
      <point x="421" y="5" type="line"/>
      <point x="369" y="5" type="line"/>
      <point x="347" y="-94" type="line"/>
      <point x="369" y="-94" type="line"/>
      <point x="391" y="-94"/>
      <point x="404.78" y="-95.94"/>
      <point x="400" y="-114" type="curve" smooth="yes"/>
      <point x="395.78" y="-129.943"/>
      <point x="384" y="-138"/>
      <point x="358" y="-138" type="curve" smooth="yes"/>
      <point x="346" y="-138"/>
      <point x="325" y="-137"/>
      <point x="312" y="-137" type="curve"/>
      <point x="292" y="-218" type="line"/>
      <point x="310" y="-223"/>
      <point x="346" y="-229"/>
    </contour>
  </outline>
</glyph>
<glyph name="guillemotright" format="2">
  <advance width="474"/>
  <unicode hex="00BB"/>
  <outline>
    <contour>
      <point x="362" y="436" type="line"/>
      <point x="329" y="316" type="line"/>
      <point x="409" y="239" type="line"/>
      <point x="296" y="174" type="line"/>
      <point x="259" y="43" type="line"/>
      <point x="509" y="206" type="line"/>
      <point x="532" y="267" type="line"/>
    </contour>
    <contour>
      <point x="122" y="436" type="line"/>
      <point x="89" y="316" type="line"/>
      <point x="169" y="239" type="line"/>
      <point x="56" y="174" type="line"/>
      <point x="19" y="43" type="line"/>
      <point x="269" y="206" type="line"/>
      <point x="292" y="267" type="line"/>
    </contour>
  </outline>
</glyph>
<glyph name="questiondown" format="2">
  <advance width="432"/>
  <unicode hex="00BF"/>
  <outline>
    <contour>
      <point x="374" y="292" type="curve"/>
      <point x="248" y="292" type="line"/>
      <point x="239" y="252" type="line" smooth="yes"/>
      <point x="234" y="230"/>
      <point x="213" y="204"/>
      <point x="177" y="179" type="curve" smooth="yes"/>
      <point x="67" y="103"/>
      <point x="26" y="59"/>
      <point x="26" y="-36" type="curve" smooth="yes"/>
      <point x="26" y="-148"/>
      <point x="97" y="-192"/>
      <point x="210" y="-192" type="curve" smooth="yes"/>
      <point x="261" y="-192"/>
      <point x="331" y="-177"/>
      <point x="370" y="-165" type="curve"/>
      <point x="384" y="-60" type="line"/>
      <point x="353" y="-65"/>
      <point x="292" y="-72"/>
      <point x="241" y="-72" type="curve" smooth="yes"/>
      <point x="196" y="-72"/>
      <point x="168" y="-67"/>
      <point x="168" y="-22" type="curve" smooth="yes"/>
      <point x="168" y="15"/>
      <point x="201" y="42"/>
      <point x="272" y="92" type="curve" smooth="yes"/>
      <point x="328" y="132"/>
      <point x="360" y="168"/>
      <point x="366" y="202" type="curve" smooth="yes"/>
      <point x="372" y="232"/>
      <point x="374" y="271"/>
    </contour>
    <contour>
      <point x="428" y="500" type="line"/>
      <point x="292" y="500" type="line"/>
      <point x="254" y="332" type="line"/>
      <point x="390" y="332" type="line"/>
    </contour>
  </outline>
</glyph>
<glyph name="Eth" format="2">
  <advance width="613"/>
  <unicode hex="00D0"/>
  <outline>
    <contour>
      <point x="83" y="275" type="line"/>
      <point x="385" y="275" type="line"/>
      <point x="415" y="411" type="line"/>
      <point x="112" y="411" type="line"/>
    </contour>
    <component base="D" xOffset="8"/>
  </outline>
</glyph>
<glyph name="Odieresis" format="2">
  <advance width="615"/>
  <unicode hex="00D6"/>
  <outline>
    <contour>
      <point x="321" y="781" type="line"/>
      <point x="441" y="781" type="line"/>
      <point x="473" y="916" type="line"/>
      <point x="352" y="916" type="line"/>
    </contour>
    <contour>
      <point x="525" y="781" type="line"/>
      <point x="645" y="781" type="line"/>
      <point x="677" y="916" type="line"/>
      <point x="556" y="916" type="line"/>
    </contour>
    <component base="O"/>
  </outline>
</glyph>
<glyph name="Oslash" format="2">
  <advance width="615"/>
  <unicode hex="00D8"/>
  <outline>
    <contour>
      <point x="119" y="-121" type="line" name="hr00"/>
      <point x="423" y="325" type="line"/>
      <point x="728" y="774" type="line"/>
      <point x="654" y="805" type="line"/>
      <point x="353" y="363" type="line"/>
      <point x="53" y="-81" type="line"/>
    </contour>
    <component base="O"/>
  </outline>
</glyph>
<glyph name="acircumflex" format="2">
  <advance width="528"/>
  <unicode hex="00E2"/>
  <outline>
    <contour>
      <point x="212" y="575" type="line"/>
      <point x="352" y="575" type="line"/>
      <point x="410" y="639" type="line"/>
      <point x="434" y="575" type="line"/>
      <point x="566" y="575" type="line"/>
      <point x="480" y="750" type="line"/>
      <point x="380" y="750" type="line"/>
    </contour>
    <component base="a"/>
  </outline>
</glyph>
<glyph name="adieresis" format="2">
  <advance width="528"/>
  <unicode hex="00E4"/>
  <outline>
    <contour>
      <point x="242" y="601" type="line"/>
      <point x="362" y="601" type="line"/>
      <point x="394" y="736" type="line"/>
      <point x="273" y="736" type="line"/>
    </contour>
    <contour>
      <point x="446" y="601" type="line"/>
      <point x="566" y="601" type="line"/>
      <point x="598" y="736" type="line"/>
      <point x="477" y="736" type="line"/>
    </contour>
    <component base="a"/>
  </outline>
</glyph>
<glyph name="ae" format="2">
  <advance width="714"/>
  <unicode hex="00E6"/>
  <outline>
    <contour>
      <point x="168" y="-12" type="curve" smooth="yes"/>
      <point x="216" y="-12"/>
      <point x="314" y="21"/>
      <point x="344" y="37" type="curve"/>
      <point x="370" y="3"/>
      <point x="420" y="-12"/>
      <point x="483" y="-12" type="curve" smooth="yes"/>
      <point x="553" y="-12"/>
      <point x="631" y="4"/>
      <point x="670" y="16" type="curve"/>
      <point x="693" y="118" type="line"/>
      <point x="649" y="114"/>
      <point x="571" y="109"/>
      <point x="521" y="109" type="curve" smooth="yes"/>
      <point x="477" y="109"/>
      <point x="458" y="127"/>
      <point x="453" y="153" type="curve" smooth="yes"/>
      <point x="451" y="165"/>
      <point x="452" y="180"/>
      <point x="455" y="194" type="curve"/>
      <point x="724" y="192" type="line"/>
      <point x="747" y="277" type="line"/>
      <point x="756" y="309"/>
      <point x="762" y="346"/>
      <point x="760" y="378" type="curve" smooth="yes"/>
      <point x="755" y="460"/>
      <point x="706" y="511"/>
      <point x="606" y="511" type="curve" smooth="yes"/>
      <point x="555" y="511"/>
      <point x="510" y="497"/>
      <point x="473" y="470" type="curve"/>
      <point x="451" y="500"/>
      <point x="409" y="511"/>
      <point x="359" y="511" type="curve" smooth="yes"/>
      <point x="309" y="511"/>
      <point x="218" y="498"/>
      <point x="163" y="489" type="curve"/>
      <point x="142" y="372" type="line"/>
      <point x="190" y="378"/>
      <point x="273" y="386"/>
      <point x="324" y="386" type="curve" smooth="yes"/>
      <point x="362" y="386"/>
      <point x="358" y="337"/>
      <point x="349" y="312" type="curve"/>
      <point x="302" y="313"/>
      <point x="255" y="310"/>
      <point x="210" y="302" type="curve" smooth="yes"/>
      <point x="139" y="289"/>
      <point x="79" y="249"/>
      <point x="57" y="153" type="curve"/>
      <point x="37" y="72"/>
      <point x="82" y="-12"/>
    </contour>
    <contour>
      <point x="215" y="103" type="curve" smooth="yes"/>
      <point x="186" y="103"/>
      <point x="180" y="135"/>
      <point x="185" y="157" type="curve" smooth="yes"/>
      <point x="192" y="187"/>
      <point x="218" y="206"/>
      <point x="247" y="208" type="curve" smooth="yes"/>
      <point x="274" y="210"/>
      <point x="308" y="212"/>
      <point x="326" y="212" type="curve"/>
      <point x="317" y="179"/>
      <point x="312" y="146"/>
      <point x="316" y="116" type="curve"/>
      <point x="283" y="108"/>
      <point x="241" y="103"/>
    </contour>
    <contour>
      <point x="628" y="294" type="curve"/>
      <point x="478" y="296" type="line"/>
      <point x="493" y="355"/>
      <point x="516" y="396"/>
      <point x="576" y="396" type="curve" smooth="yes"/>
      <point x="611" y="396"/>
      <point x="628" y="381"/>
      <point x="633" y="358" type="curve" smooth="yes"/>
      <point x="636" y="341"/>
      <point x="634" y="318"/>
    </contour>
  </outline>
</glyph>
<glyph name="idieresis" format="2">
  <advance width="243"/>
  <unicode hex="00EF"/>
  <outline>
    <contour>
      <point x="89" y="601" type="line"/>
      <point x="209" y="601" type="line"/>
      <point x="241" y="736" type="line"/>
      <point x="120" y="736" type="line"/>
    </contour>
    <contour>
      <point x="293" y="601" type="line"/>
      <point x="413" y="601" type="line"/>
      <point x="445" y="736" type="line"/>
      <point x="324" y="736" type="line"/>
    </contour>
    <component base="dotlessi"/>
  </outline>
</glyph>
<glyph name="divide" format="2">
  <advance width="560"/>
  <unicode hex="00F7"/>
  <outline>
    <contour>
      <point x="108" y="191" type="line"/>
      <point x="568" y="191" type="line"/>
      <point x="568" y="311" type="line"/>
      <point x="108" y="311" type="line"/>
    </contour>
    <contour>
      <point x="271" y="17" type="line"/>
      <point x="403" y="17" type="line"/>
      <point x="403" y="149" type="line"/>
      <point x="271" y="149" type="line"/>
    </contour>
    <contour>
      <point x="271" y="352" type="line" name="hr00"/>
      <point x="403" y="352" type="line"/>
      <point x="403" y="484" type="line"/>
      <point x="271" y="484" type="line"/>
    </contour>
  </outline>
</glyph>
<glyph name="udieresis" format="2">
  <advance width="513"/>
  <unicode hex="00FC"/>
  <outline>
    <contour>
      <point x="216" y="601" type="line"/>
      <point x="336" y="601" type="line"/>
      <point x="368" y="736" type="line"/>
      <point x="247" y="736" type="line"/>
    </contour>
    <contour>
      <point x="420" y="601" type="line"/>
      <point x="540" y="601" type="line"/>
      <point x="572" y="736" type="line"/>
      <point x="451" y="736" type="line"/>
    </contour>
    <component base="u"/>
  </outline>
</glyph>
<glyph name="ydieresis" format="2">
  <advance width="464"/>
  <unicode hex="00FF"/>
  <outline>
    <contour>
      <point x="198" y="601" type="line"/>
      <point x="318" y="601" type="line"/>
      <point x="350" y="736" type="line"/>
      <point x="229" y="736" type="line"/>
    </contour>
    <contour>
      <point x="402" y="601" type="line"/>
      <point x="522" y="601" type="line"/>
      <point x="554" y="736" type="line"/>
      <point x="433" y="736" type="line"/>
    </contour>
    <component base="y"/>
  </outline>
</glyph>
<glyph name="dcaron" format="2">
  <advance width="637"/>
  <unicode hex="010F"/>
  <outline>
    <contour>
      <point x="621" y="429" type="line"/>
      <point x="744" y="429" type="line"/>
      <point x="804" y="680" type="line" name="hr00"/>
      <point x="682" y="680" type="line"/>
    </contour>
    <component base="d"/>
  </outline>
</glyph>
<glyph name="Gcircumflex" format="2">
  <advance width="568"/>
  <unicode hex="011C"/>
  <outline>
    <contour>
      <point x="300" y="755" type="line"/>
      <point x="440" y="755" type="line"/>
      <point x="498" y="819" type="line"/>
      <point x="522" y="755" type="line"/>
      <point x="654" y="755" type="line"/>
      <point x="568" y="930" type="line"/>
      <point x="468" y="930" type="line"/>
    </contour>
    <component base="G"/>
  </outline>
</glyph>
<glyph name="Gbreve" format="2">
  <advance width="568"/>
  <unicode hex="011E"/>
  <outline>
    <contour>
      <point x="477" y="760" type="curve" smooth="yes"/>
      <point x="599" y="760"/>
      <point x="673" y="830"/>
      <point x="705" y="926" type="curve"/>
      <point x="574" y="926" type="line"/>
      <point x="563" y="896"/>
      <point x="543" y="882"/>
      <point x="511" y="882" type="curve" smooth="yes"/>
      <point x="485" y="882"/>
      <point x="471" y="893"/>
      <point x="469" y="913" type="curve"/>
      <point x="469" y="917"/>
      <point x="468" y="921"/>
      <point x="469" y="926" type="curve"/>
      <point x="338" y="926" type="line" name="hr00"/>
      <point x="336" y="911"/>
      <point x="335" y="896"/>
      <point x="336" y="882" type="curve" smooth="yes"/>
      <point x="340" y="813"/>
      <point x="382" y="760"/>
    </contour>
    <component base="G"/>
  </outline>
</glyph>
<glyph name="Gdotaccent" format="2">
  <advance width="568"/>
  <unicode hex="0120"/>
  <outline>
    <contour>
      <point x="419" y="732" type="line"/>
      <point x="545" y="732" type="line"/>
      <point x="577" y="869" type="line"/>
      <point x="451" y="869" type="line"/>
    </contour>
    <component base="G"/>
  </outline>
</glyph>
<glyph name="hbar" format="2">
  <advance width="513"/>
  <unicode hex="0127"/>
  <outline>
    <contour>
      <point x="125" y="530" type="line" name="hr00"/>
      <point x="433" y="530" type="line"/>
      <point x="461" y="646" type="line"/>
      <point x="152" y="646" type="line"/>
    </contour>
    <component base="h"/>
  </outline>
</glyph>
<glyph name="Lcaron" format="2">
  <advance width="464"/>
  <unicode hex="013D"/>
  <outline>
    <contour>
      <point x="407" y="429" type="line"/>
      <point x="530" y="429" type="line"/>
      <point x="590" y="680" type="line" name="hr00"/>
      <point x="468" y="680" type="line"/>
    </contour>
    <component base="L"/>
  </outline>
</glyph>
<glyph name="lcaron" format="2">
  <advance width="353"/>
  <unicode hex="013E"/>
  <outline>
    <contour>
      <point x="337" y="429" type="line"/>
      <point x="460" y="429" type="line"/>
      <point x="520" y="680" type="line" name="hr00"/>
      <point x="398" y="680" type="line"/>
    </contour>
    <component base="l"/>
  </outline>
</glyph>
<glyph name="Lslash" format="2">
  <advance width="423"/>
  <unicode hex="0141"/>
  <outline>
    <contour>
      <point x="87" y="191" type="line"/>
      <point x="445" y="414" type="line"/>
      <point x="404" y="506" type="line" name="hr00"/>
      <point x="46" y="284" type="line"/>
    </contour>
    <component base="L" xOffset="2"/>
  </outline>
</glyph>
<glyph name="lslash" format="2">
  <advance width="292"/>
  <unicode hex="0142"/>
  <outline>
    <contour>
      <point x="90" y="197" type="line"/>
      <point x="397" y="389" type="line"/>
      <point x="356" y="481" type="line" name="hr00"/>
      <point x="49" y="290" type="line"/>
    </contour>
    <component base="l" xOffset="22"/>
  </outline>
</glyph>
<glyph name="Eng" format="2">
  <advance width="651"/>
  <unicode hex="014A"/>
  <outline>
    <contour>
      <point x="65" y="0" type="line"/>
      <point x="195" y="0" type="line"/>
      <point x="322" y="543" type="line"/>
      <point x="334" y="543" type="line"/>
      <point x="378" y="0" type="line"/>
      <point x="586" y="0" type="line"/>
      <point x="743" y="680" type="line"/>
      <point x="610" y="680" type="line"/>
      <point x="489" y="147" type="line"/>
      <point x="477" y="147" type="line"/>
      <point x="441" y="680" type="line"/>
      <point x="222" y="680" type="line"/>
    </contour>
    <contour>
      <point x="345" y="-210" type="line"/>
      <point x="516" y="-210"/>
      <point x="543" y="-188"/>
      <point x="585" y="-6" type="curve" smooth="yes"/>
      <point x="711" y="539" type="line"/>
      <point x="579" y="539" type="line"/>
      <point x="453" y="-6" type="line"/>
      <point x="435" y="-84"/>
      <point x="421" y="-88"/>
      <point x="368" y="-90" type="curve"/>
    </contour>
  </outline>
</glyph>
<glyph name="OE" format="2">
  <advance width="831"/>
  <unicode hex="0152"/>
  <outline>
    <contour>
      <point x="279" y="-12" type="curve" smooth="yes"/>
      <point x="313" y="-12"/>
      <point x="358" y="-6"/>
      <point x="395" y="0" type="curve"/>
      <point x="796" y="0" type="line"/>
      <point x="826" y="131" type="line"/>
      <point x="551" y="131" type="line"/>
      <point x="586" y="279" type="line"/>
      <point x="805" y="277" type="line"/>
      <point x="834" y="402" type="line"/>
      <point x="614" y="402" type="line"/>
      <point x="653" y="559" type="line"/>
      <point x="929" y="559" type="line"/>
      <point x="959" y="690" type="line"/>
      <point x="555" y="690" type="line"/>
      <point x="522" y="696"/>
      <point x="480" y="702"/>
      <point x="447" y="702" type="curve" smooth="yes"/>
      <point x="285" y="702"/>
      <point x="176" y="595"/>
      <point x="117" y="345" type="curve" smooth="yes"/>
      <point x="99" y="268"/>
      <point x="92" y="204"/>
      <point x="95" y="151" type="curve" smooth="yes"/>
      <point x="102" y="45"/>
      <point x="159" y="-12"/>
    </contour>
    <contour>
      <point x="328" y="120" type="curve" smooth="yes"/>
      <point x="260" y="120"/>
      <point x="232" y="148"/>
      <point x="232" y="215" type="curve" smooth="yes"/>
      <point x="232" y="249"/>
      <point x="239" y="291"/>
      <point x="252" y="345" type="curve" smooth="yes"/>
      <point x="292" y="514"/>
      <point x="345" y="570"/>
      <point x="433" y="570" type="curve" smooth="yes"/>
      <point x="465" y="570"/>
      <point x="509" y="566"/>
      <point x="526" y="564" type="curve"/>
      <point x="421" y="126" type="line"/>
      <point x="388" y="123"/>
      <point x="349" y="120"/>
    </contour>
  </outline>
</glyph>
<glyph name="tcaron" format="2">
  <advance width="464"/>
  <unicode hex="0165"/>
  <outline>
    <contour>
      <point x="448" y="429" type="line"/>
      <point x="571" y="429" type="line"/>
      <point x="631" y="680" type="line" name="hr00"/>
      <point x="509" y="680" type="line"/>
    </contour>
    <component base="t"/>
  </outline>
</glyph>
<glyph name="tbar" format="2">
  <advance width="332"/>
  <unicode hex="0167"/>
  <outline>
    <contour>
      <point x="66" y="200" type="line" name="hr00"/>
      <point x="344" y="200" type="line"/>
      <point x="369" y="316" type="line"/>
      <point x="91" y="316" type="line"/>
    </contour>
    <component base="t" xOffset="2"/>
  </outline>
</glyph>
<glyph name="Oslashacute" format="2">
  <advance width="617"/>
  <unicode hex="01FE"/>
  <outline>
    <contour>
      <point x="120" y="-121" type="line"/>
      <point x="424" y="325" type="line"/>
      <point x="729" y="774" type="line"/>
      <point x="655" y="805" type="line"/>
      <point x="354" y="363" type="line"/>
      <point x="54" y="-81" type="line"/>
    </contour>
    <contour>
      <point x="388" y="755" type="line"/>
      <point x="652" y="832" type="line"/>
      <point x="641" y="962" type="line"/>
      <point x="377" y="871" type="line"/>
    </contour>
    <component base="O" xOffset="1"/>
  </outline>
</glyph>
<glyph name="dotlessj" format="2">
  <advance width="244"/>
  <unicode hex="0237"/>
  <outline>
    <contour>
      <point x="-28" y="-230" type="line"/>
      <point x="147" y="-153"/>
      <point x="157" y="-138"/>
      <point x="189" y="0" type="curve" smooth="yes"/>
      <point x="304" y="500" type="line"/>
      <point x="170" y="500" type="line"/>
      <point x="55" y="0" type="line" smooth="yes"/>
      <point x="41" y="-61"/>
      <point x="34" y="-69"/>
      <point x="-70" y="-123" type="curve"/>
    </contour>
  </outline>
</glyph>
<glyph name="ogonek" format="2">
  <advance width="450"/>
  <unicode hex="02DB"/>
  <outline>
    <contour>
      <point x="258" y="-214" type="curve" smooth="yes"/>
      <point x="288" y="-214"/>
      <point x="331" y="-208"/>
      <point x="356" y="-203" type="curve"/>
      <point x="369" y="-93" type="line" name="hr00"/>
      <point x="356" y="-94"/>
      <point x="337" y="-96"/>
      <point x="332" y="-96" type="curve" smooth="yes"/>
      <point x="322" y="-96"/>
      <point x="319" y="-89"/>
      <point x="319" y="-82" type="curve" smooth="yes"/>
      <point x="319" y="-58"/>
      <point x="370" y="-9"/>
      <point x="393" y="5" type="curve"/>
      <point x="285" y="15" type="line"/>
      <point x="250" y="-9"/>
      <point x="175" y="-76"/>
      <point x="175" y="-137" type="curve" smooth="yes"/>
      <point x="175" y="-188"/>
      <point x="207" y="-214"/>
    </contour>
  </outline>
</glyph>
<glyph name="tilde" format="2">
  <advance width="446"/>
  <unicode hex="02DC"/>
  <outline>
    <contour>
      <point x="416" y="590" type="curve" smooth="yes"/>
      <point x="452" y="590"/>
      <point x="503" y="626"/>
      <point x="532" y="654" type="curve"/>
      <point x="528" y="747" type="line" name="hr00"/>
      <point x="501" y="730"/>
      <point x="460" y="708"/>
      <point x="442" y="708" type="curve" smooth="yes"/>
      <point x="417" y="708"/>
      <point x="367" y="751"/>
      <point x="312" y="751" type="curve" smooth="yes"/>
      <point x="277" y="751"/>
      <point x="226" y="714"/>
      <point x="197" y="686" type="curve"/>
      <point x="200" y="594" type="line"/>
      <point x="225" y="611"/>
      <point x="266" y="634"/>
      <point x="286" y="634" type="curve" smooth="yes"/>
      <point x="317" y="634"/>
      <point x="368" y="590"/>
    </contour>
  </outline>
</glyph>
<glyph name="commaaccentcomb" format="2">
  <unicode hex="0326"/>
  <outline>
    <contour>
      <point x="-77" y="-309" type="line"/>
      <point x="36" y="-309" type="line"/>
      <point x="143" y="-72" type="line"/>
      <point x="20" y="-72" type="line" name="hr00"/>
    </contour>
  </outline>
</glyph>
<glyph name="pi" format="2">
  <advance width="560"/>
  <unicode hex="03C0"/>
  <outline>
    <contour>
      <point x="587" y="-10" type="curve"/>
      <point x="587" y="104" type="line"/>
      <point x="529" y="104"/>
      <point x="518" y="121"/>
      <point x="518" y="154" type="curve" smooth="yes"/>
      <point x="518" y="420" type="line"/>
      <point x="384" y="415" type="line"/>
      <point x="384" y="154" type="line" smooth="yes" name="hr00"/>
      <point x="384" y="20"/>
      <point x="406" y="-10"/>
    </contour>
    <contour>
      <point x="138" y="0" type="line"/>
      <point x="273" y="0" type="line"/>
      <point x="301" y="411" type="line"/>
      <point x="172" y="410" type="line"/>
    </contour>
    <contour>
      <point x="82" y="373" type="line"/>
      <point x="134" y="385"/>
      <point x="199" y="394"/>
      <point x="188" y="375" type="curve"/>
      <point x="234" y="386" type="line"/>
      <point x="393" y="386" type="line"/>
      <point x="414" y="393" type="line"/>
      <point x="502" y="381"/>
      <point x="567" y="391"/>
      <point x="592" y="402" type="curve"/>
      <point x="592" y="512" type="line"/>
      <point x="570" y="507"/>
      <point x="525" y="500"/>
      <point x="483" y="500" type="curve" smooth="yes"/>
      <point x="232" y="500" type="line"/>
      <point x="169" y="500"/>
      <point x="110" y="490"/>
      <point x="82" y="482" type="curve"/>
    </contour>
  </outline>
</glyph>
<glyph name="comma-ar" format="2">
  <advance width="263"/>
  <unicode hex="060C"/>
  <outline>
    <contour>
      <point x="184" y="283" type="line"/>
      <point x="73" y="283" type="line"/>
      <point x="116" y="0" type="line"/>
      <point x="263" y="0" type="line"/>
    </contour>
  </outline>
</glyph>
<glyph name="semicolon-ar" format="2">
  <advance width="279"/>
  <unicode hex="061B"/>
  <outline>
    <contour>
      <point x="171" y="579" type="line"/>
      <point x="60" y="579" type="line"/>
      <point x="37" y="296" type="line"/>
      <point x="184" y="296" type="line"/>
    </contour>
    <contour>
      <point x="218" y="153" type="line"/>
      <point x="82" y="153" type="line"/>
      <point x="117" y="0" type="line"/>
      <point x="253" y="0" type="line"/>
    </contour>
  </outline>
</glyph>
<glyph name="hamza-ar" format="2">
  <advance width="605"/>
  <unicode hex="0621"/>
  <anchor x="389" y="-100" name="bottom"/>
  <anchor x="239" y="549" name="top"/>
  <outline>
    <contour>
      <point x="240" y="20" type="curve"/>
      <point x="324" y="110" type="line"/>
      <point x="269" y="162"/>
      <point x="237" y="215"/>
      <point x="237" y="269" type="curve" smooth="yes"/>
      <point x="237" y="325"/>
      <point x="272" y="357"/>
      <point x="332" y="357" type="curve" smooth="yes"/>
      <point x="363" y="357"/>
      <point x="387" y="348"/>
      <point x="416" y="332" type="curve"/>
      <point x="471" y="439" type="line"/>
      <point x="425" y="466"/>
      <point x="371" y="477"/>
      <point x="323" y="477" type="curve" smooth="yes"/>
      <point x="192" y="477"/>
      <point x="105" y="394"/>
      <point x="105" y="273" type="curve" smooth="yes"/>
      <point x="105" y="194"/>
      <point x="142" y="107"/>
    </contour>
    <contour>
      <point x="98" y="0" type="line"/>
      <point x="633" y="0" type="line"/>
      <point x="605" y="120" type="line"/>
      <point x="70" y="120" type="line"/>
    </contour>
  </outline>
</glyph>
<glyph name="hah-ar" format="2">
  <advance width="595"/>
  <unicode hex="062D"/>
  <anchor x="420" y="-400" name="bottom"/>
  <anchor x="440" y="-102" name="center"/>
  <anchor x="195" y="573" name="top"/>
  <outline>
    <contour>
      <point x="459" y="0" type="line"/>
      <point x="593" y="0" type="line"/>
      <point x="528" y="279" type="line" smooth="yes"/>
      <point x="495" y="421"/>
      <point x="374" y="500"/>
      <point x="221" y="500" type="curve" smooth="yes"/>
      <point x="162" y="500"/>
      <point x="105" y="488"/>
      <point x="50" y="472" type="curve"/>
      <point x="89" y="351" type="line"/>
      <point x="50" y="363" type="line"/>
      <point x="146" y="374"/>
      <point x="195" y="380"/>
      <point x="230" y="380" type="curve" smooth="yes"/>
      <point x="324" y="380"/>
      <point x="381" y="338"/>
      <point x="397" y="267" type="curve" smooth="yes"/>
    </contour>
    <contour>
      <point x="435" y="-332" type="curve" smooth="yes"/>
      <point x="479" y="-332"/>
      <point x="522" y="-326"/>
      <point x="609" y="-305" type="curve"/>
      <point x="548" y="-146" type="line"/>
      <point x="639" y="-188" type="line"/>
      <point x="536" y="-207"/>
      <point x="465" y="-212"/>
      <point x="430" y="-212" type="curve" smooth="yes"/>
      <point x="275" y="-212"/>
      <point x="249" y="-111"/>
      <point x="249" y="-68" type="curve" smooth="yes"/>
      <point x="249" y="-22"/>
      <point x="279" y="0"/>
      <point x="365" y="0" type="curve" smooth="yes"/>
      <point x="459" y="0" type="line"/>
      <point x="432" y="120" type="line"/>
      <point x="347" y="120" type="line" smooth="yes"/>
      <point x="204" y="120"/>
      <point x="118" y="56"/>
      <point x="118" y="-63" type="curve" smooth="yes"/>
      <point x="118" y="-198"/>
      <point x="227" y="-332"/>
    </contour>
  </outline>
</glyph>
<glyph name="dal-ar" format="2">
  <advance width="477"/>
  <unicode hex="062F"/>
  <anchor x="322" y="-100" name="bottom"/>
  <anchor x="83" y="573" name="top"/>
  <outline>
    <contour>
      <point x="98" y="0" type="line"/>
      <point x="485" y="0" type="line"/>
      <point x="430" y="238" type="line" smooth="yes"/>
      <point x="383" y="439"/>
      <point x="280" y="500"/>
      <point x="120" y="500" type="curve" smooth="yes"/>
      <point x="34" y="500" type="line"/>
      <point x="62" y="380" type="line"/>
      <point x="138" y="380" type="line" smooth="yes"/>
      <point x="233" y="380"/>
      <point x="270" y="349"/>
      <point x="299" y="226" type="curve" smooth="yes"/>
      <point x="344" y="20" type="line"/>
      <point x="435" y="120" type="line"/>
      <point x="70" y="120" type="line"/>
    </contour>
  </outline>
</glyph>
<glyph name="seen-ar" format="2">
  <advance width="1276"/>
  <unicode hex="0633"/>
  <anchor x="940" y="-100" name="bottom"/>
  <anchor x="784" y="573" name="top"/>
  <outline>
    <contour>
      <point x="450" y="-248" type="curve" smooth="yes"/>
      <point x="628" y="-248"/>
      <point x="728" y="-144"/>
      <point x="695" y="1" type="curve" smooth="yes"/>
      <point x="592" y="450" type="line"/>
      <point x="458" y="450" type="line"/>
      <point x="564" y="-11" type="line" smooth="yes"/>
      <point x="582" y="-87"/>
      <point x="541" y="-128"/>
      <point x="443" y="-128" type="curve" smooth="yes"/>
      <point x="197" y="-128"/>
      <point x="220" y="61"/>
      <point x="195" y="336" type="curve"/>
      <point x="261" y="277" type="line"/>
      <point x="7" y="290" type="line"/>
      <point x="64" y="338" type="line"/>
      <point x="90" y="2"/>
      <point x="93" y="-248"/>
    </contour>
    <contour>
      <point x="694" y="0" type="line"/>
      <point x="772" y="0" type="line" smooth="yes"/>
      <point x="885" y="0"/>
      <point x="939" y="49"/>
      <point x="939" y="151" type="curve" smooth="yes"/>
      <point x="939" y="181"/>
      <point x="934" y="216"/>
      <point x="925" y="256" type="curve" smooth="yes"/>
      <point x="880" y="450" type="line"/>
      <point x="746" y="450" type="line"/>
      <point x="793" y="244" type="line" smooth="yes"/>
      <point x="803" y="202"/>
      <point x="808" y="174"/>
      <point x="808" y="156" type="curve" smooth="yes"/>
      <point x="808" y="124"/>
      <point x="792" y="120"/>
      <point x="754" y="120" type="curve" smooth="yes"/>
      <point x="667" y="120" type="line"/>
    </contour>
    <contour>
      <point x="1006" y="0" type="curve" smooth="yes"/>
      <point x="1274" y="0" type="line"/>
      <point x="1208" y="283" type="line" smooth="yes"/>
      <point x="1199" y="323"/>
      <point x="1158" y="434"/>
      <point x="1130" y="506" type="curve"/>
      <point x="1004" y="474" type="line"/>
      <point x="1039" y="386"/>
      <point x="1071" y="297"/>
      <point x="1077" y="271" type="curve" smooth="yes"/>
      <point x="1117" y="91" type="line"/>
      <point x="1134" y="120" type="line"/>
      <point x="988" y="120" type="line" smooth="yes"/>
      <point x="974" y="120"/>
      <point x="959" y="129"/>
      <point x="929" y="151" type="curve"/>
      <point x="857" y="53" type="line"/>
      <point x="905" y="16"/>
      <point x="956" y="0"/>
    </contour>
  </outline>
</glyph>
<glyph name="tah-ar" format="2">
  <advance width="800"/>
  <unicode hex="0637"/>
  <anchor x="505" y="-100" name="bottom"/>
  <anchor x="349" y="573" name="top"/>
  <outline>
    <contour>
      <point x="78" y="0" type="line"/>
      <point x="788" y="0" type="line"/>
      <point x="731" y="247" type="line" smooth="yes"/>
      <point x="705" y="359"/>
      <point x="635" y="500"/>
      <point x="449" y="500" type="curve" smooth="yes"/>
      <point x="280" y="500"/>
      <point x="223" y="384"/>
      <point x="164" y="280" type="curve"/>
      <point x="209" y="153" type="line"/>
      <point x="235" y="199"/>
      <point x="313" y="380"/>
      <point x="457" y="380" type="curve" smooth="yes"/>
      <point x="524" y="380"/>
      <point x="576" y="341"/>
      <point x="600" y="235" type="curve" smooth="yes"/>
      <point x="652" y="0" type="line"/>
      <point x="758" y="120" type="line"/>
      <point x="50" y="120" type="line"/>
    </contour>
    <contour>
      <point x="115" y="120" type="line"/>
      <point x="249" y="120" type="line"/>
      <point x="115" y="700" type="line"/>
      <point x="-19" y="700" type="line"/>
    </contour>
  </outline>
</glyph>
<glyph name="ain-ar" format="2">
  <advance width="546"/>
  <unicode hex="0639"/>
  <anchor x="420" y="-400" name="bottom"/>
  <anchor x="210" y="573" name="top"/>
  <outline>
    <contour>
      <point x="435" y="-332" type="curve" smooth="yes"/>
      <point x="479" y="-332"/>
      <point x="522" y="-326"/>
      <point x="609" y="-305" type="curve"/>
      <point x="548" y="-146" type="line"/>
      <point x="639" y="-188" type="line"/>
      <point x="536" y="-207"/>
      <point x="465" y="-212"/>
      <point x="430" y="-212" type="curve" smooth="yes"/>
      <point x="275" y="-212"/>
      <point x="249" y="-111"/>
      <point x="249" y="-68" type="curve" smooth="yes"/>
      <point x="249" y="-22"/>
      <point x="279" y="0"/>
      <point x="365" y="0" type="curve" smooth="yes"/>
      <point x="519" y="0" type="line"/>
      <point x="491" y="120" type="line"/>
      <point x="347" y="120" type="line" smooth="yes"/>
      <point x="204" y="120"/>
      <point x="118" y="56"/>
      <point x="118" y="-63" type="curve" smooth="yes"/>
      <point x="118" y="-198"/>
      <point x="227" y="-332"/>
    </contour>
    <contour>
      <point x="226" y="-1" type="curve"/>
      <point x="296" y="99" type="line"/>
      <point x="230" y="147"/>
      <point x="190" y="226"/>
      <point x="190" y="287" type="curve" smooth="yes"/>
      <point x="190" y="345"/>
      <point x="225" y="380"/>
      <point x="286" y="380" type="curve" smooth="yes"/>
      <point x="313" y="380"/>
      <point x="340" y="373"/>
      <point x="372" y="362" type="curve"/>
      <point x="399" y="479" type="line"/>
      <point x="356" y="494"/>
      <point x="308" y="500"/>
      <point x="274" y="500" type="curve" smooth="yes"/>
      <point x="144" y="500"/>
      <point x="59" y="414"/>
      <point x="59" y="291" type="curve" smooth="yes"/>
      <point x="59" y="196"/>
      <point x="109" y="82"/>
    </contour>
  </outline>
</glyph>
<glyph name="lam-ar" format="2">
  <advance width="708"/>
  <unicode hex="0644"/>
  <anchor x="484" y="-330" name="bottom"/>
  <anchor x="451" y="770" name="top"/>
  <outline>
    <contour>
      <point x="450" y="-248" type="curve" smooth="yes"/>
      <point x="605" y="-248"/>
      <point x="702" y="-169"/>
      <point x="702" y="-53" type="curve" smooth="yes"/>
      <point x="702" y="-36"/>
      <point x="699" y="-18"/>
      <point x="695" y="1" type="curve" smooth="yes"/>
      <point x="534" y="700" type="line"/>
      <point x="400" y="700" type="line"/>
      <point x="564" y="-11" type="line" smooth="yes"/>
      <point x="567" y="-23"/>
      <point x="568" y="-33"/>
      <point x="568" y="-43" type="curve" smooth="yes"/>
      <point x="568" y="-99"/>
      <point x="526" y="-128"/>
      <point x="443" y="-128" type="curve" smooth="yes"/>
      <point x="332" y="-128"/>
      <point x="247" y="-68"/>
      <point x="229" y="13" type="curve" smooth="yes"/>
      <point x="222" y="43"/>
      <point x="210" y="141"/>
      <point x="200" y="280" type="curve"/>
      <point x="68" y="287" type="line"/>
      <point x="76" y="180"/>
      <point x="86" y="49"/>
      <point x="100" y="-11" type="curve" smooth="yes"/>
      <point x="132" y="-149"/>
      <point x="280" y="-248"/>
    </contour>
  </outline>
</glyph>
<glyph name="meem-ar" format="2">
  <advance width="677"/>
  <unicode hex="0645"/>
  <anchor x="471" y="-388" name="bottom"/>
  <anchor x="249" y="573" name="top"/>
  <outline>
    <contour>
      <point x="204" y="-335" type="curve"/>
      <point x="325" y="-303" type="line"/>
      <point x="278" y="-190"/>
      <point x="254" y="-150"/>
      <point x="254" y="-75" type="curve" smooth="yes"/>
      <point x="254" y="-6"/>
      <point x="302" y="0"/>
      <point x="332" y="0" type="curve" smooth="yes"/>
      <point x="362" y="0"/>
      <point x="542" y="0"/>
      <point x="660" y="0" type="curve"/>
      <point x="607" y="251" type="line" smooth="yes"/>
      <point x="564" y="438"/>
      <point x="463" y="500"/>
      <point x="289" y="500" type="curve" smooth="yes"/>
      <point x="198" y="500"/>
      <point x="128" y="483"/>
      <point x="102" y="465" type="curve"/>
      <point x="100" y="452"/>
      <point x="99" y="435"/>
      <point x="99" y="414" type="curve" smooth="yes"/>
      <point x="99" y="296"/>
      <point x="138" y="127"/>
      <point x="190" y="26" type="curve"/>
      <point x="310" y="73" type="line"/>
      <point x="294" y="104"/>
      <point x="265" y="183"/>
      <point x="250" y="250" type="curve" smooth="yes"/>
      <point x="237" y="308"/>
      <point x="225" y="394"/>
      <point x="227" y="448" type="curve"/>
      <point x="163" y="363" type="line"/>
      <point x="190" y="374"/>
      <point x="244" y="380"/>
      <point x="296" y="380" type="curve" smooth="yes"/>
      <point x="414" y="380"/>
      <point x="450" y="351"/>
      <point x="476" y="239" type="curve" smooth="yes"/>
      <point x="529" y="0" type="line"/>
      <point x="640" y="120" type="line"/>
      <point x="524" y="120"/>
      <point x="342" y="120"/>
      <point x="325" y="120" type="curve" smooth="yes"/>
      <point x="197" y="120"/>
      <point x="122" y="48"/>
      <point x="122" y="-70" type="curve" smooth="yes"/>
      <point x="122" y="-167"/>
      <point x="155" y="-209"/>
    </contour>
  </outline>
</glyph>
<glyph name="heh-ar" format="2">
  <advance width="622"/>
  <unicode hex="0647"/>
  <anchor x="392" y="-100" name="bottom"/>
  <anchor x="236" y="573" name="top"/>
  <outline>
    <contour>
      <point x="98" y="0" type="line"/>
      <point x="640" y="0" type="line"/>
      <point x="583" y="246" type="line" smooth="yes"/>
      <point x="538" y="442"/>
      <point x="433" y="500"/>
      <point x="266" y="500" type="curve" smooth="yes"/>
      <point x="113" y="500"/>
      <point x="32" y="452"/>
      <point x="32" y="328" type="curve" smooth="yes"/>
      <point x="32" y="301"/>
      <point x="36" y="269"/>
      <point x="44" y="234" type="curve" smooth="yes"/>
    </contour>
    <contour>
      <point x="216" y="60" type="line"/>
      <point x="175" y="246" type="line" smooth="yes"/>
      <point x="168" y="278"/>
      <point x="164" y="303"/>
      <point x="164" y="322" type="curve" smooth="yes"/>
      <point x="164" y="370"/>
      <point x="190" y="380"/>
      <point x="265" y="380" type="curve" smooth="yes"/>
      <point x="389" y="380"/>
      <point x="426" y="352"/>
      <point x="452" y="234" type="curve" smooth="yes"/>
      <point x="490" y="60" type="line"/>
      <point x="550" y="120" type="line"/>
      <point x="128" y="120" type="line"/>
    </contour>
  </outline>
</glyph>
<glyph name="alefMaksura-ar" format="2">
  <advance width="921"/>
  <unicode hex="0649"/>
  <anchor x="577" y="-300" name="bottom"/>
  <anchor x="128" y="244" name="top"/>
  <outline>
    <contour>
      <point x="723" y="-248" type="line" smooth="yes"/>
      <point x="853" y="-248"/>
      <point x="927" y="-176"/>
      <point x="927" y="-68" type="curve" smooth="yes"/>
      <point x="927" y="-47"/>
      <point x="924" y="-26"/>
      <point x="919" y="-3" type="curve" smooth="yes"/>
      <point x="890" y="123"/>
      <point x="799" y="168"/>
      <point x="667" y="207" type="curve" smooth="yes"/>
      <point x="559" y="235"/>
      <point x="495" y="243"/>
      <point x="478" y="314" type="curve" smooth="yes"/>
      <point x="477" y="320"/>
      <point x="476" y="326"/>
      <point x="476" y="332" type="curve" smooth="yes"/>
      <point x="476" y="365"/>
      <point x="504" y="380"/>
      <point x="571" y="380" type="curve" smooth="yes"/>
      <point x="617" y="380"/>
      <point x="679" y="373"/>
      <point x="784" y="362" type="curve"/>
      <point x="771" y="477" type="line"/>
      <point x="663" y="494"/>
      <point x="611" y="500"/>
      <point x="567" y="500" type="curve" smooth="yes"/>
      <point x="429" y="500"/>
      <point x="345" y="445"/>
      <point x="345" y="337" type="curve" smooth="yes"/>
      <point x="345" y="319"/>
      <point x="347" y="300"/>
      <point x="352" y="279" type="curve" smooth="yes"/>
      <point x="379" y="163"/>
      <point x="456" y="142"/>
      <point x="637" y="85" type="curve"/>
      <point x="743" y="57"/>
      <point x="775" y="42"/>
      <point x="791" y="-26" type="curve" smooth="yes"/>
      <point x="794" y="-40"/>
      <point x="796" y="-52"/>
      <point x="796" y="-62" type="curve" smooth="yes"/>
      <point x="796" y="-108"/>
      <point x="767" y="-128"/>
      <point x="705" y="-128" type="curve" smooth="yes"/>
      <point x="422" y="-128" type="line" smooth="yes"/>
      <point x="327" y="-128"/>
      <point x="249" y="-74"/>
      <point x="231" y="2" type="curve" smooth="yes"/>
      <point x="227" y="22"/>
      <point x="217" y="93"/>
      <point x="211" y="176" type="curve"/>
      <point x="79" y="183" type="line"/>
      <point x="86" y="95"/>
      <point x="94" y="18"/>
      <point x="103" y="-24" type="curve" smooth="yes"/>
      <point x="133" y="-154"/>
      <point x="275" y="-248"/>
      <point x="440" y="-248" type="curve" smooth="yes"/>
    </contour>
  </outline>
</glyph>
<glyph name="dammatan-ar" format="2">
  <unicode hex="064C"/>
  <anchor x="151" y="534" name="_top"/>
  <anchor x="96" y="772" name="top"/>
  <outline>
    <contour>
      <point x="-1" y="534" type="line"/>
      <point x="76" y="553" type="line"/>
      <point x="21" y="661" type="line"/>
      <point x="-55" y="642" type="line"/>
    </contour>
    <contour>
      <point x="1" y="534" type="line"/>
      <point x="113" y="534" type="line"/>
      <point x="95" y="607" type="line"/>
      <point x="-16" y="607" type="line"/>
    </contour>
    <component base="damma-ar" xOffset="67"/>
  </outline>
</glyph>
<glyph name="fatha-ar" format="2">
  <unicode hex="064E"/>
  <anchor x="87" y="528" name="_top"/>
  <anchor x="59" y="648" name="top"/>
  <outline>
    <contour>
      <point x="-44" y="528" type="line"/>
      <point x="218" y="528" type="line"/>
      <point x="199" y="608" type="line"/>
      <point x="-63" y="608" type="line"/>
    </contour>
  </outline>
</glyph>
<glyph name="shadda-ar" format="2">
  <unicode hex="0651"/>
  <anchor x="156" y="413" name="_top"/>
  <anchor x="99" y="651" name="top"/>
  <outline>
    <contour>
      <point x="210" y="413" type="curve" smooth="yes"/>
      <point x="272" y="413"/>
      <point x="304" y="445"/>
      <point x="304" y="502" type="curve" smooth="yes"/>
      <point x="304" y="533"/>
      <point x="294" y="572"/>
      <point x="274" y="617" type="curve"/>
      <point x="191" y="589" type="line"/>
      <point x="212" y="541"/>
      <point x="220" y="515"/>
      <point x="220" y="503" type="curve" smooth="yes"/>
      <point x="220" y="496"/>
      <point x="217" y="493"/>
      <point x="212" y="493" type="curve" smooth="yes"/>
      <point x="185" y="493"/>
      <point x="176" y="516"/>
      <point x="163" y="575" type="curve"/>
      <point x="74" y="575" type="line"/>
      <point x="102" y="456"/>
      <point x="128" y="413"/>
    </contour>
    <contour>
      <point x="81" y="413" type="curve" smooth="yes"/>
      <point x="143" y="413"/>
      <point x="175" y="446"/>
      <point x="175" y="501" type="curve" smooth="yes"/>
      <point x="175" y="518"/>
      <point x="172" y="537"/>
      <point x="163" y="575" type="curve"/>
      <point x="74" y="575" type="line"/>
      <point x="87" y="518"/>
      <point x="90" y="509"/>
      <point x="90" y="501" type="curve" smooth="yes"/>
      <point x="90" y="494"/>
      <point x="87" y="493"/>
      <point x="83" y="493" type="curve" smooth="yes"/>
      <point x="59" y="493"/>
      <point x="37" y="523"/>
      <point x="35" y="601" type="curve"/>
      <point x="-52" y="605" type="line"/>
      <point x="-50" y="479"/>
      <point x="-5" y="413"/>
    </contour>
  </outline>
</glyph>
<glyph name="sukun-ar" format="2">
  <unicode hex="0652"/>
  <anchor x="97" y="428" name="_top"/>
  <anchor x="29" y="722" name="top"/>
  <outline>
    <contour>
      <point x="87" y="428" type="curve" smooth="yes"/>
      <point x="147" y="428"/>
      <point x="188" y="470"/>
      <point x="188" y="526" type="curve" smooth="yes"/>
      <point x="188" y="588"/>
      <point x="134" y="662"/>
      <point x="53" y="662" type="curve" smooth="yes"/>
      <point x="-7" y="662"/>
      <point x="-48" y="618"/>
      <point x="-48" y="561" type="curve" smooth="yes"/>
      <point x="-48" y="488"/>
      <point x="18" y="428"/>
    </contour>
    <contour>
      <point x="89" y="508" type="curve" smooth="yes"/>
      <point x="62" y="508"/>
      <point x="37" y="545"/>
      <point x="37" y="567" type="curve" smooth="yes"/>
      <point x="37" y="576"/>
      <point x="41" y="582"/>
      <point x="51" y="582" type="curve" smooth="yes"/>
      <point x="75" y="582"/>
      <point x="101" y="548"/>
      <point x="101" y="522" type="curve" smooth="yes"/>
      <point x="101" y="513"/>
      <point x="97" y="508"/>
    </contour>
  </outline>
</glyph>
<glyph name="madda-ar" format="2">
  <unicode hex="0653"/>
  <anchor x="112" y="537" name="_top"/>
  <anchor x="60" y="759" name="top"/>
  <outline>
    <contour>
      <point x="-17" y="537" type="line"/>
      <point x="31" y="596" type="line"/>
      <point x="-5" y="591" type="line"/>
      <point x="32" y="558"/>
      <point x="77" y="543"/>
      <point x="122" y="543" type="curve" smooth="yes"/>
      <point x="204" y="543"/>
      <point x="234" y="597"/>
      <point x="254" y="642" type="curve"/>
      <point x="282" y="599" type="line"/>
      <point x="168" y="675" type="line"/>
      <point x="194" y="703" type="line"/>
      <point x="210" y="666"/>
      <point x="180" y="646"/>
      <point x="141" y="646" type="curve" smooth="yes"/>
      <point x="102" y="646"/>
      <point x="62" y="667"/>
      <point x="47" y="688" type="curve"/>
      <point x="70" y="670" type="line"/>
      <point x="-32" y="670" type="line"/>
      <point x="-74" y="582" type="line"/>
    </contour>
  </outline>
</glyph>
<glyph name="hamzaabove-ar" format="2">
  <unicode hex="0654"/>
  <anchor x="102" y="463" name="_top"/>
  <anchor x="30" y="774" name="top"/>
  <outline>
    <contour>
      <point x="19" y="469" type="curve"/>
      <point x="86" y="523" type="line"/>
      <point x="66" y="544"/>
      <point x="51" y="564"/>
      <point x="51" y="590" type="curve" smooth="yes"/>
      <point x="51" y="610"/>
      <point x="64" y="623"/>
      <point x="87" y="623" type="curve" smooth="yes"/>
      <point x="105" y="623"/>
      <point x="117" y="617"/>
      <point x="129" y="611" type="curve"/>
      <point x="166" y="685" type="line"/>
      <point x="145" y="697"/>
      <point x="111" y="703"/>
      <point x="89" y="703" type="curve" smooth="yes"/>
      <point x="15" y="703"/>
      <point x="-36" y="654"/>
      <point x="-36" y="587" type="curve" smooth="yes"/>
      <point x="-36" y="551"/>
      <point x="-22" y="511"/>
    </contour>
    <contour>
      <point x="-29" y="463" type="line"/>
      <point x="233" y="463" type="line"/>
      <point x="214" y="543" type="line"/>
      <point x="-48" y="543" type="line"/>
    </contour>
  </outline>
</glyph>
<glyph name="noonghunnaabove-ar" format="2">
  <unicode hex="0658"/>
  <anchor x="112" y="362" name="_top"/>
  <anchor x="54" y="613" name="top"/>
  <outline>
    <contour>
      <point x="55" y="497" type="curve"/>
      <point x="-34" y="509" type="line"/>
      <point x="-23" y="432"/>
      <point x="-8" y="362"/>
      <point x="95" y="362" type="curve" smooth="yes"/>
      <point x="178" y="362"/>
      <point x="208" y="408"/>
      <point x="208" y="445" type="curve" smooth="yes"/>
      <point x="208" y="462"/>
      <point x="202" y="483"/>
      <point x="193" y="509" type="curve"/>
      <point x="104" y="497" type="line"/>
      <point x="119" y="454"/>
      <point x="122" y="442"/>
      <point x="99" y="442" type="curve" smooth="yes"/>
      <point x="63" y="442"/>
      <point x="58" y="470"/>
    </contour>
  </outline>
</glyph>
<glyph name="one-ar" format="2">
  <advance width="354"/>
  <unicode hex="0661"/>
  <outline>
    <contour>
      <point x="168" y="0" type="line"/>
      <point x="302" y="0" type="line"/>
      <point x="149" y="660" type="line"/>
      <point x="15" y="660" type="line"/>
    </contour>
  </outline>
</glyph>
<glyph name="two-ar" format="2">
  <advance width="561"/>
  <unicode hex="0662"/>
  <outline>
    <contour>
      <point x="168" y="0" type="line"/>
      <point x="302" y="0" type="line"/>
      <point x="151" y="660" type="line"/>
      <point x="45" y="540" type="line"/>
      <point x="464" y="540" type="line"/>
      <point x="436" y="660" type="line"/>
      <point x="15" y="660" type="line"/>
    </contour>
  </outline>
</glyph>
<glyph name="three-ar" format="2">
  <advance width="698"/>
  <unicode hex="0663"/>
  <outline>
    <contour>
      <point x="157" y="2" type="line"/>
      <point x="291" y="2" type="line"/>
      <point x="139" y="660" type="line"/>
      <point x="5" y="660" type="line"/>
    </contour>
    <contour>
      <point x="251" y="306" type="curve" smooth="yes"/>
      <point x="344" y="306"/>
      <point x="397" y="358"/>
      <point x="397" y="439" type="curve" smooth="yes"/>
      <point x="397" y="458"/>
      <point x="394" y="475"/>
      <point x="390" y="494" type="curve" smooth="yes"/>
      <point x="351" y="660" type="line"/>
      <point x="217" y="660" type="line"/>
      <point x="258" y="482" type="line" smooth="yes"/>
      <point x="263" y="462"/>
      <point x="265" y="449"/>
      <point x="265" y="441" type="curve" smooth="yes"/>
      <point x="265" y="428"/>
      <point x="259" y="426"/>
      <point x="245" y="426" type="curve" smooth="yes"/>
      <point x="215" y="426"/>
      <point x="197" y="436"/>
      <point x="178" y="453" type="curve"/>
      <point x="95" y="362" type="line"/>
      <point x="138" y="324"/>
      <point x="196" y="306"/>
    </contour>
    <contour>
      <point x="463" y="306" type="curve" smooth="yes"/>
      <point x="556" y="306"/>
      <point x="609" y="358"/>
      <point x="609" y="439" type="curve" smooth="yes"/>
      <point x="609" y="458"/>
      <point x="606" y="475"/>
      <point x="602" y="494" type="curve" smooth="yes"/>
      <point x="563" y="660" type="line"/>
      <point x="429" y="660" type="line"/>
      <point x="470" y="482" type="line" smooth="yes"/>
      <point x="475" y="462"/>
      <point x="477" y="449"/>
      <point x="477" y="441" type="curve" smooth="yes"/>
      <point x="477" y="428"/>
      <point x="471" y="426"/>
      <point x="457" y="426" type="curve" smooth="yes"/>
      <point x="427" y="426"/>
      <point x="409" y="436"/>
      <point x="390" y="453" type="curve"/>
      <point x="307" y="362" type="line"/>
      <point x="350" y="324"/>
      <point x="408" y="306"/>
    </contour>
  </outline>
</glyph>
<glyph name="four-ar" format="2">
  <advance width="490"/>
  <unicode hex="0664"/>
  <outline>
    <contour>
      <point x="332" y="-27" type="curve" smooth="yes"/>
      <point x="388" y="-27"/>
      <point x="435" y="-14"/>
      <point x="483" y="-2" type="curve"/>
      <point x="437" y="113" type="line"/>
      <point x="388" y="101"/>
      <point x="354" y="93"/>
      <point x="323" y="93" type="curve" smooth="yes"/>
      <point x="235" y="93"/>
      <point x="195" y="156"/>
      <point x="195" y="212" type="curve" smooth="yes"/>
      <point x="195" y="247"/>
      <point x="211" y="263"/>
      <point x="271" y="263" type="curve"/>
      <point x="253" y="383" type="line"/>
      <point x="139" y="383"/>
      <point x="62" y="324"/>
      <point x="62" y="218" type="curve" smooth="yes"/>
      <point x="62" y="98"/>
      <point x="160" y="-27"/>
    </contour>
    <contour>
      <point x="276" y="263" type="line"/>
      <point x="343" y="263" type="line"/>
      <point x="315" y="383" type="line"/>
      <point x="248" y="383" type="line"/>
    </contour>
    <contour>
      <point x="271" y="263" type="curve"/>
      <point x="253" y="383" type="line"/>
      <point x="165" y="383"/>
      <point x="128" y="449"/>
      <point x="128" y="502" type="curve" smooth="yes"/>
      <point x="128" y="536"/>
      <point x="143" y="553"/>
      <point x="196" y="553" type="curve" smooth="yes"/>
      <point x="237" y="553"/>
      <point x="275" y="543"/>
      <point x="329" y="531" type="curve"/>
      <point x="341" y="650" type="line"/>
      <point x="289" y="662"/>
      <point x="238" y="673"/>
      <point x="189" y="673" type="curve" smooth="yes"/>
      <point x="73" y="673"/>
      <point x="-4" y="613"/>
      <point x="-4" y="507" type="curve" smooth="yes"/>
      <point x="-4" y="388"/>
      <point x="92" y="263"/>
    </contour>
  </outline>
</glyph>
<glyph name="six-ar" format="2">
  <advance width="518"/>
  <unicode hex="0666"/>
  <outline>
    <contour>
      <point x="332" y="0" type="line"/>
      <point x="466" y="0" type="line"/>
      <point x="313" y="660" type="line"/>
      <point x="-65" y="660" type="line"/>
      <point x="-37" y="540" type="line"/>
      <point x="343" y="540" type="line"/>
      <point x="181" y="660" type="line"/>
    </contour>
  </outline>
</glyph>
<glyph name="seven-ar" format="2">
  <advance width="681"/>
  <unicode hex="0667"/>
  <outline>
    <contour>
      <point x="302" y="0" type="line"/>
      <point x="484" y="0" type="line"/>
      <point x="555" y="660" type="line"/>
      <point x="384" y="660" type="line"/>
      <point x="425" y="756" type="line"/>
      <point x="366" y="53" type="line"/>
      <point x="416" y="120" type="line"/>
      <point x="275" y="120" type="line"/>
      <point x="399" y="52" type="line"/>
      <point x="22" y="756" type="line"/>
      <point x="92" y="660" type="line"/>
      <point x="-66" y="660" type="line"/>
    </contour>
  </outline>
</glyph>
<glyph name="nine-ar" format="2">
  <advance width="536"/>
  <unicode hex="0669"/>
  <outline>
    <contour>
      <point x="370" y="0" type="line"/>
      <point x="504" y="0" type="line"/>
      <point x="351" y="660" type="line"/>
      <point x="185" y="660" type="line" smooth="yes"/>
      <point x="47" y="660"/>
      <point x="-31" y="597"/>
      <point x="-31" y="494" type="curve" smooth="yes"/>
      <point x="-31" y="397"/>
      <point x="38" y="247"/>
      <point x="234" y="247" type="curve" smooth="yes"/>
      <point x="279" y="247"/>
      <point x="325" y="255"/>
      <point x="361" y="265" type="curve"/>
      <point x="312" y="378" type="line"/>
      <point x="281" y="370"/>
      <point x="251" y="367"/>
      <point x="230" y="367" type="curve" smooth="yes"/>
      <point x="137" y="367"/>
      <point x="101" y="429"/>
      <point x="101" y="484" type="curve" smooth="yes"/>
      <point x="101" y="522"/>
      <point x="118" y="540"/>
      <point x="202" y="540" type="curve" smooth="yes"/>
      <point x="381" y="540" type="line"/>
      <point x="219" y="660" type="line"/>
    </contour>
  </outline>
</glyph>
<glyph name="percent-ar" format="2">
  <advance width="560"/>
  <unicode hex="066A"/>
  <outline>
    <contour>
      <point x="261" y="-32" type="line"/>
      <point x="334" y="673" type="line"/>
      <point x="258" y="699" type="line"/>
      <point x="186" y="-8" type="line"/>
    </contour>
    <contour>
      <point x="7" y="467" type="line"/>
      <point x="141" y="467" type="line"/>
      <point x="113" y="587" type="line"/>
      <point x="-21" y="587" type="line"/>
    </contour>
    <contour>
      <point x="410" y="74" type="line"/>
      <point x="544" y="74" type="line"/>
      <point x="516" y="194" type="line"/>
      <point x="382" y="194" type="line"/>
    </contour>
  </outline>
</glyph>
<glyph name="decimalseparator-ar" format="2">
  <advance width="263"/>
  <unicode hex="066B"/>
  <outline>
    <contour>
      <point x="160" y="-130" type="line"/>
      <point x="271" y="-130" type="line"/>
      <point x="228" y="153" type="line"/>
      <point x="81" y="153" type="line"/>
    </contour>
  </outline>
</glyph>
<glyph name="behDotless-ar" format="2">
  <advance width="828"/>
  <unicode hex="066E"/>
  <anchor x="471" y="-60" name="bottom"/>
  <anchor x="339" y="510" name="top"/>
  <outline>
    <contour>
      <point x="390" y="0" type="curve" smooth="yes"/>
      <point x="816" y="0" type="line"/>
      <point x="700" y="500" type="line"/>
      <point x="566" y="500" type="line"/>
      <point x="664" y="70" type="line"/>
      <point x="717" y="120" type="line"/>
      <point x="372" y="120" type="line" smooth="yes"/>
      <point x="184" y="120"/>
      <point x="171" y="194"/>
      <point x="169" y="364" type="curve"/>
      <point x="36" y="390" type="line"/>
      <point x="40" y="147"/>
      <point x="98" y="0"/>
    </contour>
  </outline>
</glyph>
<glyph name="qafDotless-ar" format="2">
  <advance width="857"/>
  <unicode hex="066F"/>
  <anchor x="711" y="-360" name="bottom"/>
  <anchor x="429" y="573" name="top"/>
  <outline>
    <contour>
      <point x="417" y="-266" type="curve" smooth="yes"/>
      <point x="649" y="-266" type="line" smooth="yes"/>
      <point x="780" y="-266"/>
      <point x="889" y="-191"/>
      <point x="857" y="-52" type="curve" smooth="yes"/>
      <point x="729" y="500" type="line"/>
      <point x="492" y="500" type="line" smooth="yes"/>
      <point x="361" y="500"/>
      <point x="309" y="453"/>
      <point x="309" y="353" type="curve" smooth="yes"/>
      <point x="309" y="196"/>
      <point x="359" y="0"/>
      <point x="598" y="0" type="curve" smooth="yes"/>
      <point x="712" y="0" type="line"/>
      <point x="685" y="120" type="line"/>
      <point x="580" y="120" type="line" smooth="yes"/>
      <point x="463" y="120"/>
      <point x="438" y="250"/>
      <point x="438" y="347" type="curve" smooth="yes"/>
      <point x="438" y="380"/>
      <point x="458" y="380"/>
      <point x="510" y="380" type="curve" smooth="yes"/>
      <point x="699" y="380" type="line"/>
      <point x="611" y="440" type="line"/>
      <point x="726" y="-64" type="line" smooth="yes"/>
      <point x="739" y="-121"/>
      <point x="711" y="-146"/>
      <point x="632" y="-146" type="curve" smooth="yes"/>
      <point x="400" y="-146" type="line" smooth="yes"/>
      <point x="207" y="-146"/>
      <point x="226" y="40"/>
      <point x="209" y="306" type="curve"/>
      <point x="274" y="237" type="line"/>
      <point x="20" y="253" type="line"/>
      <point x="79" y="285" type="line"/>
      <point x="95" y="-27"/>
      <point x="93" y="-266"/>
    </contour>
  </outline>
</glyph>
<glyph name="fehDotless-ar" format="2">
  <advance width="1051"/>
  <unicode hex="06A1"/>
  <anchor x="494" y="-100" name="bottom"/>
  <anchor x="688" y="573" name="top"/>
  <outline>
    <contour>
      <point x="404" y="0" type="curve" smooth="yes"/>
      <point x="1029" y="0" type="line"/>
      <point x="913" y="500" type="line"/>
      <point x="676" y="500" type="line" smooth="yes"/>
      <point x="520" y="500"/>
      <point x="493" y="436"/>
      <point x="493" y="337" type="curve" smooth="yes"/>
      <point x="493" y="203"/>
      <point x="543" y="0"/>
      <point x="782" y="0" type="curve"/>
      <point x="764" y="120" type="line"/>
      <point x="647" y="120"/>
      <point x="622" y="255"/>
      <point x="622" y="336" type="curve" smooth="yes"/>
      <point x="622" y="379"/>
      <point x="629" y="380"/>
      <point x="694" y="380" type="curve" smooth="yes"/>
      <point x="883" y="380" type="line"/>
      <point x="795" y="440" type="line"/>
      <point x="879" y="60" type="line"/>
      <point x="939" y="120" type="line"/>
      <point x="386" y="120" type="line" smooth="yes"/>
      <point x="184" y="120"/>
      <point x="199" y="172"/>
      <point x="181" y="368" type="curve"/>
      <point x="50" y="392" type="line"/>
      <point x="50" y="107"/>
      <point x="128" y="0"/>
    </contour>
  </outline>
</glyph>
<glyph name="keheh-ar" format="2">
  <advance width="828"/>
  <unicode hex="06A9"/>
  <anchor x="539" y="-100" name="bottom"/>
  <anchor x="80" y="730" name="top"/>
  <outline>
    <contour>
      <point x="169" y="367" type="curve"/>
      <point x="35" y="391" type="line"/>
      <point x="37" y="351"/>
      <point x="35" y="271"/>
      <point x="51" y="201" type="curve" smooth="yes"/>
      <point x="84" y="61"/>
      <point x="191" y="0"/>
      <point x="390" y="0" type="curve" smooth="yes"/>
      <point x="816" y="0" type="line"/>
      <point x="759" y="245" type="line" smooth="yes"/>
      <point x="735" y="349"/>
      <point x="668" y="485"/>
      <point x="489" y="485" type="curve" smooth="yes"/>
      <point x="303" y="485" type="line"/>
      <point x="338" y="603"/>
      <point x="328" y="579"/>
      <point x="374" y="687" type="curve"/>
      <point x="256" y="743" type="line"/>
      <point x="209" y="636"/>
      <point x="215" y="648"/>
      <point x="169" y="499" type="curve"/>
      <point x="290" y="365" type="line"/>
      <point x="506" y="365" type="line" smooth="yes"/>
      <point x="565" y="365"/>
      <point x="607" y="325"/>
      <point x="628" y="233" type="curve" smooth="yes"/>
      <point x="653" y="120" type="line"/>
      <point x="372" y="120" type="line" smooth="yes"/>
      <point x="237" y="120"/>
      <point x="197" y="149"/>
      <point x="180" y="224" type="curve" smooth="yes"/>
      <point x="170" y="268"/>
      <point x="170" y="326"/>
    </contour>
  </outline>
</glyph>
<glyph name="noonghunna-ar" format="2">
  <advance width="708"/>
  <unicode hex="06BA"/>
  <anchor x="473" y="-330" name="bottom"/>
  <anchor x="281" y="500" name="top"/>
  <outline>
    <contour>
      <point x="450" y="-248" type="curve" smooth="yes"/>
      <point x="628" y="-248"/>
      <point x="729" y="-144"/>
      <point x="695" y="1" type="curve" smooth="yes"/>
      <point x="580" y="500" type="line"/>
      <point x="446" y="500" type="line"/>
      <point x="564" y="-11" type="line" smooth="yes"/>
      <point x="582" y="-87"/>
      <point x="541" y="-128"/>
      <point x="443" y="-128" type="curve" smooth="yes"/>
      <point x="214" y="-128"/>
      <point x="218" y="36"/>
      <point x="200" y="280" type="curve"/>
      <point x="68" y="287" type="line"/>
      <point x="91" y="-23"/>
      <point x="111" y="-248"/>
    </contour>
  </outline>
</glyph>
<glyph name="hehDoachashmee-ar" format="2">
  <advance width="822"/>
  <unicode hex="06BE"/>
  <anchor x="489" y="-100" name="bottom"/>
  <anchor x="311" y="666" name="top"/>
  <outline>
    <contour>
      <point x="98" y="0" type="line"/>
      <point x="810" y="0" type="line"/>
      <point x="759" y="219" type="line" smooth="yes"/>
      <point x="696" y="492"/>
      <point x="512" y="569"/>
      <point x="344" y="569" type="curve" smooth="yes"/>
      <point x="244" y="569"/>
      <point x="142" y="543"/>
      <point x="74" y="525" type="curve"/>
      <point x="136" y="360" type="line"/>
      <point x="80" y="418" type="line"/>
      <point x="144" y="430"/>
      <point x="255" y="448"/>
      <point x="338" y="448" type="curve" smooth="yes"/>
      <point x="500" y="448"/>
      <point x="588" y="381"/>
      <point x="628" y="207" type="curve" smooth="yes"/>
      <point x="665" y="40" type="line"/>
      <point x="740" y="120" type="line"/>
      <point x="70" y="120" type="line"/>
    </contour>
    <contour>
      <point x="140" y="120" type="line"/>
      <point x="274" y="120" type="line"/>
      <point x="268" y="147" type="line" smooth="yes"/>
      <point x="266" y="156"/>
      <point x="265" y="164"/>
      <point x="265" y="172" type="curve" smooth="yes"/>
      <point x="265" y="207"/>
      <point x="285" y="229"/>
      <point x="313" y="229" type="curve" smooth="yes"/>
      <point x="357" y="229"/>
      <point x="405" y="185"/>
      <point x="416" y="136" type="curve" smooth="yes"/>
      <point x="420" y="120" type="line"/>
      <point x="554" y="120" type="line"/>
      <point x="548" y="148" type="line" smooth="yes"/>
      <point x="523" y="253"/>
      <point x="423" y="349"/>
      <point x="305" y="349" type="curve" smooth="yes"/>
      <point x="195" y="349"/>
      <point x="132" y="269"/>
      <point x="132" y="180" type="curve" smooth="yes"/>
      <point x="132" y="165"/>
      <point x="133" y="150"/>
      <point x="137" y="135" type="curve" smooth="yes"/>
    </contour>
  </outline>
</glyph>
<glyph name="four-persian" format="2">
  <advance width="724"/>
  <unicode hex="06F4"/>
  <outline>
    <contour>
      <point x="382" y="278" type="curve" smooth="yes"/>
      <point x="539" y="278"/>
      <point x="631" y="346"/>
      <point x="631" y="455" type="curve" smooth="yes"/>
      <point x="631" y="471"/>
      <point x="629" y="488"/>
      <point x="625" y="506" type="curve" smooth="yes"/>
      <point x="603" y="601" type="line"/>
      <point x="469" y="601" type="line"/>
      <point x="494" y="494" type="line" smooth="yes"/>
      <point x="496" y="484"/>
      <point x="498" y="474"/>
      <point x="498" y="465" type="curve" smooth="yes"/>
      <point x="498" y="419"/>
      <point x="462" y="398"/>
      <point x="375" y="398" type="curve" smooth="yes"/>
      <point x="260" y="398"/>
      <point x="200" y="440"/>
      <point x="185" y="506" type="curve" smooth="yes"/>
      <point x="149" y="660" type="line"/>
      <point x="15" y="660" type="line"/>
      <point x="54" y="494" type="line" smooth="yes"/>
      <point x="86" y="356"/>
      <point x="210" y="278"/>
    </contour>
    <contour>
      <point x="168" y="0" type="line"/>
      <point x="302" y="0" type="line"/>
      <point x="149" y="660" type="line"/>
      <point x="15" y="660" type="line"/>
    </contour>
    <contour>
      <point x="399" y="321" type="curve"/>
      <point x="392" y="398" type="line"/>
      <point x="328" y="398"/>
      <point x="307" y="454"/>
      <point x="307" y="480" type="curve" smooth="yes"/>
      <point x="307" y="500"/>
      <point x="320" y="508"/>
      <point x="350" y="508" type="curve" smooth="yes"/>
      <point x="377" y="508"/>
      <point x="402" y="501"/>
      <point x="437" y="494" type="curve"/>
      <point x="447" y="571" type="line"/>
      <point x="414" y="579"/>
      <point x="381" y="586"/>
      <point x="353" y="586" type="curve" smooth="yes"/>
      <point x="275" y="586"/>
      <point x="224" y="545"/>
      <point x="224" y="478" type="curve" smooth="yes"/>
      <point x="224" y="400"/>
      <point x="280" y="321"/>
    </contour>
  </outline>
</glyph>
<glyph name="five-persian" format="2">
  <advance width="554"/>
  <unicode hex="06F5"/>
  <outline>
    <contour>
      <point x="251" y="-1" type="curve" smooth="yes"/>
      <point x="310" y="-1"/>
      <point x="328" y="45"/>
      <point x="330" y="73" type="curve"/>
      <point x="341" y="67"/>
      <point x="372" y="-1"/>
      <point x="435" y="-1" type="curve" smooth="yes"/>
      <point x="497" y="-1"/>
      <point x="581" y="63"/>
      <point x="550" y="222" type="curve" smooth="yes"/>
      <point x="515" y="399"/>
      <point x="344" y="547"/>
      <point x="158" y="682" type="curve"/>
      <point x="88" y="581" type="line"/>
      <point x="249" y="462"/>
      <point x="407" y="337"/>
      <point x="435" y="194" type="curve" smooth="yes"/>
      <point x="445" y="141"/>
      <point x="429" y="117"/>
      <point x="413" y="117" type="curve" smooth="yes"/>
      <point x="376" y="117"/>
      <point x="344" y="199"/>
      <point x="318" y="200" type="curve"/>
      <point x="289" y="195"/>
      <point x="292" y="117"/>
      <point x="261" y="117" type="curve" smooth="yes"/>
      <point x="230" y="117"/>
      <point x="198" y="150"/>
      <point x="187" y="211" type="curve" smooth="yes"/>
      <point x="163" y="330"/>
      <point x="201" y="386"/>
      <point x="305" y="506" type="curve"/>
      <point x="245" y="560" type="line"/>
      <point x="114" y="449"/>
      <point x="48" y="331"/>
      <point x="74" y="198" type="curve" smooth="yes"/>
      <point x="100" y="61"/>
      <point x="191" y="-1"/>
    </contour>
  </outline>
</glyph>
<glyph name="six-persian" format="2">
  <advance width="500"/>
  <unicode hex="06F6"/>
  <outline>
    <contour>
      <point x="281" y="263" type="curve"/>
      <point x="263" y="383" type="line"/>
      <point x="175" y="383"/>
      <point x="138" y="447"/>
      <point x="138" y="506" type="curve" smooth="yes"/>
      <point x="138" y="539"/>
      <point x="159" y="553"/>
      <point x="207" y="553" type="curve" smooth="yes"/>
      <point x="247" y="553"/>
      <point x="285" y="543"/>
      <point x="339" y="531" type="curve"/>
      <point x="351" y="650" type="line"/>
      <point x="299" y="662"/>
      <point x="247" y="673"/>
      <point x="200" y="673" type="curve" smooth="yes"/>
      <point x="83" y="673"/>
      <point x="6" y="612"/>
      <point x="6" y="510" type="curve" smooth="yes"/>
      <point x="6" y="386"/>
      <point x="102" y="263"/>
    </contour>
    <contour>
      <point x="119" y="-6" type="curve"/>
      <point x="250" y="6" type="line"/>
      <point x="240" y="48"/>
      <point x="236" y="85"/>
      <point x="236" y="117" type="curve" smooth="yes"/>
      <point x="236" y="213"/>
      <point x="277" y="263"/>
      <point x="351" y="263" type="curve"/>
      <point x="333" y="383" type="line"/>
      <point x="191" y="383"/>
      <point x="103" y="286"/>
      <point x="103" y="123" type="curve" smooth="yes"/>
      <point x="103" y="83"/>
      <point x="108" y="40"/>
    </contour>
    <contour>
      <point x="286" y="263" type="line"/>
      <point x="356" y="263" type="line"/>
      <point x="328" y="383" type="line"/>
      <point x="258" y="383" type="line"/>
    </contour>
  </outline>
</glyph>
<glyph name="emdash" format="2">
  <advance width="1026"/>
  <unicode hex="2014"/>
  <outline>
    <contour>
      <point x="75" y="209" type="line"/>
      <point x="1075" y="209" type="line"/>
      <point x="1075" y="323" type="line"/>
      <point x="75" y="323" type="line" name="hr00"/>
    </contour>
  </outline>
</glyph>
<glyph name="quotesinglbase" format="2">
  <advance width="150"/>
  <unicode hex="201A"/>
  <outline>
    <contour>
      <point x="-43" y="-165" type="line"/>
      <point x="57" y="-165" type="line"/>
      <point x="194" y="90" type="line"/>
      <point x="62" y="90" type="line"/>
    </contour>
  </outline>
</glyph>
<glyph name="quotedblleft" format="2">
  <advance width="363"/>
  <unicode hex="201C"/>
  <outline>
    <contour>
      <point x="96" y="425" type="line"/>
      <point x="228" y="425" type="line"/>
      <point x="333" y="680" type="line" name="hr01"/>
      <point x="233" y="680" type="line"/>
    </contour>
    <contour>
      <point x="286" y="425" type="line"/>
      <point x="418" y="425" type="line"/>
      <point x="523" y="680" type="line" name="hr01"/>
      <point x="423" y="680" type="line"/>
    </contour>
  </outline>
</glyph>
<glyph name="quotedblright" format="2">
  <advance width="364"/>
  <unicode hex="201D"/>
  <outline>
    <contour>
      <point x="96" y="425" type="line"/>
      <point x="196" y="425" type="line"/>
      <point x="333" y="680" type="line"/>
      <point x="201" y="680" type="line"/>
    </contour>
    <contour>
      <point x="286" y="425" type="line"/>
      <point x="386" y="425" type="line"/>
      <point x="523" y="680" type="line"/>
      <point x="391" y="680" type="line"/>
    </contour>
  </outline>
</glyph>
<glyph name="quotedblbase" format="2">
  <advance width="347"/>
  <unicode hex="201E"/>
  <outline>
    <contour>
      <point x="-44" y="-170" type="line"/>
      <point x="56" y="-170" type="line"/>
      <point x="193" y="85" type="line"/>
      <point x="61" y="85" type="line"/>
    </contour>
    <contour>
      <point x="146" y="-170" type="line"/>
      <point x="246" y="-170" type="line"/>
      <point x="383" y="85" type="line"/>
      <point x="251" y="85" type="line"/>
    </contour>
  </outline>
</glyph>
<glyph name="dagger" format="2">
  <advance width="454"/>
  <unicode hex="2020"/>
  <outline>
    <contour>
      <point x="147" y="-70" type="line"/>
      <point x="271" y="-70" type="line"/>
      <point x="374" y="362" type="line"/>
      <point x="512" y="362" type="line"/>
      <point x="541" y="497" type="line"/>
      <point x="405" y="497" type="line"/>
      <point x="445" y="668" type="line"/>
      <point x="320" y="668" type="line"/>
      <point x="280" y="497" type="line"/>
      <point x="142" y="497" type="line"/>
      <point x="112" y="362" type="line" name="hr00"/>
      <point x="248" y="362" type="line"/>
    </contour>
  </outline>
</glyph>
<glyph name="bullet" format="2">
  <advance width="458"/>
  <unicode hex="2022"/>
  <outline>
    <contour>
      <point x="160" y="100" type="line" name="hr00"/>
      <point x="410" y="100" type="line"/>
      <point x="410" y="380" type="line"/>
      <point x="160" y="380" type="line"/>
    </contour>
  </outline>
</glyph>
<glyph name="guilsinglleft" format="2">
  <advance width="232"/>
  <unicode hex="2039"/>
  <outline>
    <contour>
      <point x="223" y="43" type="line"/>
      <point x="256" y="163" type="line"/>
      <point x="176" y="240" type="line"/>
      <point x="289" y="305" type="line"/>
      <point x="326" y="436" type="line" name="hr00"/>
      <point x="76" y="273" type="line"/>
      <point x="53" y="212" type="line"/>
    </contour>
  </outline>
</glyph>
<glyph name="fivesuperior" format="2">
  <advance width="280"/>
  <unicode hex="2075"/>
  <outline>
    <contour>
      <point x="247" y="471" type="curve" smooth="yes"/>
      <point x="327" y="471"/>
      <point x="372.56" y="501.855"/>
      <point x="393" y="582" type="curve" smooth="yes"/>
      <point x="410.561" y="650.859"/>
      <point x="381" y="681"/>
      <point x="324" y="681" type="curve" smooth="yes"/>
      <point x="312" y="681"/>
      <point x="291" y="678"/>
      <point x="279" y="675" type="curve"/>
      <point x="288" y="700" type="line"/>
      <point x="412" y="700" type="line"/>
      <point x="434" y="790" type="line" name="hr00"/>
      <point x="227" y="790" type="line"/>
      <point x="169" y="599" type="line"/>
      <point x="244" y="588" type="line"/>
      <point x="252" y="590"/>
      <point x="264" y="592"/>
      <point x="271" y="592" type="curve" smooth="yes"/>
      <point x="281" y="592"/>
      <point x="283.641" y="587.092"/>
      <point x="281" y="576" type="curve" smooth="yes"/>
      <point x="278.638" y="566.079"/>
      <point x="269" y="561"/>
      <point x="252" y="561" type="curve" smooth="yes"/>
      <point x="225" y="561"/>
      <point x="185" y="566"/>
      <point x="162" y="570" type="curve"/>
      <point x="132" y="485" type="line"/>
      <point x="159" y="479"/>
      <point x="209" y="471"/>
    </contour>
  </outline>
</glyph>
<glyph name="sevensuperior" format="2">
  <advance width="280"/>
  <unicode hex="2077"/>
  <outline>
    <contour>
      <point x="261" y="468" type="line"/>
      <point x="411" y="689" type="line"/>
      <point x="436" y="790" type="line"/>
      <point x="209" y="790" type="line"/>
      <point x="183" y="685" type="line" name="hr00"/>
      <point x="282" y="685" type="line"/>
      <point x="279" y="672" type="line"/>
      <point x="140" y="489" type="line"/>
    </contour>
  </outline>
</glyph>
<glyph name="Euro" format="2">
  <advance width="560"/>
  <unicode hex="20AC"/>
  <outline>
    <contour>
      <point x="130" y="357" type="line"/>
      <point x="531" y="357" type="line" name="hr00"/>
      <point x="555" y="462" type="line"/>
      <point x="155" y="462" type="line"/>
    </contour>
    <contour>
      <point x="91" y="183" type="line"/>
      <point x="492" y="183" type="line"/>
      <point x="516" y="288" type="line"/>
      <point x="115" y="288" type="line"/>
    </contour>
    <component base="C" xScale="0.971" yScale="0.971" xOffset="53"/>
  </outline>
</glyph>
<glyph name="trademark" format="2">
  <advance width="689"/>
  <unicode hex="2122"/>
  <outline>
    <contour>
      <point x="439" y="331" type="line" name="hr01"/>
      <point x="521" y="331" type="line"/>
      <point x="521" y="505" type="line"/>
      <point x="559" y="352" type="line"/>
      <point x="614" y="352" type="line"/>
      <point x="648" y="505" type="line"/>
      <point x="648" y="331" type="line"/>
      <point x="730" y="331" type="line"/>
      <point x="730" y="644" type="line"/>
      <point x="628" y="644" type="line"/>
      <point x="583" y="486" type="line"/>
      <point x="542" y="644" type="line"/>
      <point x="439" y="644" type="line"/>
    </contour>
    <contour>
      <point x="285" y="332" type="line"/>
      <point x="373" y="332" type="line"/>
      <point x="373" y="565" type="line"/>
      <point x="414" y="565" type="line"/>
      <point x="414" y="644" type="line"/>
      <point x="214" y="644" type="line"/>
      <point x="214" y="565" type="line"/>
      <point x="285" y="565" type="line"/>
    </contour>
  </outline>
</glyph>
<glyph name="partialdiff" format="2">
  <advance width="560"/>
  <unicode hex="2202"/>
  <outline>
    <contour>
      <point x="344" y="-9" type="curve" smooth="yes"/>
      <point x="526" y="-9"/>
      <point x="599" y="106"/>
      <point x="599" y="347" type="curve" smooth="yes"/>
      <point x="599" y="593"/>
      <point x="526" y="712"/>
      <point x="343" y="712" type="curve" smooth="yes"/>
      <point x="273" y="712"/>
      <point x="199" y="686"/>
      <point x="162" y="667" type="curve" name="hr00"/>
      <point x="166" y="564" type="line"/>
      <point x="201" y="579"/>
      <point x="267" y="598"/>
      <point x="320" y="598" type="curve" smooth="yes"/>
      <point x="420" y="598"/>
      <point x="447" y="550"/>
      <point x="455" y="414" type="curve"/>
      <point x="430" y="424"/>
      <point x="378" y="438"/>
      <point x="328" y="438" type="curve" smooth="yes"/>
      <point x="188" y="438"/>
      <point x="109" y="358"/>
      <point x="109" y="216" type="curve" smooth="yes"/>
      <point x="109" y="64"/>
      <point x="191" y="-9"/>
    </contour>
    <contour>
      <point x="344" y="105" type="curve" smooth="yes"/>
      <point x="277" y="105"/>
      <point x="253" y="148"/>
      <point x="253" y="216" type="curve" smooth="yes"/>
      <point x="253" y="278"/>
      <point x="276" y="324"/>
      <point x="345" y="324" type="curve" smooth="yes"/>
      <point x="398" y="324"/>
      <point x="439" y="311"/>
      <point x="455" y="302" type="curve"/>
      <point x="455" y="160"/>
      <point x="416" y="105"/>
    </contour>
  </outline>
</glyph>
<glyph name="summation" format="2">
  <advance width="560"/>
  <unicode hex="2211"/>
  <outline>
    <contour>
      <point x="96" y="-180" type="line"/>
      <point x="596" y="-180" type="line"/>
      <point x="596" y="-60" type="line"/>
      <point x="242" y="-60" type="line"/>
      <point x="242" y="-45" type="line"/>
      <point x="457" y="251" type="line"/>
      <point x="457" y="344" type="line"/>
      <point x="242" y="625" type="line"/>
      <point x="242" y="640" type="line"/>
      <point x="596" y="640" type="line"/>
      <point x="596" y="760" type="line"/>
      <point x="96" y="760" type="line"/>
      <point x="96" y="620" type="line"/>
      <point x="334" y="298" type="line" name="hr00"/>
      <point x="96" y="-41" type="line"/>
    </contour>
  </outline>
</glyph>
<glyph name="divisionslash" format="2">
  <advance width="600"/>
  <unicode hex="2215"/>
  <outline>
    <contour>
      <point x="164" y="-24" type="line" name="hr00"/>
      <point x="595" y="674" type="line"/>
      <point x="469" y="718" type="line"/>
      <point x="38" y="20" type="line"/>
    </contour>
  </outline>
</glyph>
<glyph name="radical" format="2">
  <advance width="560"/>
  <unicode hex="221A"/>
  <outline>
    <contour>
      <point x="257" y="-130" type="line"/>
      <point x="471" y="-130" type="line"/>
      <point x="671" y="791" type="line"/>
      <point x="535" y="791" type="line"/>
      <point x="372" y="-16" type="line"/>
      <point x="359" y="-16" type="line"/>
      <point x="267" y="440" type="line"/>
      <point x="128" y="440" type="line" name="hr00"/>
    </contour>
    <contour>
      <point x="101" y="320" type="line"/>
      <point x="257" y="320" type="line"/>
      <point x="257" y="440" type="line"/>
      <point x="101" y="440" type="line"/>
    </contour>
  </outline>
</glyph>
<glyph name="notequal" format="2">
  <advance width="560"/>
  <unicode hex="2260"/>
  <outline>
    <contour>
      <point x="259" y="-56" type="line"/>
      <point x="516" y="529" type="line"/>
      <point x="412" y="570" type="line"/>
      <point x="155" y="-15" type="line"/>
    </contour>
    <component base="equal"/>
  </outline>
</glyph>
<glyph name="greaterequal" format="2">
  <advance width="560"/>
  <unicode hex="2265"/>
  <outline>
    <contour>
      <point x="130" y="153" type="line"/>
      <point x="551" y="274" type="line"/>
      <point x="551" y="390" type="line"/>
      <point x="130" y="516" type="line"/>
      <point x="130" y="386" type="line"/>
      <point x="402" y="337" type="line"/>
      <point x="130" y="283" type="line"/>
    </contour>
    <contour>
      <point x="551" y="19" type="line"/>
      <point x="551" y="139" type="line"/>
      <point x="130" y="139" type="line"/>
      <point x="130" y="19" type="line"/>
    </contour>
  </outline>
</glyph>
<glyph name="tcheh-ar.fina" format="2">
  <advance width="654"/>
  <unicode hex="FB7B"/>
  <outline>
    <contour>
      <point x="593" y="0" type="line"/>
      <point x="712" y="0" type="line"/>
      <point x="684" y="120" type="line"/>
      <point x="565" y="120" type="line"/>
    </contour>
    <component base="tcheh-ar"/>
    <component base="connection_r" xOffset="604"/>
  </outline>
</glyph>
<glyph name="gaf-ar.fina" format="2">
  <advance width="877"/>
  <unicode hex="FB93"/>
  <anchor x="539" y="-100" name="bottom"/>
  <anchor x="105" y="889" name="top"/>
  <outline>
    <contour>
      <point x="67" y="605" type="curve"/>
      <point x="131" y="536" type="line"/>
      <point x="154" y="620"/>
      <point x="177" y="695"/>
      <point x="207" y="766" type="curve"/>
      <point x="137" y="805" type="line"/>
      <point x="103" y="724"/>
      <point x="91" y="686"/>
    </contour>
    <component base="keheh-ar.fina"/>
  </outline>
</glyph>
<glyph name="gaf-ar.medi" format="2">
  <advance width="700"/>
  <unicode hex="FB95"/>
  <anchor x="365" y="-100" name="bottom"/>
  <anchor x="-32" y="927" name="top"/>
  <outline>
    <contour>
      <point x="-114" y="605" type="curve"/>
      <point x="-50" y="536" type="line"/>
      <point x="-27" y="620"/>
      <point x="-4" y="695"/>
      <point x="26" y="766" type="curve"/>
      <point x="-44" y="805" type="line"/>
      <point x="-78" y="724"/>
      <point x="-90" y="686"/>
    </contour>
    <component base="keheh-ar.medi"/>
  </outline>
</glyph>
<glyph name="hehgoal-ar.medi" format="2">
  <advance width="625"/>
  <unicode hex="FBA9"/>
  <anchor x="465" y="-407" name="bottom"/>
  <anchor x="306" y="282" name="top"/>
  <outline>
    <contour>
      <point x="670" y="-368" type="line"/>
      <point x="570" y="61" type="line"/>
      <point x="524" y="0" type="line"/>
      <point x="683" y="0" type="line"/>
      <point x="655" y="120" type="line"/>
      <point x="421" y="120" type="line"/>
      <point x="518" y="-307" type="line"/>
      <point x="566" y="-189" type="line"/>
      <point x="499" y="-196"/>
      <point x="484" y="-196"/>
      <point x="470" y="-196" type="curve" smooth="yes"/>
      <point x="374" y="-196"/>
      <point x="345" y="-169"/>
      <point x="269" y="126" type="curve"/>
      <point x="30" y="120" type="line"/>
      <point x="58" y="0" type="line"/>
      <point x="226" y="0" type="line"/>
      <point x="151" y="52" type="line"/>
      <point x="211" y="-198"/>
      <point x="269" y="-316"/>
      <point x="475" y="-316" type="curve" smooth="yes"/>
      <point x="518" y="-316"/>
      <point x="546" y="-311"/>
      <point x="686" y="-297" type="curve"/>
    </contour>
    <component base="connection_r" xOffset="575"/>
    <component base="connection_l"/>
  </outline>
</glyph>
<glyph name="hehDoachashmee-ar.medi" format="2">
  <advance width="871"/>
  <unicode hex="FBAD"/>
  <outline>
    <contour>
      <point x="58" y="0" type="line"/>
      <point x="98" y="0" type="line"/>
      <point x="70" y="120" type="line"/>
      <point x="30" y="120" type="line"/>
    </contour>
    <component base="hehDoachashmee-ar.fina"/>
    <component base="connection_l"/>
  </outline>
</glyph>
<glyph name="dotabove-ar" format="2">
  <advance width="174"/>
  <unicode hex="FBB2"/>
  <anchor x="15" y="564" name="_top"/>
  <anchor x="-31" y="760" name="top"/>
  <outline>
    <contour>
      <point x="-52" y="564" type="line"/>
      <point x="82" y="564" type="line"/>
      <point x="50" y="700" type="line"/>
      <point x="-84" y="700" type="line"/>
    </contour>
  </outline>
</glyph>
<glyph name="threedotsdownabove-ar" format="2">
  <advance width="363"/>
  <unicode hex="FBB8"/>
  <outline>
    <contour>
      <point x="86" y="401" type="line"/>
      <point x="208" y="401" type="line"/>
      <point x="180" y="525" type="line"/>
      <point x="58" y="525" type="line"/>
    </contour>
    <component base="twodotshorizontalabove-ar" xOffset="4" yOffset="26"/>
  </outline>
</glyph>
<glyph name="seen_alefMaksura-ar" format="2">
  <advance width="1734"/>
  <unicode hex="FCFB"/>
  <anchor x="1388" y="-100" name="bottom_1"/>
  <anchor x="577" y="-300" name="bottom_2"/>
  <anchor x="925" y="0" name="caret_1"/>
  <anchor x="1232" y="573" name="top_1"/>
  <anchor x="128" y="244" name="top_2"/>
  <outline>
    <contour>
      <point x="571" y="380" type="line"/>
      <point x="922" y="380" type="line"/>
      <point x="894" y="500" type="line"/>
      <point x="567" y="500" type="line"/>
    </contour>
    <contour>
      <point x="1454" y="0" type="curve" smooth="yes"/>
      <point x="1722" y="0" type="line"/>
      <point x="1656" y="283" type="line" smooth="yes"/>
      <point x="1647" y="323"/>
      <point x="1606" y="434"/>
      <point x="1578" y="506" type="curve"/>
      <point x="1452" y="474" type="line"/>
      <point x="1487" y="386"/>
      <point x="1519" y="297"/>
      <point x="1525" y="271" type="curve" smooth="yes"/>
      <point x="1565" y="91" type="line"/>
      <point x="1582" y="120" type="line"/>
      <point x="1436" y="120" type="line" smooth="yes"/>
      <point x="1422" y="120"/>
      <point x="1407" y="129"/>
      <point x="1377" y="151" type="curve"/>
      <point x="1305" y="53" type="line"/>
      <point x="1353" y="16"/>
      <point x="1404" y="0"/>
    </contour>
    <contour>
      <point x="1010" y="0" type="line"/>
      <point x="1144" y="0" type="line"/>
      <point x="1028" y="500" type="line"/>
      <point x="894" y="500" type="line"/>
    </contour>
    <contour>
      <point x="1144" y="0" type="line"/>
      <point x="1220" y="0" type="line" smooth="yes"/>
      <point x="1367" y="0"/>
      <point x="1413" y="82"/>
      <point x="1373" y="256" type="curve" smooth="yes"/>
      <point x="1328" y="450" type="line"/>
      <point x="1194" y="450" type="line"/>
      <point x="1241" y="244" type="line" smooth="yes"/>
      <point x="1268" y="130"/>
      <point x="1262" y="120"/>
      <point x="1202" y="120" type="curve" smooth="yes"/>
      <point x="1116" y="120" type="line"/>
    </contour>
    <contour>
      <point x="440" y="-248" type="curve" smooth="yes"/>
      <point x="723" y="-248" type="line" smooth="yes"/>
      <point x="853" y="-248"/>
      <point x="927" y="-176"/>
      <point x="927" y="-68" type="curve" smooth="yes"/>
      <point x="927" y="-47"/>
      <point x="924" y="-26"/>
      <point x="919" y="-3" type="curve" smooth="yes"/>
      <point x="890" y="123"/>
      <point x="799" y="168"/>
      <point x="667" y="207" type="curve" smooth="yes"/>
      <point x="559" y="235"/>
      <point x="495" y="243"/>
      <point x="478" y="314" type="curve" smooth="yes"/>
      <point x="477" y="320"/>
      <point x="476" y="326"/>
      <point x="476" y="332" type="curve" smooth="yes"/>
      <point x="476" y="365"/>
      <point x="504" y="380"/>
      <point x="571" y="380" type="curve"/>
      <point x="567" y="500" type="line"/>
      <point x="429" y="500"/>
      <point x="345" y="445"/>
      <point x="345" y="337" type="curve" smooth="yes"/>
      <point x="345" y="319"/>
      <point x="347" y="300"/>
      <point x="352" y="279" type="curve" smooth="yes"/>
      <point x="379" y="163"/>
      <point x="456" y="142"/>
      <point x="637" y="85" type="curve" smooth="yes"/>
      <point x="743" y="57"/>
      <point x="775" y="42"/>
      <point x="791" y="-26" type="curve" smooth="yes"/>
      <point x="794" y="-40"/>
      <point x="796" y="-52"/>
      <point x="796" y="-62" type="curve" smooth="yes"/>
      <point x="796" y="-108"/>
      <point x="767" y="-128"/>
      <point x="705" y="-128" type="curve" smooth="yes"/>
      <point x="422" y="-128" type="line" smooth="yes"/>
      <point x="327" y="-128"/>
      <point x="249" y="-74"/>
      <point x="231" y="2" type="curve" smooth="yes"/>
      <point x="227" y="22"/>
      <point x="217" y="93"/>
      <point x="211" y="176" type="curve"/>
      <point x="79" y="183" type="line"/>
      <point x="86" y="95"/>
      <point x="94" y="18"/>
      <point x="103" y="-24" type="curve" smooth="yes"/>
      <point x="133" y="-154"/>
      <point x="275" y="-248"/>
    </contour>
  </outline>
</glyph>
<glyph name="sad_alefMaksura-ar" format="2">
  <advance width="1667"/>
  <unicode hex="FD05"/>
  <anchor x="1372" y="-100" name="bottom_1"/>
  <anchor x="577" y="-300" name="bottom_2"/>
  <anchor x="906" y="0" name="caret_1"/>
  <anchor x="1216" y="573" name="top_1"/>
  <anchor x="128" y="244" name="top_2"/>
  <outline>
    <contour>
      <point x="571" y="380" type="line"/>
      <point x="922" y="380" type="line"/>
      <point x="894" y="500" type="line"/>
      <point x="567" y="500" type="line"/>
    </contour>
    <contour>
      <point x="1010" y="0" type="line"/>
      <point x="1144" y="0" type="line"/>
      <point x="1028" y="500" type="line"/>
      <point x="894" y="500" type="line"/>
    </contour>
    <contour>
      <point x="1144" y="0" type="line"/>
      <point x="1655" y="0" type="line"/>
      <point x="1598" y="247" type="line" smooth="yes"/>
      <point x="1572" y="359"/>
      <point x="1501" y="500"/>
      <point x="1317" y="500" type="curve" smooth="yes"/>
      <point x="1145" y="500"/>
      <point x="1090" y="383"/>
      <point x="1031" y="280" type="curve"/>
      <point x="1076" y="153" type="line"/>
      <point x="1102" y="199"/>
      <point x="1180" y="380"/>
      <point x="1324" y="380" type="curve" smooth="yes"/>
      <point x="1397" y="380"/>
      <point x="1443" y="336"/>
      <point x="1467" y="235" type="curve" smooth="yes"/>
      <point x="1519" y="0" type="line"/>
      <point x="1625" y="120" type="line"/>
      <point x="1116" y="120" type="line"/>
    </contour>
    <contour>
      <point x="440" y="-248" type="curve" smooth="yes"/>
      <point x="723" y="-248" type="line" smooth="yes"/>
      <point x="853" y="-248"/>
      <point x="927" y="-176"/>
      <point x="927" y="-68" type="curve" smooth="yes"/>
      <point x="927" y="-47"/>
      <point x="924" y="-26"/>
      <point x="919" y="-3" type="curve" smooth="yes"/>
      <point x="890" y="123"/>
      <point x="799" y="168"/>
      <point x="667" y="207" type="curve" smooth="yes"/>
      <point x="559" y="235"/>
      <point x="495" y="243"/>
      <point x="478" y="314" type="curve" smooth="yes"/>
      <point x="477" y="320"/>
      <point x="476" y="326"/>
      <point x="476" y="332" type="curve" smooth="yes"/>
      <point x="476" y="365"/>
      <point x="504" y="380"/>
      <point x="571" y="380" type="curve"/>
      <point x="567" y="500" type="line"/>
      <point x="429" y="500"/>
      <point x="345" y="445"/>
      <point x="345" y="337" type="curve" smooth="yes"/>
      <point x="345" y="319"/>
      <point x="347" y="300"/>
      <point x="352" y="279" type="curve" smooth="yes"/>
      <point x="379" y="163"/>
      <point x="456" y="142"/>
      <point x="637" y="85" type="curve" smooth="yes"/>
      <point x="743" y="57"/>
      <point x="775" y="42"/>
      <point x="791" y="-26" type="curve" smooth="yes"/>
      <point x="794" y="-40"/>
      <point x="796" y="-52"/>
      <point x="796" y="-62" type="curve" smooth="yes"/>
      <point x="796" y="-108"/>
      <point x="767" y="-128"/>
      <point x="705" y="-128" type="curve" smooth="yes"/>
      <point x="422" y="-128" type="line" smooth="yes"/>
      <point x="327" y="-128"/>
      <point x="249" y="-74"/>
      <point x="231" y="2" type="curve" smooth="yes"/>
      <point x="227" y="22"/>
      <point x="217" y="93"/>
      <point x="211" y="176" type="curve"/>
      <point x="79" y="183" type="line"/>
      <point x="86" y="95"/>
      <point x="94" y="18"/>
      <point x="103" y="-24" type="curve" smooth="yes"/>
      <point x="133" y="-154"/>
      <point x="275" y="-248"/>
    </contour>
  </outline>
</glyph>
<glyph name="seen_reh-ar" format="2">
  <advance width="1229"/>
  <unicode hex="FD0E"/>
  <anchor x="883" y="-100" name="bottom_1"/>
  <anchor x="229" y="-350" name="bottom_2"/>
  <anchor x="672" y="0" name="caret_1"/>
  <anchor x="727" y="573" name="top_1"/>
  <anchor x="67" y="573" name="top_2"/>
  <outline>
    <contour>
      <point x="949" y="0" type="curve" smooth="yes"/>
      <point x="1217" y="0" type="line"/>
      <point x="1151" y="283" type="line" smooth="yes"/>
      <point x="1142" y="323"/>
      <point x="1101" y="434"/>
      <point x="1073" y="506" type="curve"/>
      <point x="947" y="474" type="line"/>
      <point x="982" y="386"/>
      <point x="1014" y="297"/>
      <point x="1020" y="271" type="curve" smooth="yes"/>
      <point x="1060" y="91" type="line"/>
      <point x="1077" y="120" type="line"/>
      <point x="931" y="120" type="line" smooth="yes"/>
      <point x="917" y="120"/>
      <point x="902" y="129"/>
      <point x="872" y="151" type="curve"/>
      <point x="800" y="53" type="line"/>
      <point x="848" y="16"/>
      <point x="899" y="0"/>
    </contour>
    <contour>
      <point x="201" y="279" type="line"/>
      <point x="441" y="279" type="line"/>
      <point x="413" y="399" type="line"/>
      <point x="174" y="399" type="line"/>
    </contour>
    <contour>
      <point x="505" y="0" type="line"/>
      <point x="639" y="0" type="line"/>
      <point x="523" y="500" type="line"/>
      <point x="389" y="500" type="line"/>
    </contour>
    <contour>
      <point x="639" y="0" type="line"/>
      <point x="715" y="0" type="line" smooth="yes"/>
      <point x="828" y="0"/>
      <point x="882" y="49"/>
      <point x="882" y="151" type="curve" smooth="yes"/>
      <point x="882" y="181"/>
      <point x="877" y="216"/>
      <point x="868" y="256" type="curve" smooth="yes"/>
      <point x="823" y="450" type="line"/>
      <point x="689" y="450" type="line"/>
      <point x="736" y="244" type="line" smooth="yes"/>
      <point x="746" y="202"/>
      <point x="751" y="174"/>
      <point x="751" y="156" type="curve" smooth="yes"/>
      <point x="751" y="124"/>
      <point x="735" y="120"/>
      <point x="697" y="120" type="curve" smooth="yes"/>
      <point x="611" y="120" type="line"/>
    </contour>
    <component base="reh-ar"/>
  </outline>
</glyph>
<glyph name="seen_alefMaksura-ar.fina" format="2">
  <advance width="1783"/>
  <unicode hex="FD17"/>
  <outline>
    <contour>
      <point x="1722" y="0" type="line"/>
      <point x="1841" y="0" type="line"/>
      <point x="1813" y="120" type="line"/>
      <point x="1694" y="120" type="line"/>
    </contour>
    <component base="seen_alefMaksura-ar"/>
    <component base="connection_r" xOffset="1733"/>
  </outline>
</glyph>
<glyph name="seen_reh-ar.fina" format="2">
  <advance width="1278"/>
  <unicode hex="FD2A"/>
  <outline>
    <contour>
      <point x="1217" y="0" type="line"/>
      <point x="1336" y="0" type="line"/>
      <point x="1308" y="120" type="line"/>
      <point x="1189" y="120" type="line"/>
    </contour>
    <component base="connection_r" xOffset="1228"/>
    <component base="seen_reh-ar"/>
  </outline>
</glyph>
<glyph name="parenleft-ar" format="2">
  <advance width="308"/>
  <unicode hex="FD3E"/>
  <outline>
    <contour>
      <point x="26" y="753" type="line"/>
      <point x="14" y="711"/>
      <point x="-3" y="613"/>
      <point x="-3" y="498" type="curve" smooth="yes"/>
      <point x="-3" y="267"/>
      <point x="132" y="11"/>
      <point x="233" y="-118" type="curve"/>
      <point x="358" y="-118" type="line"/>
      <point x="263" y="23"/>
      <point x="138" y="288"/>
      <point x="138" y="498" type="curve" smooth="yes"/>
      <point x="138" y="600"/>
      <point x="147" y="704"/>
      <point x="154" y="753" type="curve"/>
    </contour>
  </outline>
</glyph>
<glyph name="parenright-ar" format="2">
  <advance width="308"/>
  <unicode hex="FD3F"/>
  <outline>
    <contour>
      <point x="251" y="-118" type="line"/>
      <point x="263" y="-76"/>
      <point x="280" y="22"/>
      <point x="280" y="137" type="curve" smooth="yes"/>
      <point x="280" y="368"/>
      <point x="145" y="624"/>
      <point x="44" y="753" type="curve"/>
      <point x="-81" y="753" type="line"/>
      <point x="14" y="612"/>
      <point x="139" y="347"/>
      <point x="139" y="137" type="curve" smooth="yes"/>
      <point x="139" y="35"/>
      <point x="130" y="-69"/>
      <point x="123" y="-118" type="curve"/>
    </contour>
  </outline>
</glyph>
<glyph name="allah-ar" format="2">
  <advance width="1542"/>
  <unicode hex="FDF2"/>
  <anchor x="1218" y="-100" name="bottom_1"/>
  <anchor x="860" y="-100" name="bottom_2"/>
  <anchor x="367" y="-100" name="bottom_3"/>
  <anchor x="443" y="0" name="caret_1"/>
  <anchor x="829" y="0" name="caret_2"/>
  <anchor x="1214" y="0" name="caret_3"/>
  <anchor x="1004" y="828" name="top_1"/>
  <anchor x="568" y="1166" name="top_2"/>
  <anchor x="213" y="567" name="top_3"/>
  <outline>
    <contour>
      <point x="770" y="0" type="line"/>
      <point x="904" y="0" type="line" name="hr00"/>
      <point x="742" y="700" type="line"/>
      <point x="608" y="700" type="line"/>
    </contour>
    <contour>
      <point x="621" y="0" type="line"/>
      <point x="770" y="0" type="line"/>
      <point x="742" y="120" type="line"/>
      <point x="593" y="120" type="line"/>
    </contour>
    <contour>
      <point x="904" y="0" type="line" name="hr00"/>
      <point x="1023" y="0" type="line"/>
      <point x="995" y="120" type="line"/>
      <point x="876" y="120" type="line"/>
    </contour>
    <component base="alef-ar" xOffset="1228"/>
    <component base="heh-ar.fina"/>
    <component base="shaddaAlefabove-ar" xOffset="507" yOffset="355"/>
    <component base="lam-ar.init" xOffset="895"/>
  </outline>
</glyph>
<glyph name="hah-ar.init" format="2">
  <advance width="571"/>
  <unicode hex="FEA3"/>
  <anchor x="318" y="-62" name="bottom"/>
  <anchor x="174" y="563" name="top"/>
  <outline>
    <contour>
      <point x="58" y="0" type="line"/>
      <point x="569" y="0" type="line"/>
      <point x="504" y="279" type="line" smooth="yes"/>
      <point x="471" y="421"/>
      <point x="349" y="500"/>
      <point x="199" y="500" type="curve" smooth="yes"/>
      <point x="137" y="500"/>
      <point x="81" y="487"/>
      <point x="26" y="472" type="curve"/>
      <point x="65" y="351" type="line"/>
      <point x="26" y="363" type="line"/>
      <point x="122" y="374"/>
      <point x="171" y="380"/>
      <point x="206" y="380" type="curve" smooth="yes"/>
      <point x="300" y="380"/>
      <point x="357" y="338"/>
      <point x="373" y="267" type="curve" smooth="yes"/>
      <point x="412" y="90" type="line"/>
      <point x="439" y="120" type="line"/>
      <point x="30" y="120" type="line"/>
    </contour>
    <component base="connection_l"/>
  </outline>
</glyph>
<glyph name="sad-ar.fina" format="2">
  <advance width="1268"/>
  <unicode hex="FEBA"/>
  <outline>
    <contour>
      <point x="1207" y="0" type="line"/>
      <point x="1326" y="0" type="line"/>
      <point x="1298" y="120" type="line"/>
      <point x="1179" y="120" type="line"/>
    </contour>
    <component base="sad-ar"/>
    <component base="connection_r" xOffset="1218"/>
  </outline>
</glyph>
<glyph name="tah-ar.fina" format="2">
  <advance width="849"/>
  <unicode hex="FEC2"/>
  <outline>
    <contour>
      <point x="788" y="0" type="line"/>
      <point x="907" y="0" type="line"/>
      <point x="879" y="120" type="line"/>
      <point x="760" y="120" type="line"/>
    </contour>
    <component base="tah-ar"/>
    <component base="connection_r" xOffset="799"/>
  </outline>
</glyph>
<glyph name="ain-ar.init" format="2">
  <advance width="586"/>
  <unicode hex="FECB"/>
  <anchor x="411" y="-100" name="bottom"/>
  <anchor x="255" y="573" name="top"/>
  <outline>
    <contour>
      <point x="268" y="1" type="curve"/>
      <point x="341" y="99" type="line"/>
      <point x="275" y="147"/>
      <point x="235" y="226"/>
      <point x="235" y="287" type="curve" smooth="yes"/>
      <point x="235" y="345"/>
      <point x="270" y="380"/>
      <point x="331" y="380" type="curve" smooth="yes"/>
      <point x="358" y="380"/>
      <point x="385" y="373"/>
      <point x="417" y="362" type="curve"/>
      <point x="444" y="479" type="line"/>
      <point x="401" y="494"/>
      <point x="353" y="500"/>
      <point x="319" y="500" type="curve" smooth="yes"/>
      <point x="189" y="500"/>
      <point x="104" y="414"/>
      <point x="104" y="291" type="curve" smooth="yes"/>
      <point x="104" y="197"/>
      <point x="153" y="84"/>
    </contour>
    <contour>
      <point x="58" y="0" type="line"/>
      <point x="564" y="0" type="line"/>
      <point x="536" y="120" type="line"/>
      <point x="30" y="120" type="line"/>
    </contour>
    <component base="connection_l"/>
  </outline>
</glyph>
<glyph name="ain-ar.medi" format="2">
  <advance width="666"/>
  <unicode hex="FECC"/>
  <anchor x="414" y="-100" name="bottom"/>
  <anchor x="258" y="573" name="top"/>
  <outline>
    <contour>
      <point x="58" y="0" type="line"/>
      <point x="217" y="0" type="line" smooth="yes"/>
      <point x="452" y="0"/>
      <point x="584" y="195"/>
      <point x="584" y="335" type="curve" smooth="yes"/>
      <point x="584" y="352"/>
      <point x="582" y="363"/>
      <point x="579" y="378" type="curve" smooth="yes"/>
      <point x="571" y="434" type="line"/>
      <point x="475" y="479"/>
      <point x="364" y="500"/>
      <point x="288" y="500" type="curve" smooth="yes"/>
      <point x="202" y="500"/>
      <point x="102" y="473"/>
      <point x="26" y="428" type="curve"/>
      <point x="38" y="366" type="line" smooth="yes"/>
      <point x="65" y="231"/>
      <point x="300" y="0"/>
      <point x="561" y="0" type="curve" smooth="yes"/>
      <point x="724" y="0" type="line"/>
      <point x="696" y="120" type="line"/>
      <point x="543" y="120" type="line" smooth="yes"/>
      <point x="402" y="120"/>
      <point x="191" y="267"/>
      <point x="168" y="378" type="curve" smooth="yes"/>
      <point x="157" y="431" type="line"/>
      <point x="104" y="328" type="line"/>
      <point x="161" y="363"/>
      <point x="235" y="380"/>
      <point x="296" y="380" type="curve" smooth="yes"/>
      <point x="367" y="380"/>
      <point x="451" y="357"/>
      <point x="526" y="322" type="curve"/>
      <point x="435" y="431" type="line"/>
      <point x="448" y="366" type="line" smooth="yes"/>
      <point x="450" y="357"/>
      <point x="451" y="347"/>
      <point x="451" y="338" type="curve" smooth="yes"/>
      <point x="451" y="233"/>
      <point x="330" y="120"/>
      <point x="199" y="120" type="curve" smooth="yes"/>
      <point x="30" y="120" type="line"/>
    </contour>
    <component base="connection_l"/>
    <component base="connection_r" xOffset="616"/>
  </outline>
</glyph>
<glyph name="kaf-ar.init" format="2">
  <advance width="651"/>
  <unicode hex="FEDB"/>
  <anchor x="334" y="-100" name="bottom"/>
  <anchor x="83" y="818" name="top"/>
  <outline>
    <contour>
      <point x="58" y="0" type="line"/>
      <point x="639" y="0" type="line"/>
      <point x="582" y="245" type="line" smooth="yes"/>
      <point x="558" y="350"/>
      <point x="491" y="485"/>
      <point x="312" y="485" type="curve" smooth="yes"/>
      <point x="69" y="485" type="line"/>
      <point x="112" y="431" type="line"/>
      <point x="142" y="544" type="line" smooth="yes"/>
      <point x="154" y="580"/>
      <point x="165" y="611"/>
      <point x="197" y="687" type="curve"/>
      <point x="79" y="743" type="line"/>
      <point x="47" y="670"/>
      <point x="32" y="630"/>
      <point x="19" y="590" type="curve"/>
      <point x="-12" y="485" type="line"/>
      <point x="-56" y="552" type="line"/>
      <point x="137" y="339" type="line"/>
      <point x="100" y="365" type="line"/>
      <point x="329" y="365" type="line" smooth="yes"/>
      <point x="388" y="365"/>
      <point x="430" y="325"/>
      <point x="451" y="233" type="curve" smooth="yes"/>
      <point x="485" y="80" type="line"/>
      <point x="519" y="120" type="line"/>
      <point x="30" y="120" type="line"/>
    </contour>
    <component base="connection_l"/>
  </outline>
</glyph>
<glyph name="kaf-ar.medi" format="2">
  <advance width="700"/>
  <unicode hex="FEDC"/>
  <outline>
    <contour>
      <point x="639" y="0" type="line"/>
      <point x="758" y="0" type="line"/>
      <point x="730" y="120" type="line"/>
      <point x="611" y="120" type="line"/>
    </contour>
    <component base="kaf-ar.init"/>
    <component base="connection_r" xOffset="650"/>
  </outline>
</glyph>
<glyph name="lam-ar.init" format="2">
  <advance width="353"/>
  <unicode hex="FEDF"/>
  <anchor x="297" y="-100" name="bottom"/>
  <anchor x="96" y="770" name="top"/>
  <outline>
    <contour>
      <point x="207" y="0" type="line"/>
      <point x="341" y="0" type="line" name="hr00"/>
      <point x="179" y="700" type="line"/>
      <point x="45" y="700" type="line"/>
    </contour>
    <contour>
      <point x="58" y="0" type="line"/>
      <point x="207" y="0" type="line"/>
      <point x="180" y="120" type="line"/>
      <point x="30" y="120" type="line"/>
    </contour>
    <component base="connection_l"/>
  </outline>
</glyph>
<glyph name="meem-ar.medi" format="2">
  <advance width="726"/>
  <unicode hex="FEE4"/>
  <outline>
    <contour>
      <point x="659" y="0" type="line"/>
      <point x="784" y="0" type="line"/>
      <point x="756" y="120" type="line"/>
      <point x="631" y="120" type="line"/>
    </contour>
    <component base="meem-ar.init"/>
    <component base="connection_r" xOffset="676"/>
  </outline>
</glyph>
<glyph name="heh-ar.fina" format="2">
  <advance width="623"/>
  <unicode hex="FEEA"/>
  <anchor x="368" y="-100" name="bottom"/>
  <anchor x="212" y="573" name="top"/>
  <outline>
    <contour>
      <point x="316" y="0" type="curve"/>
      <point x="681" y="0" type="line"/>
      <point x="653" y="120" type="line"/>
      <point x="298" y="120" type="line"/>
      <point x="181" y="120"/>
      <point x="156" y="255"/>
      <point x="156" y="336" type="curve" smooth="yes"/>
      <point x="156" y="379"/>
      <point x="163" y="380"/>
      <point x="228" y="380" type="curve" smooth="yes"/>
      <point x="417" y="380" type="line"/>
      <point x="329" y="440" type="line"/>
      <point x="429" y="0" type="line"/>
      <point x="563" y="0" type="line"/>
      <point x="447" y="500" type="line"/>
      <point x="210" y="500" type="line" smooth="yes"/>
      <point x="54" y="500"/>
      <point x="27" y="436"/>
      <point x="27" y="337" type="curve" smooth="yes"/>
      <point x="27" y="203"/>
      <point x="77" y="0"/>
    </contour>
    <component base="connection_r" xOffset="573"/>
  </outline>
</glyph>
<glyph name="heh-ar.init" format="2">
  <advance width="817"/>
  <unicode hex="FEEB"/>
  <anchor x="484" y="-100" name="bottom"/>
  <anchor x="306" y="666" name="top"/>
  <outline>
    <contour>
      <point x="58" y="0" type="line"/>
      <point x="805" y="0" type="line"/>
      <point x="754" y="219" type="line" smooth="yes"/>
      <point x="692" y="486"/>
      <point x="515" y="569"/>
      <point x="338" y="569" type="curve" smooth="yes"/>
      <point x="239" y="569"/>
      <point x="137" y="543"/>
      <point x="69" y="525" type="curve"/>
      <point x="107" y="424" type="line"/>
      <point x="172" y="435"/>
      <point x="263" y="448"/>
      <point x="333" y="448" type="curve" smooth="yes"/>
      <point x="492" y="448"/>
      <point x="584" y="382"/>
      <point x="623" y="207" type="curve" smooth="yes"/>
      <point x="660" y="40" type="line"/>
      <point x="735" y="120" type="line"/>
      <point x="30" y="120" type="line"/>
    </contour>
    <contour>
      <point x="135" y="120" type="line"/>
      <point x="269" y="120" type="line"/>
      <point x="263" y="147" type="line" smooth="yes"/>
      <point x="261" y="156"/>
      <point x="260" y="164"/>
      <point x="260" y="172" type="curve" smooth="yes"/>
      <point x="260" y="207"/>
      <point x="279" y="229"/>
      <point x="309" y="229" type="curve" smooth="yes"/>
      <point x="350" y="229"/>
      <point x="398" y="188"/>
      <point x="411" y="136" type="curve" smooth="yes"/>
      <point x="415" y="120" type="line"/>
      <point x="549" y="120" type="line"/>
      <point x="543" y="148" type="line" smooth="yes"/>
      <point x="521" y="250"/>
      <point x="419" y="349"/>
      <point x="298" y="349" type="curve" smooth="yes"/>
      <point x="190" y="349"/>
      <point x="127" y="270"/>
      <point x="127" y="174" type="curve" smooth="yes"/>
      <point x="127" y="162"/>
      <point x="128" y="153"/>
      <point x="132" y="135" type="curve" smooth="yes"/>
    </contour>
    <component base="connection_l"/>
  </outline>
</glyph>
<glyph name="heh-ar.medi" format="2">
  <advance width="723"/>
  <unicode hex="FEEC"/>
  <anchor x="472" y="-350" name="bottom"/>
  <anchor x="258" y="573" name="top"/>
  <outline>
    <contour>
      <point x="58" y="0" type="line"/>
      <point x="662" y="0" type="line"/>
      <point x="604" y="251" type="line" smooth="yes"/>
      <point x="561" y="438"/>
      <point x="460" y="500"/>
      <point x="286" y="500" type="curve" smooth="yes"/>
      <point x="195" y="500"/>
      <point x="125" y="483"/>
      <point x="99" y="465" type="curve"/>
      <point x="97" y="452"/>
      <point x="96" y="435"/>
      <point x="96" y="414" type="curve" smooth="yes"/>
      <point x="96" y="296"/>
      <point x="135" y="128"/>
      <point x="187" y="26" type="curve"/>
      <point x="307" y="73" type="line"/>
      <point x="291" y="104"/>
      <point x="262" y="183"/>
      <point x="247" y="250" type="curve" smooth="yes"/>
      <point x="234" y="308"/>
      <point x="222" y="394"/>
      <point x="224" y="448" type="curve"/>
      <point x="160" y="363" type="line"/>
      <point x="187" y="374"/>
      <point x="239" y="380"/>
      <point x="297" y="380" type="curve" smooth="yes"/>
      <point x="411" y="380"/>
      <point x="447" y="350"/>
      <point x="473" y="239" type="curve" smooth="yes"/>
      <point x="526" y="0" type="line"/>
      <point x="632" y="120" type="line"/>
      <point x="30" y="120" type="line"/>
    </contour>
    <contour>
      <point x="437" y="-247" type="curve" smooth="yes"/>
      <point x="597" y="-247"/>
      <point x="681" y="-206"/>
      <point x="681" y="-107" type="curve" smooth="yes"/>
      <point x="681" y="-91"/>
      <point x="678" y="-73"/>
      <point x="674" y="-54" type="curve" smooth="yes"/>
      <point x="634" y="120" type="line"/>
      <point x="500" y="120" type="line"/>
      <point x="543" y="-66" type="line" smooth="yes"/>
      <point x="546" y="-78"/>
      <point x="548" y="-88"/>
      <point x="548" y="-96" type="curve" smooth="yes"/>
      <point x="548" y="-123"/>
      <point x="525" y="-127"/>
      <point x="430" y="-127" type="curve" smooth="yes"/>
      <point x="365" y="-127"/>
      <point x="301" y="-119"/>
      <point x="266" y="-109" type="curve"/>
      <point x="367" y="-180" type="line"/>
      <point x="349" y="-146"/>
      <point x="326" y="-92"/>
      <point x="314" y="-42" type="curve" smooth="yes"/>
      <point x="307" y="-12"/>
      <point x="301" y="43"/>
      <point x="303" y="58" type="curve"/>
      <point x="176" y="91" type="line"/>
      <point x="174" y="81"/>
      <point x="173" y="66"/>
      <point x="173" y="48" type="curve" smooth="yes"/>
      <point x="173" y="-55"/>
      <point x="205" y="-141"/>
      <point x="247" y="-233" type="curve"/>
      <point x="281" y="-237"/>
      <point x="358" y="-247"/>
    </contour>
    <contour>
      <point x="662" y="0" type="line"/>
      <point x="781" y="0" type="line"/>
      <point x="753" y="120" type="line"/>
      <point x="634" y="120" type="line"/>
    </contour>
    <component base="connection_r" xOffset="673"/>
    <component base="connection_l"/>
  </outline>
</glyph>
<glyph name="alefMaksura-ar.fina" format="2">
  <advance width="912"/>
  <unicode hex="FEF0"/>
  <anchor x="577" y="-300" name="bottom"/>
  <anchor x="128" y="244" name="top"/>
  <outline>
    <contour>
      <point x="440" y="-248" type="curve" smooth="yes"/>
      <point x="723" y="-248" type="line" smooth="yes"/>
      <point x="854" y="-248"/>
      <point x="928" y="-175"/>
      <point x="928" y="-69" type="curve" smooth="yes"/>
      <point x="928" y="-50"/>
      <point x="926" y="-30"/>
      <point x="921" y="-9" type="curve" smooth="yes"/>
      <point x="913" y="25" type="line"/>
      <point x="779" y="25" type="line"/>
      <point x="789" y="-20" type="line" smooth="yes"/>
      <point x="793" y="-36"/>
      <point x="795" y="-50"/>
      <point x="795" y="-62" type="curve" smooth="yes"/>
      <point x="795" y="-108"/>
      <point x="766" y="-128"/>
      <point x="705" y="-128" type="curve" smooth="yes"/>
      <point x="422" y="-128" type="line" smooth="yes"/>
      <point x="327" y="-128"/>
      <point x="249" y="-74"/>
      <point x="231" y="2" type="curve" smooth="yes"/>
      <point x="227" y="22"/>
      <point x="217" y="93"/>
      <point x="211" y="176" type="curve"/>
      <point x="79" y="183" type="line"/>
      <point x="86" y="95"/>
      <point x="94" y="18"/>
      <point x="103" y="-24" type="curve" smooth="yes"/>
      <point x="133" y="-154"/>
      <point x="275" y="-248"/>
    </contour>
    <contour>
      <point x="761" y="0" type="curve" smooth="yes"/>
      <point x="970" y="0" type="line"/>
      <point x="942" y="120" type="line"/>
      <point x="743" y="120" type="line" smooth="yes"/>
      <point x="704" y="120"/>
      <point x="692" y="127"/>
      <point x="657" y="148" type="curve"/>
      <point x="598" y="42" type="line"/>
      <point x="659" y="4"/>
      <point x="705" y="0"/>
    </contour>
    <component base="connection_r" xOffset="862"/>
  </outline>
</glyph>
<glyph name="lam_alef-ar" format="2">
  <advance width="699"/>
  <unicode hex="FEFB"/>
  <anchor x="634" y="-60" name="bottom_1"/>
  <anchor x="325" y="-60" name="bottom_2"/>
  <anchor x="436" y="0" name="caret_1"/>
  <anchor x="447" y="750" name="top_1"/>
  <anchor x="169" y="615" name="top_2"/>
  <outline>
    <contour>
      <point x="98" y="0" type="line"/>
      <point x="687" y="0" type="line"/>
      <point x="525" y="700" type="line"/>
      <point x="391" y="700" type="line"/>
      <point x="537" y="60" type="line"/>
      <point x="578" y="120" type="line"/>
      <point x="70" y="120" type="line"/>
    </contour>
    <contour>
      <point x="216" y="120" type="line"/>
      <point x="350" y="120" type="line"/>
      <point x="247" y="565" type="line"/>
      <point x="113" y="565" type="line"/>
    </contour>
  </outline>
</glyph>
<glyph name="acute.cap.001" format="2">
  <advance width="528"/>
  <outline>
    <contour>
      <point x="299" y="765" type="line"/>
      <point x="563" y="842" type="line"/>
      <point x="553" y="962" type="line"/>
      <point x="289" y="871" type="line"/>
    </contour>
  </outline>
</glyph>
<glyph name="alef-ar.short" format="2">
  <advance width="314"/>
  <anchor x="223" y="-37" name="bottom"/>
  <anchor x="68" y="634" name="top"/>
  <outline>
    <contour>
      <point x="148" y="0" type="line"/>
      <point x="282" y="0" type="line" name="hr00"/>
      <point x="144" y="595" type="line"/>
      <point x="10" y="595" type="line"/>
    </contour>
  </outline>
</glyph>
<glyph name="alefMaksura_reh-ar.fina" format="2">
  <advance width="700"/>
  <anchor x="586" y="-60" name="bottom_1"/>
  <anchor x="229" y="-350" name="bottom_2"/>
  <anchor x="408" y="0" name="caret_1"/>
  <anchor x="439" y="573" name="top_1"/>
  <anchor x="67" y="573" name="top_2"/>
  <outline>
    <contour>
      <point x="505" y="0" type="line"/>
      <point x="758" y="0" type="line"/>
      <point x="730" y="120" type="line"/>
      <point x="545" y="120" type="line"/>
      <point x="621" y="70" type="line"/>
      <point x="523" y="500" type="line"/>
      <point x="389" y="500" type="line"/>
    </contour>
    <contour>
      <point x="201" y="279" type="line"/>
      <point x="441" y="279" type="line"/>
      <point x="414" y="399" type="line"/>
      <point x="174" y="399" type="line"/>
    </contour>
    <component base="reh-ar"/>
    <component base="connection_r" xOffset="650"/>
  </outline>
</glyph>
<glyph name="breve.cap" format="2">
  <advance width="462"/>
  <outline>
    <contour>
      <point x="396" y="783" type="curve" smooth="yes"/>
      <point x="513" y="783"/>
      <point x="563" y="840"/>
      <point x="593" y="927" type="curve"/>
      <point x="471" y="927" type="line"/>
      <point x="462" y="904"/>
      <point x="444" y="888"/>
      <point x="418" y="888" type="curve" smooth="yes"/>
      <point x="392" y="888"/>
      <point x="379" y="899"/>
      <point x="383" y="927" type="curve"/>
      <point x="261" y="927" type="line" name="hr00"/>
      <point x="249" y="835"/>
      <point x="297" y="783"/>
    </contour>
  </outline>
</glyph>
<glyph name="caron.cap" format="2">
  <advance width="462"/>
  <outline>
    <contour>
      <point x="341" y="776" type="line"/>
      <point x="433" y="776" type="line"/>
      <point x="593" y="927" type="line" name="hr00"/>
      <point x="462" y="927" type="line"/>
      <point x="409" y="870" type="line"/>
      <point x="380" y="927" type="line"/>
      <point x="248" y="927" type="line"/>
    </contour>
  </outline>
</glyph>
<glyph name="connection_r" format="2">
  <advance width="50"/>
  <outline>
    <contour>
      <point x="108" y="0" type="line"/>
      <point x="116" y="0"/>
      <point x="120" y="8"/>
      <point x="120" y="21" type="curve" smooth="yes"/>
      <point x="120" y="36"/>
      <point x="106" y="120"/>
      <point x="80" y="120" type="curve"/>
    </contour>
  </outline>
</glyph>
<glyph name="dieresis.cap" format="2">
  <advance width="410"/>
  <outline>
    <contour>
      <point x="256" y="788" type="line"/>
      <point x="366" y="788" type="line"/>
      <point x="398" y="923" type="line"/>
      <point x="287" y="923" type="line"/>
    </contour>
    <contour>
      <point x="455" y="788" type="line"/>
      <point x="564" y="788" type="line"/>
      <point x="597" y="923" type="line"/>
      <point x="486" y="923" type="line"/>
    </contour>
  </outline>
</glyph>
<glyph name="dotaccent.cap" format="2">
  <advance width="255"/>
  <outline>
    <contour>
      <point x="250" y="771" type="line" name="hr00"/>
      <point x="366" y="771" type="line"/>
      <point x="400" y="909" type="line"/>
      <point x="282" y="909" type="line"/>
    </contour>
  </outline>
</glyph>
<glyph name="dotcenter-ar.alt" format="2">
  <advance width="174"/>
  <anchor x="66" y="346" name="_center"/>
  <outline>
    <contour>
      <point x="29" y="295" type="line"/>
      <point x="129" y="295" type="line"/>
      <point x="105" y="397" type="line"/>
      <point x="4" y="397" type="line"/>
    </contour>
  </outline>
</glyph>
<glyph name="eight.pnum" format="2">
  <advance width="478"/>
  <outline>
    <contour>
      <point x="232" y="-10" type="curve" smooth="yes"/>
      <point x="448" y="-10"/>
      <point x="511" y="84"/>
      <point x="511" y="169" type="curve" smooth="yes"/>
      <point x="511" y="195"/>
      <point x="501" y="231"/>
      <point x="457" y="265" type="curve"/>
      <point x="524" y="293"/>
      <point x="557" y="339"/>
      <point x="557" y="394" type="curve" smooth="yes"/>
      <point x="557" y="454"/>
      <point x="493" y="509"/>
      <point x="361" y="509" type="curve" smooth="yes" name="hr00"/>
      <point x="185" y="509"/>
      <point x="99" y="428"/>
      <point x="99" y="346" type="curve" smooth="yes"/>
      <point x="99" y="335"/>
      <point x="100" y="301"/>
      <point x="148" y="265" type="curve"/>
      <point x="78" y="233"/>
      <point x="30" y="179"/>
      <point x="30" y="109" type="curve" smooth="yes"/>
      <point x="30" y="42"/>
      <point x="103" y="-10"/>
    </contour>
    <contour>
      <point x="264" y="117" type="curve" smooth="yes"/>
      <point x="201" y="117"/>
      <point x="185" y="133"/>
      <point x="185" y="151" type="curve" smooth="yes"/>
      <point x="185" y="169"/>
      <point x="199" y="194"/>
      <point x="241" y="200" type="curve"/>
      <point x="329" y="200" type="line"/>
      <point x="353" y="196"/>
      <point x="365" y="187"/>
      <point x="365" y="169" type="curve" smooth="yes"/>
      <point x="365" y="147"/>
      <point x="350" y="117"/>
    </contour>
    <contour>
      <point x="271" y="317" type="line"/>
      <point x="249" y="326"/>
      <point x="245" y="335"/>
      <point x="245" y="345" type="curve" smooth="yes"/>
      <point x="245" y="358"/>
      <point x="246" y="392"/>
      <point x="332" y="392" type="curve" smooth="yes"/>
      <point x="388" y="392"/>
      <point x="404" y="379"/>
      <point x="404" y="363" type="curve" smooth="yes"/>
      <point x="404" y="346"/>
      <point x="394" y="329"/>
      <point x="359" y="317" type="curve"/>
    </contour>
  </outline>
</glyph>
<glyph name="fehDotless-ar.medi" format="2">
  <advance width="676"/>
  <outline>
    <contour>
      <point x="615" y="0" type="line"/>
      <point x="734" y="0" type="line"/>
      <point x="706" y="120" type="line"/>
      <point x="587" y="120" type="line"/>
    </contour>
    <component base="fehDotless-ar.init"/>
    <component base="connection_r" xOffset="626"/>
  </outline>
</glyph>
<glyph name="five.pnum" format="2">
  <advance width="461"/>
  <outline>
    <contour>
      <point x="237" y="-9" type="curve" smooth="yes"/>
      <point x="408" y="-9"/>
      <point x="497" y="66"/>
      <point x="497" y="183" type="curve" smooth="yes"/>
      <point x="497" y="293"/>
      <point x="418" y="321"/>
      <point x="314" y="321" type="curve" smooth="yes"/>
      <point x="279" y="321"/>
      <point x="240" y="312"/>
      <point x="221" y="306" type="curve"/>
      <point x="251" y="368" type="line"/>
      <point x="522" y="368" type="line"/>
      <point x="555" y="500" type="line" name="hr00"/>
      <point x="160" y="500" type="line"/>
      <point x="66" y="209" type="line"/>
      <point x="166" y="186" type="line"/>
      <point x="194" y="194"/>
      <point x="243" y="205"/>
      <point x="273" y="205" type="curve" smooth="yes"/>
      <point x="332" y="205"/>
      <point x="353" y="192"/>
      <point x="353" y="166" type="curve" smooth="yes"/>
      <point x="353" y="127"/>
      <point x="311" y="113"/>
      <point x="253" y="113" type="curve" smooth="yes"/>
      <point x="199" y="113"/>
      <point x="104" y="131"/>
      <point x="47" y="145" type="curve"/>
      <point x="5" y="24" type="line"/>
      <point x="66" y="10"/>
      <point x="172" y="-9"/>
    </contour>
  </outline>
</glyph>
<glyph name="four.pnum" format="2">
  <advance width="468"/>
  <outline>
    <contour>
      <point x="262" y="0" type="line" name="hr00"/>
      <point x="400" y="0" type="line"/>
      <point x="421" y="84" type="line"/>
      <point x="484" y="84" type="line"/>
      <point x="513" y="205" type="line"/>
      <point x="452" y="205" type="line"/>
      <point x="479" y="315" type="line"/>
      <point x="341" y="315" type="line"/>
      <point x="314" y="205" type="line"/>
      <point x="215" y="205" type="line"/>
      <point x="433" y="500" type="line"/>
      <point x="274" y="500" type="line"/>
      <point x="47" y="187" type="line"/>
      <point x="20" y="84" type="line"/>
      <point x="283" y="84" type="line"/>
    </contour>
  </outline>
</glyph>
<glyph name="grave.cap" format="2">
  <advance width="513"/>
  <outline>
    <contour>
      <point x="510" y="754" type="line"/>
      <point x="571" y="859" type="line"/>
      <point x="349" y="950" type="line"/>
      <point x="283" y="831" type="line"/>
    </contour>
  </outline>
</glyph>
<glyph name="hah-ar.alt" format="2">
  <advance width="596"/>
  <anchor x="420" y="-400" name="bottom"/>
  <anchor x="440" y="-102" name="center"/>
  <anchor x="195" y="573" name="top"/>
  <outline>
    <contour>
      <point x="593" y="0" type="line"/>
      <point x="528" y="279" type="line" smooth="yes"/>
      <point x="495" y="421"/>
      <point x="374" y="500"/>
      <point x="221" y="500" type="curve" smooth="yes"/>
      <point x="162" y="500"/>
      <point x="105" y="488"/>
      <point x="50" y="472" type="curve"/>
      <point x="84" y="367" type="line"/>
      <point x="158" y="375"/>
      <point x="199" y="380"/>
      <point x="230" y="380" type="curve" smooth="yes"/>
      <point x="324" y="380"/>
      <point x="381" y="338"/>
      <point x="397" y="267" type="curve" smooth="yes"/>
      <point x="459" y="0" type="line"/>
    </contour>
    <contour>
      <point x="435" y="-332" type="curve" smooth="yes"/>
      <point x="454" y="-332"/>
      <point x="473" y="-331"/>
      <point x="496" y="-328" type="curve"/>
      <point x="447" y="-212" type="line"/>
      <point x="441" y="-212"/>
      <point x="435" y="-212"/>
      <point x="430" y="-212" type="curve" smooth="yes"/>
      <point x="275" y="-212"/>
      <point x="249" y="-111"/>
      <point x="249" y="-68" type="curve" smooth="yes"/>
      <point x="249" y="-22"/>
      <point x="279" y="0"/>
      <point x="365" y="0" type="curve" smooth="yes"/>
      <point x="459" y="0" type="line"/>
      <point x="432" y="120" type="line"/>
      <point x="347" y="120" type="line" smooth="yes"/>
      <point x="204" y="120"/>
      <point x="118" y="56"/>
      <point x="118" y="-63" type="curve" smooth="yes"/>
      <point x="118" y="-198"/>
      <point x="227" y="-332"/>
    </contour>
  </outline>
</glyph>
<glyph name="hah-ar.fina.alt" format="2">
  <advance width="654"/>
  <outline>
    <contour>
      <point x="593" y="0" type="line"/>
      <point x="712" y="0" type="line"/>
      <point x="684" y="120" type="line"/>
      <point x="565" y="120" type="line"/>
    </contour>
    <component base="hah-ar.alt"/>
    <component base="connection_r" xOffset="604"/>
  </outline>
</glyph>
<glyph name="hungarumlaut.cap" format="2">
  <advance width="689"/>
  <outline>
    <contour>
      <point x="412" y="741" type="line"/>
      <point x="533" y="934" type="line"/>
      <point x="424" y="979" type="line"/>
      <point x="312" y="780" type="line"/>
    </contour>
    <contour>
      <point x="616" y="740" type="line"/>
      <point x="737" y="933" type="line"/>
      <point x="628" y="978" type="line"/>
      <point x="517" y="780" type="line"/>
    </contour>
  </outline>
</glyph>
<glyph name="hyphen.cap" format="2">
  <advance width="267"/>
  <outline>
    <contour>
      <point x="60" y="235" type="line" name="hr00"/>
      <point x="313" y="235" type="line"/>
      <point x="343" y="355" type="line"/>
      <point x="90" y="355" type="line"/>
    </contour>
  </outline>
</glyph>
<glyph name="keheh-ar.001" format="2">
  <advance width="828"/>
  <anchor x="458" y="-100" name="bottom"/>
  <anchor x="191" y="730" name="top"/>
  <outline>
    <contour>
      <point x="337" y="0" type="curve" smooth="yes"/>
      <point x="758" y="0" type="line"/>
      <point x="758" y="239" type="line" smooth="yes"/>
      <point x="758" y="343"/>
      <point x="717" y="485"/>
      <point x="538" y="485" type="curve" smooth="yes"/>
      <point x="363" y="485" type="line"/>
      <point x="411" y="576"/>
      <point x="425" y="601"/>
      <point x="478" y="682" type="curve"/>
      <point x="366" y="748" type="line"/>
      <point x="290" y="632"/>
      <point x="306" y="658"/>
      <point x="225" y="502" type="curve"/>
      <point x="317" y="365" type="line"/>
      <point x="538" y="365" type="line" smooth="yes"/>
      <point x="597" y="365"/>
      <point x="624" y="331"/>
      <point x="624" y="239" type="curve" smooth="yes"/>
      <point x="624" y="120" type="line"/>
      <point x="337" y="120" type="line" smooth="yes"/>
      <point x="202" y="120"/>
      <point x="174" y="143"/>
      <point x="174" y="212" type="curve" smooth="yes"/>
      <point x="174" y="263"/>
      <point x="189" y="326"/>
      <point x="197" y="367" type="curve"/>
      <point x="66" y="392" type="line"/>
      <point x="58" y="350"/>
      <point x="40" y="275"/>
      <point x="40" y="213" type="curve" smooth="yes"/>
      <point x="40" y="67"/>
      <point x="138" y="0"/>
    </contour>
  </outline>
</glyph>
<glyph name="one.pnum" format="2">
  <advance width="344"/>
  <outline>
    <contour>
      <point x="178" y="0" type="line"/>
      <point x="326" y="0" type="line"/>
      <point x="450" y="500" type="line"/>
      <point x="312" y="500" type="line"/>
      <point x="80" y="372" type="line" name="hr00"/>
      <point x="118" y="257" type="line"/>
      <point x="261" y="334" type="line"/>
    </contour>
  </outline>
</glyph>
<glyph name="ring.cap" format="2">
  <advance width="338"/>
  <outline>
    <contour>
      <point x="292" y="600" type="curve" smooth="yes"/>
      <point x="370" y="600"/>
      <point x="433" y="639"/>
      <point x="452" y="717" type="curve" smooth="yes"/>
      <point x="472" y="800"/>
      <point x="421" y="834"/>
      <point x="350" y="834" type="curve" smooth="yes"/>
      <point x="274" y="834"/>
      <point x="210" y="798"/>
      <point x="190" y="717" type="curve" smooth="yes"/>
      <point x="170" y="638"/>
      <point x="219" y="600"/>
    </contour>
    <contour>
      <point x="313" y="686" type="curve" smooth="yes"/>
      <point x="287" y="686"/>
      <point x="272" y="698"/>
      <point x="276" y="717" type="curve" smooth="yes"/>
      <point x="281" y="736"/>
      <point x="301" y="748"/>
      <point x="328" y="748" type="curve" smooth="yes"/>
      <point x="344" y="748"/>
      <point x="371" y="742"/>
      <point x="365" y="717" type="curve" smooth="yes"/>
      <point x="361" y="698"/>
      <point x="340" y="686"/>
    </contour>
  </outline>
</glyph>
<glyph name="seven-persian.urdu" format="2">
  <advance width="450"/>
  <outline>
    <contour>
      <point x="79" y="0" type="line"/>
      <point x="488" y="0" type="line"/>
      <point x="460" y="120" type="line"/>
      <point x="184" y="120" type="line"/>
      <point x="220" y="89" type="line"/>
      <point x="264" y="625" type="line"/>
      <point x="131" y="660" type="line"/>
    </contour>
  </outline>
</glyph>
<glyph name="seven.pnum" format="2">
  <advance width="411"/>
  <outline>
    <contour>
      <point x="185" y="-25" type="line"/>
      <point x="483" y="334" type="line"/>
      <point x="524" y="501" type="line"/>
      <point x="120" y="501" type="line"/>
      <point x="88" y="377" type="line" name="hr00"/>
      <point x="343" y="377" type="line"/>
      <point x="334" y="344" type="line"/>
      <point x="73" y="38" type="line"/>
    </contour>
  </outline>
</glyph>
<glyph name="three.pnum" format="2">
  <advance width="427"/>
  <outline>
    <contour>
      <point x="205" y="-9" type="curve" smooth="yes"/>
      <point x="397" y="-9"/>
      <point x="463" y="93"/>
      <point x="463" y="185" type="curve" smooth="yes"/>
      <point x="463" y="217"/>
      <point x="443" y="247"/>
      <point x="397" y="260" type="curve"/>
      <point x="442" y="270"/>
      <point x="505" y="305"/>
      <point x="505" y="401" type="curve" smooth="yes"/>
      <point x="505" y="464"/>
      <point x="446" y="509"/>
      <point x="344" y="509" type="curve" smooth="yes"/>
      <point x="281" y="509"/>
      <point x="189" y="502"/>
      <point x="108" y="487" type="curve"/>
      <point x="111" y="369" type="line"/>
      <point x="155" y="374"/>
      <point x="234" y="381"/>
      <point x="289" y="381" type="curve" smooth="yes"/>
      <point x="345" y="381"/>
      <point x="361" y="373"/>
      <point x="361" y="353" type="curve" smooth="yes"/>
      <point x="361" y="321"/>
      <point x="329" y="310"/>
      <point x="277" y="310" type="curve"/>
      <point x="149" y="310" type="line"/>
      <point x="119" y="190" type="line"/>
      <point x="247" y="190" type="line"/>
      <point x="300" y="190"/>
      <point x="326" y="182"/>
      <point x="326" y="164" type="curve" smooth="yes"/>
      <point x="326" y="128"/>
      <point x="280" y="120"/>
      <point x="222" y="120" type="curve" smooth="yes"/>
      <point x="174" y="120"/>
      <point x="92" y="126"/>
      <point x="44" y="131" type="curve"/>
      <point x="2" y="14" type="line"/>
      <point x="49" y="4"/>
      <point x="137" y="-9"/>
    </contour>
  </outline>
</glyph>
<glyph name="two.pnum" format="2">
  <advance width="422"/>
  <outline>
    <contour>
      <point x="3" y="0" type="line"/>
      <point x="417" y="0" type="line" name="hr00"/>
      <point x="449" y="129" type="line"/>
      <point x="260" y="129" type="line"/>
      <point x="360" y="198" type="line"/>
      <point x="439" y="252"/>
      <point x="489" y="297"/>
      <point x="489" y="387" type="curve" smooth="yes"/>
      <point x="489" y="447"/>
      <point x="447" y="509"/>
      <point x="322" y="509" type="curve" smooth="yes"/>
      <point x="254" y="509"/>
      <point x="169" y="494"/>
      <point x="123" y="483" type="curve"/>
      <point x="101" y="363" type="line"/>
      <point x="101" y="364"/>
      <point x="187" y="378"/>
      <point x="255" y="378" type="curve" smooth="yes"/>
      <point x="310" y="378"/>
      <point x="325" y="369"/>
      <point x="325" y="353" type="curve" smooth="yes"/>
      <point x="325" y="323"/>
      <point x="213" y="243"/>
      <point x="139" y="194" type="curve" smooth="yes"/>
      <point x="33" y="123" type="line"/>
    </contour>
  </outline>
</glyph>
<glyph name="zero.slash" format="2">
  <advance width="560"/>
  <outline>
    <contour>
      <point x="138" y="-65" type="line"/>
      <point x="193" y="-65" type="line"/>
      <point x="243" y="41" type="line"/>
      <point x="188" y="41" type="line"/>
    </contour>
    <contour>
      <point x="451" y="625" type="line"/>
      <point x="506" y="625" type="line"/>
      <point x="556" y="731" type="line"/>
      <point x="501" y="731" type="line"/>
    </contour>
    <contour>
      <point x="312" y="290" type="line" name="hr00"/>
      <point x="387" y="290" type="line"/>
      <point x="406" y="382" type="line"/>
      <point x="332" y="382" type="line"/>
    </contour>
    <component base="zero"/>
  </outline>
</glyph>
